<svg width="200" height="200" viewBox="0 0 200 200" fill="none" xmlns="http://www.w3.org/2000/svg">
<path d="M169.031 36.6366C164.312 5.29288 133.211 10.4765 133.211 10.4765C89.1992 18.6718 91.7695 73.4687 64.6211 104.918C57.4123 113.349 49.5945 121.24 41.2305 128.527L124.016 181.699L156.074 189.703C157.212 189.984 158.413 189.834 159.447 189.284C160.48 188.733 161.274 187.819 161.676 186.719C178.215 141.789 151.871 102.976 153.5 76.328C154.055 67.2733 157.125 60.664 159.242 57.3007L167.902 38.0116C168.065 38.0034 168.225 37.9621 168.371 37.8902C168.518 37.8184 168.648 37.7175 168.754 37.5937C168.867 37.464 168.951 37.3112 168.999 37.1459C169.046 36.9805 169.058 36.8067 169.031 36.6366Z" fill="#415D72"/>
<path d="M183.492 57.5391L156.547 44.4648C160.176 41.832 164.379 38.2227 167.902 38.0117C168.065 38.0035 168.225 37.9622 168.371 37.8903C168.518 37.8185 168.648 37.7176 168.754 37.5938L168.758 37.5977C178.883 45.0625 183.492 57.5391 183.492 57.5391Z" fill="#D8B9A9"/>
<path d="M156.547 44.4648L183.492 57.5391C178.734 59.5703 159.242 57.3008 159.242 57.3008L156.547 44.4648Z" fill="#AF968B"/>
<path d="M140.313 28.9961C141.314 28.9953 142.293 29.2916 143.126 29.8474C143.959 30.4032 144.609 31.1936 144.992 32.1186C145.376 33.0435 145.477 34.0616 145.282 35.0438C145.087 36.0261 144.605 36.9285 143.898 37.6369C143.19 38.3453 142.288 38.8279 141.305 39.0235C140.323 39.2192 139.305 39.1192 138.38 38.7361C137.455 38.3531 136.664 37.7042 136.107 36.8716C135.551 36.039 135.254 35.06 135.254 34.0586C135.254 32.7165 135.786 31.4293 136.735 30.4799C137.684 29.5305 138.97 28.9968 140.313 28.9961Z" fill="#BC505F"/>
<path d="M72.4336 112.731C99.582 81.2822 97.0117 26.4853 141.023 18.29C141.023 18.29 153.726 16.1744 164.127 22.8271C153.95 7.02477 133.211 10.4775 133.211 10.4775C89.1992 18.6728 91.7695 73.4697 64.6211 104.919C57.4123 113.35 49.5945 121.241 41.2305 128.528L50.884 134.727C58.55 127.885 65.7493 120.536 72.4336 112.731Z" fill="#3A6B89"/>
<path d="M111.203 117.62C136.313 128.898 134.949 166.363 124.016 181.698L21.4453 156.081C20.1685 155.763 19.018 155.065 18.1457 154.08C17.2733 153.094 16.72 151.868 16.5586 150.562C16.5242 150.294 16.5072 150.024 16.5078 149.753C16.5074 148.619 16.8036 147.505 17.3668 146.521C17.9301 145.537 18.7409 144.718 19.7188 144.144C25.6289 140.695 32.9141 135.702 41.2266 128.531L41.2305 128.527C58.8672 117.851 86.5586 106.554 111.203 117.62Z" fill="#ABB2BB"/>
<path d="M27.5313 151.957C33.4414 148.508 40.7266 143.516 49.0391 136.344L49.043 136.34C56.3439 129.991 63.2214 123.171 69.6313 115.924C58.9414 118.893 49.0879 123.771 41.2305 128.528L41.2266 128.532C32.9141 135.704 25.6289 140.696 19.7188 144.145C18.7409 144.719 17.9301 145.538 17.3668 146.522C16.8036 147.506 16.5074 148.62 16.5078 149.754C16.5072 150.025 16.5242 150.295 16.5586 150.563C16.72 151.869 17.2733 153.095 18.1457 154.081C19.018 155.066 20.1685 155.764 21.4453 156.082L24.3668 156.812C24.4825 155.813 24.8286 154.855 25.3777 154.012C25.9268 153.17 26.664 152.466 27.5313 151.957Z" fill="#8D9399"/>
<path d="M127.086 21.9802C126.957 21.6929 126.772 21.4345 126.541 21.2205C126.31 21.0064 126.038 20.8411 125.742 20.7344C125.446 20.6277 125.131 20.5818 124.817 20.5994C124.502 20.617 124.195 20.6977 123.912 20.8368C118.17 23.6641 113.269 27.9208 108.926 33.8505C102.861 42.1317 98.5042 52.6427 94.0308 63.8442C93.8 64.4214 93.808 65.0667 94.053 65.638C94.2979 66.2093 94.7598 66.6599 95.337 66.8907C95.9142 67.1215 96.5595 67.1135 97.1308 66.8685C97.7021 66.6236 98.1527 66.1617 98.3835 65.5845C102.743 54.6681 106.982 44.4376 112.707 36.62C116.575 31.3407 120.894 27.5641 125.91 25.0786C126.466 24.8116 126.899 24.341 127.117 23.7643C127.336 23.1876 127.325 22.5489 127.086 21.9802Z" fill="#F4F8FC"/>
<path d="M132.647 22.5241C132.074 22.5243 131.52 22.314 131.091 21.9331C130.661 21.5522 130.387 21.027 130.319 20.4573C130.251 19.8875 130.395 19.3126 130.723 18.8416C131.05 18.3707 131.54 18.0363 132.097 17.9018C132.879 17.7124 133.687 17.5397 134.496 17.3893C134.799 17.3329 135.11 17.3366 135.411 17.4003C135.712 17.464 135.998 17.5864 136.252 17.7605C136.506 17.9346 136.723 18.157 136.891 18.4151C137.059 18.6731 137.174 18.9617 137.231 19.2643C137.287 19.567 137.283 19.8778 137.22 20.179C137.156 20.4802 137.033 20.7659 136.859 21.0198C136.685 21.2737 136.463 21.4909 136.205 21.6588C135.947 21.8268 135.658 21.9423 135.356 21.9987C134.628 22.1339 133.904 22.2885 133.202 22.4585C133.021 22.5023 132.834 22.5244 132.647 22.5241Z" fill="#F4F8FC"/>
</svg>
