<svg width="200" height="200" viewBox="0 0 200 200" fill="none" xmlns="http://www.w3.org/2000/svg">
<path d="M143.004 107.184C101.547 89.6568 117.246 51.4927 117.246 51.4927L150.227 45.6841C149.255 40.086 146.755 34.8653 143.004 30.5982C141.86 29.3093 140.602 28.1261 139.246 27.063C133.473 22.5552 124.727 19.3404 111.52 20.606C73.875 24.2115 60.2227 93.5044 56.5898 105.614C55.0085 111.001 53.0866 116.283 50.8359 121.426L88.0273 178.985L159.137 189.793C160.269 189.962 161.421 189.676 162.343 188.998C163.264 188.319 163.88 187.303 164.055 186.172C168.5 158.231 159.098 137.622 143.004 107.184Z" fill="#D69F72"/>
<path d="M172.453 11.2421C192.051 17.3905 192.207 36.4764 184.75 42.746C178.793 47.7538 172.262 43.7147 170.727 35.453C169.191 27.1913 166.441 35.8358 159.129 33.1483C152.859 30.8436 152.555 21.5155 143.004 30.5975C141.86 29.3086 140.602 28.1255 139.246 27.0624C139.246 27.0624 152.859 5.09364 172.453 11.2421Z" fill="#936241"/>
<path d="M143.004 64.7768L150.226 45.6831C150.226 45.6831 143.519 37.7831 133.948 38.1995C131.186 38.348 128.503 39.1723 126.134 40.6001C123.765 42.0278 121.782 44.0154 120.36 46.3882L118.201 49.9272C117.456 51.1426 116.868 52.447 116.45 53.8097C113.851 62.3374 107.683 92.2503 143.004 107.183C126.105 75.2261 143.004 64.7768 143.004 64.7768Z" fill="#D17E46"/>
<path d="M122.621 42.6836C123.773 43.2323 124.683 44.1864 125.176 45.3636C125.669 46.5408 125.71 47.8584 125.293 49.0644C124.875 50.2703 124.028 51.2801 122.912 51.9005C121.797 52.5209 120.492 52.7084 119.247 52.4272C118.003 52.1459 116.905 51.4157 116.165 50.3761C115.425 49.3365 115.094 48.0605 115.235 46.7922C115.377 45.5238 115.981 44.3521 116.932 43.5012C117.883 42.6502 119.114 42.1797 120.39 42.1797C121.162 42.1798 121.924 42.3519 122.621 42.6836Z" fill="#495060"/>
<path d="M162.84 57.8594C162.939 57.9551 163.005 58.0794 163.029 58.2148C163.054 58.3501 163.035 58.4898 162.976 58.614C162.917 58.7382 162.82 58.8408 162.7 58.9072C162.58 58.9736 162.441 59.0006 162.305 58.9844L159.133 58.5703L137.793 55.7852C137.936 55.2399 138.258 54.7584 138.707 54.418L150.227 45.6836L162.84 57.8594Z" fill="#6D7486"/>
<path d="M159.132 58.5703L159.128 58.6016L143.003 64.7773L138.168 57.9063C137.952 57.6025 137.806 57.2547 137.742 56.8879C137.677 56.5211 137.694 56.1444 137.793 55.7852L159.132 58.5703Z" fill="#4A5160"/>
<path d="M143.004 30.5982C141.86 29.3093 140.602 28.1261 139.246 27.063C133.473 22.5552 124.727 19.3404 111.52 20.606C73.875 24.2115 60.2227 93.5044 56.5898 105.614C55.0085 111.001 53.0866 116.283 50.8359 121.426L58.6484 129.239C60.8991 124.095 62.821 118.814 64.4023 113.426C68.0352 101.317 81.6875 32.024 119.332 28.4185C131.309 27.2708 139.617 29.8076 145.366 33.6529C144.647 32.5838 143.858 31.5634 143.004 30.5982Z" fill="#A8754E"/>
<path d="M82.4688 89.6517C108.293 83.0697 130.977 119.179 107.777 157.663C102.535 166.363 95.6875 173.359 88.0274 178.984L14.3672 167.788C10.1953 167.152 9.31643 161.523 13.0938 159.64C29.4848 151.455 40.2547 141.975 48.1817 126.913C51.8518 119.851 56.2191 113.174 61.2184 106.982C67.3438 99.4748 75.2797 91.4857 82.4688 89.6517Z" fill="#A8754E"/>
<path d="M20.9063 167.453C37.2973 159.268 48.0672 149.789 55.9942 134.726C59.6643 127.664 64.0316 120.988 69.0309 114.796C75.1559 107.288 83.0934 99.2991 90.2809 97.4651C97.491 95.6291 104.455 97.1202 110.245 101.059C103.677 91.6858 93.3516 86.8768 82.4684 89.6526C74.2739 91.7432 65.109 101.83 58.7621 110.086C54.8819 115.139 51.4656 120.531 48.5547 126.198C40.5926 141.678 29.7426 151.328 13.0938 159.641C9.31643 161.524 10.1953 167.153 14.3672 167.789L19.4809 168.567C19.8735 168.101 20.359 167.721 20.9063 167.453Z" fill="#936241"/>
<path d="M91.4906 163.688C91.056 163.688 90.63 163.566 90.2603 163.338C89.8905 163.11 89.5916 162.783 89.3968 162.394C89.2021 162.006 89.1193 161.571 89.1576 161.138C89.1958 160.705 89.3538 160.291 89.6137 159.943C90.9188 158.193 92.1492 156.362 93.2711 154.501C97.0081 148.419 99.7283 141.768 101.325 134.81C101.462 134.207 101.832 133.682 102.355 133.351C102.878 133.019 103.51 132.908 104.115 133.041C104.719 133.175 105.246 133.542 105.581 134.062C105.916 134.583 106.031 135.215 105.902 135.82C104.196 143.275 101.286 150.403 97.286 156.921C96.0852 158.913 94.768 160.873 93.3711 162.745C93.1531 163.038 92.8694 163.276 92.5429 163.44C92.2163 163.603 91.8559 163.688 91.4906 163.688Z" fill="#F4F8FC"/>
<path d="M104.84 128.928C104.794 128.928 104.747 128.928 104.699 128.924C104.079 128.886 103.499 128.604 103.087 128.139C102.674 127.675 102.463 127.065 102.5 126.445C102.537 125.815 102.563 125.181 102.575 124.56C102.588 123.938 102.847 123.347 103.296 122.917C103.744 122.486 104.345 122.251 104.967 122.264C105.589 122.277 106.18 122.536 106.61 122.985C107.041 123.433 107.275 124.034 107.263 124.656C107.249 125.336 107.221 126.032 107.18 126.722C107.145 127.319 106.883 127.879 106.448 128.289C106.013 128.699 105.438 128.928 104.84 128.928Z" fill="#F4F8FC"/>
</svg>
