<svg width="200" height="200" viewBox="0 0 200 200" fill="none" xmlns="http://www.w3.org/2000/svg">
<path d="M141.622 48.8137L139.591 45.5606C139.591 45.5606 113.255 15.041 93.9421 12.8535L101.739 22.2012C101.454 22.1035 87.0788 17.1895 78.3405 22.877L84.7702 28.4707C84.7702 28.4707 74.6452 26.709 69.6335 31.8691L78.4655 36.2109C78.4655 36.2109 69.0124 39.7773 66.2155 44.1172L78.4343 43.4023C78.4343 43.4023 65.0241 51.3164 66.0476 74.9844C66.6726 89.5078 61.9186 102.879 58.153 111.047C57.0646 113.419 55.4899 115.535 53.531 117.259C51.5721 118.983 49.2727 120.276 46.7819 121.055C29.7976 126.301 16.2624 137.066 10.9538 141.727C10.6719 141.975 10.4538 142.287 10.3176 142.637C10.1815 142.986 10.1315 143.364 10.1717 143.737C10.2119 144.11 10.3412 144.469 10.5486 144.782C10.7561 145.094 11.0357 145.353 11.364 145.535L85.5905 186.852C85.8758 187.011 86.1915 187.11 86.5172 187.14C86.8428 187.17 87.1712 187.132 87.4811 187.027C131.798 171.988 117.782 133.711 117.309 103.203C116.942 79.4922 130.407 74.0781 136.575 72.8398C136.662 72.8211 136.748 72.7976 136.833 72.7695C136.844 72.7656 136.86 72.7578 136.883 72.75C137.144 72.6448 137.375 72.4777 137.556 72.2632C137.737 72.0488 137.864 71.7933 137.924 71.519C137.984 71.2448 137.977 70.9599 137.903 70.6891C137.828 70.4183 137.689 70.1697 137.497 69.9648L141.622 48.8137Z" fill="#A8B6CC"/>
<path d="M180.238 47.7871C186.469 49.209 189.844 57.752 189.844 57.752C189.844 57.752 187.016 57.7637 182.574 57.873C168.66 58.2168 138.895 59.5137 130.422 64.3887C129.176 63.657 127.868 63.0386 126.512 62.541C141.566 57.623 139.59 45.5605 139.59 45.5605C139.59 45.5605 174.012 46.3613 180.238 47.7871Z" fill="#6D7486"/>
<path d="M182.574 57.873C182.574 57.873 175.266 62.1816 160.133 65.7754C152.254 67.6467 144.491 69.9749 136.883 72.748C137.143 72.6429 137.374 72.4759 137.556 72.2614C137.737 72.0469 137.863 71.7915 137.924 71.5172C137.984 71.2428 137.977 70.9579 137.902 70.6871C137.828 70.4163 137.688 70.1677 137.496 69.9629C135.427 67.7652 133.043 65.8867 130.422 64.3887C138.895 59.5137 168.66 58.2168 182.574 57.873Z" fill="#4A5160"/>
<path d="M118.141 52.9629C118.818 52.9652 119.48 53.1683 120.043 53.5466C120.605 53.9249 121.043 54.4613 121.301 55.0882C121.559 55.7151 121.625 56.4043 121.491 57.0688C121.358 57.7334 121.03 58.3434 120.55 58.8219C120.07 59.3003 119.459 59.6258 118.794 59.7572C118.129 59.8886 117.44 59.82 116.814 59.5601C116.188 59.3001 115.653 58.8605 115.276 58.2968C114.9 57.733 114.699 57.0704 114.699 56.3926C114.7 55.9413 114.789 55.4946 114.962 55.0779C115.136 54.6613 115.389 54.2828 115.709 53.9643C116.029 53.6458 116.408 53.3934 116.825 53.2215C117.242 53.0497 117.689 52.9618 118.141 52.9629Z" fill="#706972"/>
<path d="M18.7663 149.537C24.0749 144.877 37.6101 134.111 54.5944 128.865C57.0852 128.087 59.3846 126.794 61.3435 125.07C63.3024 123.346 64.8771 121.229 65.9655 118.857C69.7311 110.689 74.4851 97.3184 73.8601 82.7949C72.8366 59.127 86.2468 51.2129 86.2468 51.2129L74.028 51.9277C76.8249 47.5879 86.278 44.0215 86.278 44.0215L77.446 39.6816C82.4577 34.5215 92.5827 36.2832 92.5827 36.2832L86.153 30.6895C94.8913 25.002 109.266 29.916 109.551 30.0137L101.755 20.666C113.032 21.9434 126.703 32.8809 136.127 41.7617C128.354 33.5125 109.01 14.5602 93.9421 12.8555L101.739 22.2031C101.454 22.1055 87.0788 17.1914 78.3405 22.8789L84.7702 28.4727C84.7702 28.4727 74.6452 26.7109 69.6335 31.8711L78.4655 36.2109C78.4655 36.2109 69.0124 39.7773 66.2155 44.1172L78.4343 43.4023C78.4343 43.4023 65.0241 51.3164 66.0476 74.9844C66.6726 89.5078 61.9186 102.879 58.153 111.047C57.0646 113.419 55.4899 115.535 53.531 117.259C51.5721 118.983 49.2727 120.276 46.7819 121.055C29.7976 126.301 16.2624 137.066 10.9538 141.727C10.6719 141.975 10.4538 142.287 10.3176 142.637C10.1815 142.986 10.1315 143.364 10.1717 143.737C10.2119 144.11 10.3412 144.469 10.5486 144.782C10.7561 145.094 11.0357 145.353 11.364 145.535L18.6913 149.614C18.7167 149.587 18.7394 149.561 18.7663 149.537Z" fill="#7689A5"/>
<path d="M77.0381 86.0684C76.4173 86.0684 75.8219 85.8221 75.3825 85.3836C74.9431 84.945 74.6956 84.3501 74.6944 83.7293C74.6944 82.9305 74.6748 82.1242 74.6408 81.3332C74.6141 80.7122 74.8352 80.106 75.2554 79.6479C75.6757 79.1899 76.2606 78.9176 76.8817 78.8908C77.5027 78.8641 78.1089 79.0852 78.5669 79.5054C79.025 79.9257 79.2973 80.5106 79.324 81.1317C79.3608 81.9867 79.3803 82.8571 79.3819 83.7196C79.3825 84.0273 79.3226 84.3322 79.2054 84.6169C79.0882 84.9015 78.9161 85.1602 78.699 85.3783C78.4818 85.5964 78.2238 85.7696 77.9397 85.888C77.6556 86.0064 77.351 86.0677 77.0432 86.0684H77.0381Z" fill="#F4F8FC"/>
<path d="M60.6505 128.456C60.1241 128.456 59.613 128.28 59.1993 127.954C58.7856 127.629 58.4936 127.174 58.3701 126.662C58.2466 126.15 58.299 125.612 58.5187 125.134C58.7384 124.656 59.1127 124.265 59.5813 124.026C62.8317 122.349 65.4287 119.634 66.9594 116.313C69.6028 110.583 73.0094 101.619 74.2298 91.4536C74.3089 90.8408 74.6269 90.284 75.1145 89.9044C75.6022 89.5249 76.22 89.3532 76.8335 89.4269C77.447 89.5005 78.0067 89.8135 78.3906 90.2977C78.7746 90.7818 78.9518 91.3981 78.8837 92.0122C77.5907 102.784 74.0008 112.24 71.2161 118.277C69.244 122.551 65.9001 126.043 61.7157 128.199C61.3861 128.368 61.021 128.456 60.6505 128.456Z" fill="#F4F8FC"/>
</svg>
