<svg width="200" height="200" viewBox="0 0 200 200" fill="none" xmlns="http://www.w3.org/2000/svg">
<path d="M152.699 37.9725C152.699 37.9725 144.988 26.1209 132.242 24.7537C84.4609 19.6287 91.3281 64.8865 58.3594 80.9881C57.4023 81.4568 56.4596 81.9308 55.5312 82.41L57.2383 146.551L111.145 175.308C111.727 175.62 112.399 175.723 113.048 175.599C113.697 175.475 114.284 175.133 114.711 174.629C134.078 151.644 135.086 129.797 138.016 103.097C141.867 68.0115 161.121 59.8396 161.121 59.8396L152.699 37.9725Z" fill="#3C3751"/>
<path d="M189.602 55.6255C185.117 57.2505 161.121 59.8404 161.121 59.8404C161.121 59.8404 144.164 54.9146 141.379 53.3052C141.271 53.2429 141.181 53.1536 141.118 53.0461C141.055 52.9385 141.021 52.8165 141.02 52.6919C141.02 52.6919 168.945 48.5357 189.832 55.1802C189.856 55.2698 189.846 55.3651 189.803 55.4474C189.76 55.5298 189.688 55.5933 189.602 55.6255Z" fill="#4A5160"/>
<path d="M189.832 55.1797C168.945 48.5352 141.019 52.6914 141.019 52.6914C140.773 49.5742 152.699 37.9727 152.699 37.9727C152.699 37.9727 185.652 39.5195 189.832 55.1797Z" fill="#6D7486"/>
<path d="M132.809 39.293C133.389 39.2937 133.955 39.4665 134.437 39.7893C134.919 40.1121 135.295 40.5705 135.516 41.1066C135.738 41.6427 135.795 42.2325 135.681 42.8013C135.568 43.3701 135.288 43.8924 134.878 44.3023C134.467 44.7122 133.945 44.9912 133.376 45.1041C132.807 45.217 132.217 45.1586 131.681 44.9365C131.145 44.7143 130.687 44.3383 130.365 43.856C130.043 43.3736 129.871 42.8066 129.871 42.2266C129.872 41.4481 130.182 40.7018 130.733 40.1517C131.283 39.6016 132.03 39.2928 132.809 39.293Z" fill="#A84C55"/>
<path d="M132.242 24.7537C84.4609 19.6287 91.3281 64.8865 58.3594 80.9881C57.4023 81.4568 56.4596 81.9308 55.5312 82.41L63.3438 90.2225C64.2734 89.742 65.2161 89.268 66.1719 88.8006C99.1406 72.699 92.2734 27.4412 140.055 32.5662C144.977 33.0943 149.145 35.1873 152.411 37.556C150.915 35.4572 143.57 25.9685 132.242 24.7537Z" fill="#464260"/>
<path d="M55.5319 82.4103C84.8912 76.1017 94.7897 96.1954 89.5787 113.66C87.274 121.367 78.192 135.141 57.2389 146.551L11.6881 122.254C11.3116 122.054 10.9841 121.773 10.7294 121.431C10.4746 121.089 10.2988 120.694 10.2148 120.276C10.1307 119.858 10.1404 119.427 10.2432 119.013C10.346 118.599 10.5393 118.213 10.8092 117.883C16.0904 111.445 31.067 95.0158 55.5279 82.4103H55.5319Z" fill="#464260"/>
<path d="M18.6216 125.703C23.9029 119.264 38.8794 102.735 63.3404 90.2347H63.3443C73.9916 87.8909 82.0771 89.1335 87.813 92.4054C83.0236 83.9777 72.5459 78.9066 55.5318 82.4222H55.5279C31.0669 94.9222 16.0904 111.451 10.8091 117.891C10.5393 118.221 10.346 118.607 10.2432 119.02C10.1404 119.434 10.1307 119.865 10.2148 120.283C10.2989 120.701 10.4746 121.095 10.7294 121.437C10.9842 121.778 11.3116 122.059 11.688 122.259L18.4869 125.887C18.5302 125.823 18.5724 125.761 18.6216 125.703Z" fill="#2E2A42"/>
<path d="M118.657 148.897C118.263 148.897 117.876 148.798 117.531 148.609C117.186 148.42 116.895 148.147 116.683 147.815C116.471 147.483 116.346 147.104 116.32 146.711C116.293 146.319 116.366 145.926 116.531 145.569C122.572 132.515 124.386 119.294 125.985 104.606C126.018 104.3 126.111 104.003 126.259 103.733C126.407 103.463 126.607 103.225 126.847 103.032C127.086 102.84 127.362 102.696 127.657 102.61C127.953 102.523 128.262 102.496 128.568 102.529C128.874 102.563 129.171 102.656 129.441 102.804C129.711 102.952 129.949 103.151 130.142 103.391C130.335 103.631 130.478 103.907 130.564 104.202C130.651 104.498 130.678 104.807 130.645 105.113C129.001 120.22 127.125 133.84 120.786 147.538C120.598 147.945 120.297 148.288 119.92 148.529C119.543 148.77 119.104 148.898 118.657 148.897Z" fill="#F4F8FC"/>
<path d="M129.178 99.1085C128.849 99.1086 128.524 99.0395 128.223 98.9056C127.923 98.7717 127.654 98.576 127.434 98.3313C127.214 98.0866 127.047 97.7984 126.946 97.4853C126.845 97.1722 126.81 96.8412 126.845 96.514C126.926 95.7622 127.008 95.0063 127.091 94.2464C127.159 93.6285 127.47 93.0628 127.955 92.6738C128.439 92.2848 129.059 92.1044 129.677 92.1722C130.295 92.24 130.861 92.5505 131.249 93.0354C131.638 93.5203 131.819 94.1398 131.751 94.7577C131.668 95.513 131.586 96.2654 131.506 97.0152C131.444 97.5897 131.173 98.1211 130.743 98.5075C130.313 98.8938 129.756 99.1079 129.178 99.1085Z" fill="#F4F8FC"/>
</svg>
