<svg width="200" height="200" viewBox="0 0 200 200" fill="none" xmlns="http://www.w3.org/2000/svg">
<path d="M166.703 91.6211C160.551 65.7227 169.687 52.1992 169.687 52.1992L164.617 35.7148C164.617 35.7148 159.367 30.9453 150.316 26.6523C150.316 26.6523 148.445 36.2539 133.824 36.7461C123.547 37.0937 115.352 46.6289 116.93 55.6406C118.891 66.8203 113.027 75.832 112.684 76.3477C112.691 76.3565 112.695 76.3675 112.695 76.3789L117.215 169.27V169.273L133.047 178.469C135.168 179.695 137.62 180.229 140.059 179.997C142.498 179.764 144.805 178.777 146.656 177.172C164.273 161.973 177.703 137.918 166.703 91.6211Z" fill="#CC7E66"/>
<path d="M189.844 31.7617L169.687 52.1992L158.477 47.1914L164.617 35.7148L189.844 31.7617Z" fill="#CCC260"/>
<path d="M132.172 53.5742C134.677 53.5742 136.707 51.5525 136.707 49.0586C136.707 46.5647 134.677 44.543 132.172 44.543C129.667 44.543 127.637 46.5647 127.637 49.0586C127.637 51.5525 129.667 53.5742 132.172 53.5742Z" fill="#706872"/>
<path d="M52.5938 59.2103V59.2142L112.684 76.347C113.027 75.8314 118.891 66.8197 116.93 55.64C115.352 46.6283 123.547 37.0931 133.824 36.7455C148.445 36.2533 150.316 26.6517 150.316 26.6517C130.668 17.3275 93.1211 10.2611 52.5938 59.2103Z" fill="#4A5160"/>
<path d="M136.707 95.6289C129.949 82.6641 113.457 76.6523 112.695 76.3789L76.4414 145.59L117.215 169.273V169.27C146.211 149.766 147.434 116.207 136.707 95.6289Z" fill="#636875"/>
<path d="M149.854 28.0224C150.208 27.1939 150.387 26.6517 150.387 26.6517C130.738 17.3275 92.9688 10.2611 52.7344 59.2103V59.2142L62.1441 61.9174C96.9219 21.1385 129.273 21.2326 149.854 28.0224Z" fill="#3B4049"/>
<path d="M115.262 89.394C116.852 113.628 97.0042 132.585 76.4417 145.589L15.9885 110.48C14.5788 109.664 13.3555 108.561 12.3972 107.244C11.4388 105.927 10.7666 104.424 10.4237 102.831C10.0809 101.238 10.0749 99.5919 10.4063 97.9969C10.7377 96.402 11.3991 94.8939 12.3479 93.5698C20.137 82.7573 30.3284 74.2456 38.0901 67.6284C42.4195 64.0314 47.3224 61.1872 52.594 59.2143C61.2385 55.8667 71.3596 54.2339 81.7229 54.851C94.2385 55.5971 107.199 61.144 112.684 76.3471C112.678 76.3545 112.673 76.3624 112.668 76.3706C112.677 76.3742 112.686 76.3769 112.696 76.3784C114.158 80.5748 115.022 84.9564 115.262 89.394Z" fill="#6D7486"/>
<path d="M20.1604 98.2573C27.9495 87.4448 38.1409 78.9331 45.9026 72.3159C50.232 68.7189 55.1349 65.8747 60.4065 63.9018C69.051 60.5542 79.1721 58.9214 89.5354 59.5385C94.2311 59.7746 98.8528 60.8049 103.204 62.5854C97.0549 57.5249 89.3088 55.3038 81.7229 54.851C71.3596 54.2339 61.2385 55.8667 52.594 59.2143C47.3224 61.1872 42.4195 64.0314 38.0901 67.6284C30.3284 74.2456 20.137 82.7573 12.3479 93.5698C11.3991 94.8939 10.7377 96.402 10.4063 97.9969C10.0749 99.5919 10.0809 101.238 10.4237 102.831C10.7666 104.424 11.4388 105.927 12.3972 107.244C13.3555 108.561 14.5788 109.664 15.9885 110.48L22.3702 114.186C20.0299 112.321 18.4956 109.627 18.0843 106.663C17.6731 103.699 18.4163 100.689 20.1604 98.2573Z" fill="#585D68"/>
<path d="M44.1743 77.1062C43.6948 77.1067 43.2266 76.9601 42.8329 76.6861C42.4393 76.4122 42.1392 76.024 41.9731 75.5741C41.8071 75.1242 41.783 74.6342 41.9042 74.1702C42.0254 73.7062 42.286 73.2905 42.6509 72.9793C49.145 67.4414 58.5318 63.6457 69.0818 62.291C69.39 62.2453 69.7043 62.2615 70.0063 62.3387C70.3082 62.4159 70.5917 62.5525 70.8402 62.7406C71.0887 62.9287 71.2972 63.1644 71.4535 63.4341C71.6098 63.7037 71.7107 64.0018 71.7504 64.3109C71.7901 64.62 71.7677 64.9339 71.6846 65.2343C71.6015 65.5346 71.4594 65.8154 71.2665 66.0602C71.0735 66.3049 70.8338 66.5088 70.5611 66.6598C70.2885 66.8107 69.9885 66.9058 69.6786 66.9394C60.0204 68.1797 51.5021 71.591 45.6943 76.5453C45.2708 76.9076 44.7317 77.1066 44.1743 77.1062Z" fill="#F4F8FC"/>
<path d="M81.1692 66.5553C81.1227 66.5553 81.0754 66.5553 81.0282 66.5514C80.3079 66.5084 79.5758 66.4784 78.8524 66.4616C78.5446 66.4544 78.2412 66.3867 77.9596 66.2623C77.678 66.1379 77.4236 65.9593 77.2111 65.7366C76.9985 65.5139 76.8319 65.2515 76.7207 64.9644C76.6095 64.6773 76.556 64.3711 76.5631 64.0633C76.5703 63.7555 76.638 63.4522 76.7624 63.1706C76.8868 62.8889 77.0654 62.6346 77.2881 62.422C77.5108 62.2094 77.7732 62.0428 78.0603 61.9316C78.3474 61.8205 78.6536 61.7669 78.9614 61.7741C79.7426 61.792 80.5301 61.8249 81.3051 61.8709C81.9129 61.9078 82.4825 62.1797 82.8933 62.6292C83.3042 63.0786 83.5239 63.6703 83.5061 64.279C83.4883 64.8876 83.2343 65.4655 82.7979 65.8901C82.3615 66.3148 81.7769 66.5529 81.168 66.5541L81.1692 66.5553Z" fill="#F4F8FC"/>
</svg>
