<svg width="594" height="644" viewBox="0 0 594 644" fill="none" xmlns="http://www.w3.org/2000/svg">
<path opacity="0.15" d="M297.592 643.739C460.971 643.739 593.416 567.785 593.416 474.091C593.416 380.397 460.971 304.442 297.592 304.442C134.213 304.442 1.76758 380.397 1.76758 474.091C1.76758 567.785 134.213 643.739 297.592 643.739Z" fill="black"/>
<path d="M488.821 303.948C384.769 244.313 216.295 244.313 112.334 303.948C60.4886 333.698 34.6566 372.661 34.6113 411.804V459.935C34.6113 499.032 60.3077 538.13 112.334 568.015C216.386 627.606 384.859 627.606 488.821 568.015C540.711 538.22 566.498 499.257 566.543 460.159V411.849C566.589 372.796 540.756 333.743 488.821 303.948Z" fill="#FFBDA7"/>
<path d="M300.578 561.454C440.996 561.454 554.827 496.164 554.827 415.624C554.827 335.084 440.996 269.794 300.578 269.794C160.16 269.794 46.3291 335.084 46.3291 415.624C46.3291 496.164 160.16 561.454 300.578 561.454Z" fill="#F0997A"/>
<path d="M452.357 585.273C446.386 586.756 360.113 604.777 282.119 597.047C228.284 591.744 215.074 572.689 236.246 568.825C255.066 565.409 337.086 577.183 443.4 536.288C443.4 536.288 166.395 294.196 146.037 299.814C136.628 302.42 133.235 298.6 133.189 293.163C125.996 296.533 119.029 300.083 112.334 303.948C60.4886 333.698 34.6566 372.661 34.6113 411.804C34.6113 420.253 34.6113 451.621 34.6113 459.935C34.6113 499.033 60.3077 538.13 112.334 568.016C204.895 620.91 348.577 626.662 452.357 585.273Z" fill="#F0997A"/>
<path d="M473.983 263.457C377.441 208.091 220.91 208.091 124.413 263.457C76.2327 291.05 52.2555 327.227 52.0293 363.449V409.962C52.0293 446.273 75.8708 482.585 124.413 510.313C220.91 565.679 377.441 565.679 473.983 510.313C522.163 482.674 546.141 446.498 546.367 410.276C546.367 402.457 546.367 371.403 546.367 363.628C546.186 327.362 522.209 291.14 473.983 263.457Z" fill="#B16668"/>
<path d="M299.175 498.898C429.374 498.898 534.921 438.376 534.921 363.718C534.921 289.061 429.374 228.539 299.175 228.539C168.977 228.539 63.4297 289.061 63.4297 363.718C63.4297 438.376 168.977 498.898 299.175 498.898Z" fill="#9A4A4D"/>
<path d="M458.556 469.417C425.078 489.236 368.076 501.235 368.076 501.235C368.076 501.235 334.191 532.693 321.84 532.063C309.49 531.434 302.116 517.503 234.21 503.527C161.419 488.562 131.651 468.743 111.067 447.172C90.4831 425.601 90.2568 411.579 90.2568 411.579C90.2568 411.579 485.564 413.871 518.996 406.816C517.051 416.118 505.605 441.509 458.556 469.417Z" fill="#9A4A4D"/>
<path d="M487.872 442.678C469.47 457.202 450.274 470.705 430.372 483.124C353.147 532.558 353.78 526.311 330.482 512.605C309.49 500.156 284.789 491.797 217.653 478.585L194.083 474.091C108.76 458.317 64.9229 372.257 64.9229 372.257H529.854C529.854 372.257 529.538 409.243 487.872 442.678Z" fill="#F0F0F0"/>
<path d="M487.872 442.678C446.658 459.665 382.462 482.45 338.127 480.562C300.849 478.989 253.709 478.495 217.653 478.405L194.083 473.911C108.76 458.137 64.9229 372.077 64.9229 372.077H529.854C529.854 372.077 529.538 409.242 487.872 442.678Z" fill="#E0E0E0"/>
<path d="M308.947 493.595C318.114 496.573 326.857 500.712 334.96 505.908C345.23 513.144 357.58 521.682 403.318 494.404L449.101 467.125C449.101 467.125 395.491 496.696 370.564 501.1C345.637 505.504 314.557 491.528 308.947 493.595Z" fill="white"/>
<path d="M473.983 184.543C377.441 129.176 220.91 129.176 124.413 184.543C76.2327 212.181 52.2555 248.357 52.0293 284.534V331.047C52.0293 367.358 75.8708 403.67 124.413 431.398C220.91 486.764 377.441 486.764 473.983 431.398C522.163 403.76 546.141 367.583 546.367 331.362C546.367 323.542 546.367 292.488 546.367 284.714C546.186 248.312 522.209 212.091 473.983 184.543Z" fill="#B16668"/>
<path d="M299.175 419.848C429.374 419.848 534.921 359.326 534.921 284.669C534.921 210.011 429.374 149.489 299.175 149.489C168.977 149.489 63.4297 210.011 63.4297 284.669C63.4297 359.326 168.977 419.848 299.175 419.848Z" fill="#9A4A4D"/>
<path opacity="0.15" d="M440.415 408.209C434.308 410.096 433.086 417.197 428.019 419.444C426.617 420.073 421.731 417.961 419.695 418.096C415.795 418.263 412.059 419.7 409.064 422.185C407.435 423.399 407.254 424.837 405.037 425.87C401.69 427.533 398.839 426.994 395.537 429.69C392.234 432.386 393.23 433.33 388.841 432.836C383.413 432.207 379.793 428.342 373.776 429.196C367.76 430.05 363.778 435.487 358.033 435.892C352.287 436.296 346.994 431.398 341.339 433.24C338.037 434.319 336.092 438.678 332.834 439.397C328.763 440.296 325.008 435.847 320.393 438.678C316.503 441.015 317 443.981 312.295 444.071C307.59 444.161 301.845 440.116 296.416 439.981C292.344 439.981 289.494 442.318 286.328 442.902C281.804 443.666 277.732 441.195 273.298 440.88C267.553 440.431 263.662 444.745 258.279 444.88C251.131 445.105 244.345 441.734 236.79 442.588C230.275 443.307 223.534 442.947 217.11 443.936C225.661 456.295 241.585 447.396 251.538 454.003C254.66 456.115 255.7 459.171 260.043 457.868C262.712 457.014 263.527 453.733 265.698 453.059C271.263 451.351 275.244 458.227 281.442 457.014C282.935 456.744 284.835 454.722 285.966 454.767C292.344 454.767 298.045 461.373 304.062 460.249C312.077 458.079 320.367 457.08 328.672 457.283C337.494 458.137 343.873 455.665 352.695 454.767C357.988 454.227 363.236 456.924 368.212 455.621C374.229 454.048 376.536 447.621 383.096 447.307C386.398 447.307 390.425 449.464 394.18 449.374C403.725 449.104 409.833 440.386 418.247 439.217C421.505 438.723 424.491 441.599 427.657 441.419C435.167 441.015 437.791 435.308 442.27 429.286C448.604 434.499 465.252 433.78 461.135 420.837C461.633 422.365 478.009 417.781 479.231 415.264C485.745 400.254 445.437 406.636 440.415 408.209Z" fill="white"/>
<path opacity="0.15" d="M508.954 468.968C512.077 468.811 515.053 467.605 517.396 465.547C519.738 463.489 521.308 460.703 521.847 457.643C527.864 465.103 528.769 453.598 530.352 449.554C532.343 444.565 541.798 433.69 533.79 429.241C531.347 427.893 529.945 429.915 528.271 432.072C526.904 434.516 525.216 436.768 523.25 438.768C521.259 440.116 518.725 439.307 517.097 440.296C513.749 442.184 512.211 453.374 511.713 453.553C508.193 454.458 504.889 456.048 501.992 458.231C499.095 460.414 496.664 463.147 494.839 466.271C491.943 471.754 493.753 470.765 486.831 470.765C480.814 470.765 470.635 470.99 465.659 475.259C462.718 477.776 462.628 483.034 459.959 485.236C458.059 486.764 453.67 485.775 451.408 486.944C448.015 488.652 446.884 491.932 444.17 494.808C437.836 501.954 431.593 496.471 423.541 499.302C414.493 502.583 405.987 509.459 397.12 513.818C392.596 516.065 379.024 517.323 377.215 522.806C387.756 524.738 402.187 521.593 412.728 519.391C424.581 516.919 443.31 514.582 451.363 504.021C461.814 511.256 468.192 497.999 474.888 492.292C478.507 489.146 475.612 489.685 480.272 490.224C487.691 491.168 491.446 492.382 495.201 482.09C501.806 487.124 510.22 476.922 508.954 468.968Z" fill="white"/>
<path d="M489.772 411.445C477.738 406.926 465.159 403.995 452.358 402.726C414.89 398.881 377.165 398.144 339.575 400.524C291.575 403.041 244.571 408.748 216.974 415.624C95.143 445.824 104.508 508.605 71.211 448.161C67.8545 442.085 65.0535 435.723 62.8416 429.151C44.4742 375.627 71.1658 327.092 71.1658 327.092C71.1658 327.092 502.665 259.098 531.347 339.586C538.795 358.943 544.577 378.893 548.629 399.221C556.184 444.61 527.728 427.668 489.772 411.445Z" fill="#F0F0F0"/>
<path d="M548.629 399.221C542.612 392.12 539.173 380.975 530.533 375.852C523.758 372.076 516.052 370.268 508.293 370.634C500.534 370.999 493.034 373.524 486.65 377.919C475.792 385.604 464.437 395.895 452.177 402.726C414.709 398.881 376.984 398.144 339.394 400.524C324.826 398.367 311.481 393.199 296.009 395.131C286.961 396.255 278.41 400.749 269.317 401.468C261.129 402.187 253.528 398.367 245.521 398.412C229.053 398.412 215.662 408.299 199.014 409.108C182.366 409.917 173.046 405.018 158.298 399.221C141.107 392.255 133.145 401.063 116.903 406.681C102.969 411.579 81.3448 401.513 70.3514 411.4C65.5238 416.081 62.731 422.452 62.5701 429.151C44.2027 375.627 70.8943 327.092 70.8943 327.092C70.8943 327.092 502.393 259.098 531.076 339.586C538.616 358.934 544.488 378.884 548.629 399.221Z" fill="#E0E0E0"/>
<path d="M543.607 420.477C536.369 428.297 514.88 415.444 507.098 412.253C494.612 407.13 481.945 403.49 469.232 399.446C483.121 400.398 496.952 402.048 510.672 404.389C514.925 404.749 552.519 410.86 543.607 420.477Z" fill="white"/>
<path d="M115.094 452.34C109.611 457.417 103.536 461.823 96.9976 465.462C92.4736 467.395 88.5376 467.709 86.9995 462.137C85.8232 457.868 102.245 443.711 133.687 429.196C151.465 421.784 170.245 417.014 189.423 415.04C178.203 419.264 160.786 426.185 154.588 428.522C140.071 434.002 126.686 442.074 115.094 452.34Z" fill="white"/>
<path d="M593.371 290.826C592.828 302.15 580.025 305.251 573.013 309.655C561.975 316.531 561.794 322.149 561.522 336.619C561.52 338.005 561.399 339.389 561.16 340.754C561.021 343.825 560.091 346.809 558.459 349.421C556.828 352.033 554.549 354.186 551.841 355.674C545.205 358.38 538.113 359.813 530.94 359.898L527.999 360.213C524.199 359.719 520.489 359.224 517.232 359.089C515.968 358.978 514.696 358.978 513.432 359.089C497.598 360.033 489.817 371.628 479.412 383.312C477.433 385.6 475.236 387.692 472.852 389.559C457.244 401.827 439.057 399.176 420.011 395.131L414.809 394.008C395.084 389.514 381.648 394.547 362.964 397.873C358.031 398.783 352.954 398.552 348.125 397.199C332.789 393.064 320.257 378.414 313.2 361.516C301.98 334.822 312.069 323.362 328.039 316.576L330.436 315.588H330.753C331.748 315.228 332.698 314.824 333.739 314.554C338.081 313.056 342.507 311.811 346.994 310.824C353.192 309.251 359.435 307.813 365.09 306.33C370.745 304.847 377.305 303.723 383.186 301.836C383.487 301.831 383.782 301.754 384.046 301.611C385.313 301.287 386.553 300.866 387.755 300.353C391.205 298.724 394.416 296.638 397.301 294.151C400.533 291.564 403.933 289.192 407.48 287.051C413.558 283.88 419.863 281.162 426.345 278.917C435.393 275.771 444.712 273.344 453.896 270.872C471.404 266.378 489.364 265.884 506.963 262.154C518.544 259.682 527.547 250.739 539.309 249.885C551.252 249.582 563.04 252.618 573.33 258.649C584.776 265.435 594.005 276.31 593.371 290.826Z" fill="#BA68C8"/>
<path opacity="0.4" d="M593.371 290.826C592.828 302.15 580.025 305.251 573.013 309.655C561.975 316.531 561.794 322.149 561.522 336.619C561.52 338.005 561.399 339.389 561.16 340.754C561.021 343.825 560.091 346.809 558.459 349.421C556.828 352.033 554.549 354.186 551.841 355.674C545.205 358.38 538.113 359.813 530.94 359.898L527.999 360.213C524.199 359.719 520.489 359.224 517.232 359.089C515.968 358.978 514.696 358.978 513.432 359.089C497.598 360.033 489.817 371.628 479.412 383.312C477.433 385.6 475.236 387.692 472.852 389.559C457.244 401.827 439.057 399.176 420.011 395.131L414.809 394.008C395.084 389.514 381.648 394.547 362.964 397.873C358.031 398.783 352.954 398.552 348.125 397.199C332.789 393.064 320.257 378.414 313.2 361.516C301.98 334.822 312.069 323.362 328.039 316.576L330.436 315.588H330.753C331.748 315.228 332.698 314.824 333.739 314.554C338.081 313.056 342.507 311.811 346.994 310.824C353.192 309.251 359.435 307.813 365.09 306.33C370.745 304.847 377.305 303.723 383.186 301.836C383.487 301.831 383.782 301.754 384.046 301.611C385.313 301.287 386.553 300.866 387.755 300.353C391.205 298.724 394.416 296.638 397.301 294.151C400.533 291.564 403.933 289.192 407.48 287.051C413.558 283.88 419.863 281.162 426.345 278.917C435.393 275.771 444.712 273.344 453.896 270.872C471.404 266.378 489.364 265.884 506.963 262.154C518.544 259.682 527.547 250.739 539.309 249.885C551.252 249.582 563.04 252.618 573.33 258.649C584.776 265.435 594.005 276.31 593.371 290.826Z" fill="black"/>
<path opacity="0.4" d="M524.38 335.541C533.441 339.978 543.413 342.269 553.515 342.237C556.099 341.924 558.655 341.414 561.16 340.709C561.021 343.78 560.091 346.764 558.459 349.376C556.828 351.988 554.549 354.141 551.841 355.629C545.114 358.025 538.075 359.448 530.94 359.853L527.999 360.168C527.261 360.208 526.521 360.208 525.783 360.168C522.911 359.955 520.055 359.565 517.232 359C494.612 354.506 471.042 339.99 451.363 359.449C443.627 367.134 445.617 374.144 454.711 382.144C459.742 386.531 466.12 389.097 472.807 389.424C457.199 401.693 439.012 399.041 419.966 394.996C407.435 388.48 396.306 375.897 381.919 377.515C374.5 378.369 360.023 380.975 353.916 385.11C352.072 386.512 350.584 388.323 349.57 390.399C348.557 392.475 348.046 394.757 348.08 397.064C332.744 392.929 320.212 378.279 313.155 361.381C304.107 339.63 310.305 324.531 327.993 316.441L330.391 315.453H330.708C331.703 315.093 332.653 314.689 333.694 314.419C337.99 312.78 342.426 311.532 346.949 310.689C351.588 309.7 356.319 309.203 361.064 309.206C369.055 309.189 376.811 306.516 383.096 301.611C383.396 301.607 383.691 301.529 383.955 301.386C385.222 301.062 386.463 300.641 387.665 300.128C391.114 298.499 394.325 296.413 397.211 293.926C400.442 291.339 403.843 288.967 407.39 286.826C413.467 283.656 419.773 280.937 426.255 278.692C435.303 275.546 444.622 273.119 453.806 270.648C471.314 266.154 489.274 265.659 506.872 261.929C518.454 259.457 527.457 250.514 539.219 249.66C551.162 249.357 562.95 252.394 573.239 258.424C573.239 276.669 551.298 289.567 539.536 296.128C530.307 301.386 504.248 324.755 524.38 335.541Z" fill="black"/>
<path d="M373.957 342.372C373.957 362.55 359.39 360.033 346.089 365.426C330.21 371.852 325.188 387.671 311.978 396.884C311.737 397.085 311.48 397.265 311.209 397.423C302.614 402.906 290.67 400.794 281.713 398.412C269.498 395.221 259.862 390.772 247.421 395.086H247.104C233.849 399.895 224.484 410.321 209.057 408.119C196.616 406.276 186.844 396.659 176.123 390.143C170.248 386.137 163.297 383.976 156.172 383.941C132.104 384.615 119.392 399.401 95.0073 383.941C90.5226 380.933 86.5516 377.231 83.2448 372.976C77.5898 366.01 73.2921 357.921 68.0895 350.865C65.265 346.809 61.8847 343.164 58.0462 340.035C48.0029 332.26 36.1048 332.215 25.1115 329.294C20.8494 328.42 16.809 326.7 13.2329 324.237C9.65683 321.773 6.61875 318.617 4.30104 314.958C-5.74225 299.499 3.17005 284.894 16.9682 273.434C29.1907 263.751 42.9508 256.157 57.6843 250.964C87.5879 240.628 119.844 242.56 150.833 241.976C157.619 241.976 164.405 241.976 171.237 242.29C221.634 244.942 270.765 261.794 317.181 285.163C335.82 294.286 374.048 312.307 373.957 342.372Z" fill="#BA68C8"/>
<path opacity="0.3" d="M373.957 342.372C373.957 362.55 359.39 360.033 346.089 365.426C330.21 371.852 325.188 387.671 311.978 396.884C311.737 397.085 311.48 397.265 311.209 397.423C302.614 402.906 290.67 400.794 281.713 398.412C269.498 395.221 259.862 390.772 247.421 395.086H247.104C233.849 399.895 224.484 410.321 209.057 408.119C196.616 406.276 186.844 396.659 176.123 390.143C170.248 386.137 163.297 383.976 156.172 383.941C132.104 384.615 119.392 399.401 95.0073 383.941C90.5226 380.933 86.5516 377.231 83.2448 372.976C77.5898 366.01 73.2921 357.921 68.0895 350.865C65.265 346.809 61.8847 343.164 58.0462 340.035C48.0029 332.26 36.1048 332.215 25.1115 329.294C20.8494 328.42 16.809 326.7 13.2329 324.237C9.65683 321.773 6.61875 318.617 4.30104 314.958C-5.74225 299.499 3.17005 284.894 16.9682 273.434C29.1907 263.751 42.9508 256.157 57.6843 250.964C87.5879 240.628 119.844 242.56 150.833 241.976C157.619 241.976 164.405 241.976 171.237 242.29C221.634 244.942 270.765 261.794 317.181 285.163C335.82 294.286 374.048 312.307 373.957 342.372Z" fill="black"/>
<path opacity="0.3" d="M332.924 342.911C323.876 363.763 294.696 345.697 283.16 360.033C270.764 375.223 303.563 390.233 312.928 395.041C312.499 395.866 312.015 396.662 311.48 397.423C302.885 402.906 290.941 400.794 281.984 398.412C269.769 395.221 260.133 390.772 247.692 395.086C245.158 388.031 244.254 379.627 240.77 371.538C235.04 358.485 226.3 346.955 215.255 337.878C208.152 331.766 195.259 317.295 185.758 318.374C173.181 319.677 168.703 344.709 168.296 356.393C167.55 368.222 170.369 380.003 176.393 390.233C170.519 386.227 163.568 384.066 156.443 384.031C132.375 384.705 119.663 399.491 95.2782 384.031C90.7936 381.023 86.8225 377.321 83.5158 373.066L84.8278 372.167C93.1972 367.269 104.19 372.527 113.284 366.325C125.008 358.378 133.444 346.486 137.035 332.844C142.283 310.869 133.551 291.365 112.379 302.285C94.2829 311.723 77.8608 330.328 68.089 350.596C65.2646 346.539 61.8842 342.894 58.0457 339.765C48.0024 331.991 36.1043 331.946 25.111 329.025C34.7923 313.88 61.303 294.825 62.1173 290.826C67.1389 271.501 43.4331 271.681 32.9827 272.086C30.585 272.086 23.9347 272.984 16.9678 273.164C29.1902 263.481 42.9504 255.887 57.6838 250.694C87.5874 240.358 119.844 242.29 150.833 241.706C157.619 241.706 164.405 241.706 171.236 242.021L182.772 247.324C221.045 264.626 257.328 285.343 296.234 300.308C310.304 305.521 343.374 318.913 332.924 342.911Z" fill="black"/>
<path d="M274.61 338.642C274.203 347.315 271.398 355.539 263.074 358.685C240.816 366.909 196.526 363.404 158.434 351.989C124.82 341.833 96.0928 325.519 91.6593 305.88C89.9809 297.849 90.0239 289.556 91.7855 281.543C93.5471 273.529 96.9877 265.973 101.884 259.368L253.438 308.262L271.262 313.97C273.626 321.978 274.755 330.297 274.61 338.642Z" fill="#BA68C8"/>
<path opacity="0.15" d="M158.434 351.989C124.82 341.833 96.0928 325.519 91.6593 305.88C89.9809 297.849 90.0239 289.556 91.7855 281.543C93.5471 273.529 96.9877 265.973 101.884 259.368L253.438 308.262L274.61 338.777C274.61 338.777 161.284 331.451 135.633 320.576C117.31 312.666 121.382 332.036 158.434 351.989Z" fill="black"/>
<path d="M264.115 339.181C264.115 339.181 270.674 364.258 184.356 345.922C184.356 345.922 233.035 358.191 264.115 339.181Z" fill="white"/>
<path d="M513.296 327.811C502.394 337.968 483.393 347.855 461.542 355.899C409.606 374.594 341.475 382.863 325.369 357.966C310.847 335.721 320.845 309.566 320.845 309.566L475.928 286.556L507.28 282.062C509.868 285.428 512.14 289.024 514.066 292.803C519.313 302.735 524.063 317.835 513.296 327.811Z" fill="#BA68C8"/>
<path opacity="0.15" d="M461.587 355.719C409.651 374.414 341.52 382.683 325.414 357.786C310.892 335.541 320.89 309.386 320.89 309.386L475.973 286.377L514.11 292.488C514.11 292.488 497.055 324.306 415.08 344.754C333.105 365.201 437.519 365.92 461.587 355.719Z" fill="black"/>
<path d="M514.654 302.151C514.654 302.151 501.082 332.755 470.002 344.124C470.002 344.124 523.431 332.485 514.654 302.151Z" fill="white"/>
<path d="M566.544 203.193C565.91 269.344 475.476 346.596 290.173 340.574C109.213 334.597 24.4781 261.48 35.5166 180.183C44.5646 114.346 96.7716 38.0381 209.012 10.6247C238.065 3.65861 267.84 0.0991146 297.728 0.0189578C480.407 -1.68876 553.967 112.369 565.051 183.644C566.097 190.107 566.597 196.646 566.544 203.193Z" fill="#FFBDA7"/>
<path d="M566.544 203.193C565.91 269.344 475.476 346.596 290.173 340.574C109.213 334.597 24.4781 261.48 35.5166 180.183C44.5646 114.346 96.7716 38.038 209.012 10.6246C168.839 57.9465 129.073 129.176 165.717 196.227C227.832 309.79 502.801 329.294 565.051 183.644C566.097 190.107 566.597 196.646 566.544 203.193Z" fill="#F0997A"/>
<path d="M512.12 174.072C512.12 177.532 510.22 188.003 507.189 188.093C504.158 188.183 501.353 177.846 501.217 174.386C501.065 172.856 501.525 171.329 502.499 170.134C503.473 168.94 504.882 168.175 506.42 168.005C507.98 168.075 509.45 168.749 510.516 169.883C511.581 171.017 512.157 172.521 512.12 174.072Z" fill="#FAFAFA"/>
<path d="M104.87 127.828C103.693 131.019 97.993 139.423 95.1882 138.03C92.3833 136.636 93.6048 126.031 94.781 122.84C94.9869 122.132 95.344 121.477 95.8281 120.918C96.3121 120.36 96.9117 119.912 97.5859 119.605C98.2601 119.298 98.993 119.139 99.7347 119.139C100.476 119.139 101.209 119.297 101.884 119.604C103.284 120.399 104.354 121.663 104.901 123.17C105.448 124.677 105.437 126.329 104.87 127.828Z" fill="#FAFAFA"/>
<path d="M373.64 163.78C372.509 166.926 366.764 175.375 364.004 173.981C361.244 172.588 362.421 161.938 363.552 158.792C363.756 158.078 364.115 157.417 364.602 156.855C365.089 156.292 365.693 155.841 366.373 155.533C367.053 155.226 367.792 155.068 368.539 155.072C369.286 155.076 370.023 155.241 370.7 155.556C372.099 156.351 373.165 157.618 373.704 159.127C374.244 160.636 374.221 162.287 373.64 163.78Z" fill="#FAFAFA"/>
<path d="M332.472 45.9475C330.074 47.9698 321.343 51.8347 319.533 49.0484C317.724 46.2621 323.469 37.8583 325.867 35.836C326.434 35.358 327.101 35.0111 327.819 34.8203C328.538 34.6296 329.29 34.5998 330.022 34.7331C330.754 34.8664 331.446 35.1594 332.05 35.5911C332.653 36.0228 333.153 36.5823 333.512 37.2292C334.398 38.5722 334.779 40.1821 334.589 41.7764C334.399 43.3707 333.649 44.8475 332.472 45.9475Z" fill="#FAFAFA"/>
<path d="M455.072 284.714C452.629 286.736 443.943 290.601 442.134 287.815C440.324 285.028 446.07 276.625 448.467 274.602C449.035 274.124 449.701 273.777 450.42 273.587C451.139 273.396 451.891 273.366 452.623 273.499C453.354 273.632 454.047 273.926 454.65 274.357C455.254 274.789 455.754 275.348 456.113 275.995C456.999 277.338 457.38 278.948 457.189 280.543C456.999 282.137 456.25 283.614 455.072 284.714Z" fill="#FAFAFA"/>
<path d="M95.3695 198.025C97.7673 200.182 103.513 208.855 101.658 211.507C99.8031 214.158 91.117 209.889 88.7193 207.777C87.5201 206.631 86.7635 205.104 86.5817 203.462C86.3998 201.819 86.8041 200.165 87.724 198.789C88.1263 198.175 88.662 197.659 89.2917 197.278C89.9214 196.897 90.6291 196.661 91.3626 196.588C92.0961 196.515 92.8369 196.606 93.5303 196.854C94.2237 197.103 94.8522 197.503 95.3695 198.025Z" fill="#FAFAFA"/>
<path d="M211.275 120.818C208.334 119.919 200.145 114.436 200.869 111.111C201.593 107.785 211.048 107.83 213.944 108.774C215.436 109.35 216.662 110.453 217.388 111.87C218.114 113.287 218.289 114.921 217.88 116.458C217.777 117.196 217.517 117.904 217.118 118.534C216.719 119.165 216.19 119.704 215.566 120.116C214.941 120.528 214.236 120.804 213.496 120.925C212.756 121.046 211.999 121.009 211.275 120.818Z" fill="#FAFAFA"/>
<path d="M201.729 247.458C204.534 248.717 212.27 255.008 211.274 258.244C210.279 261.48 200.869 260.401 198.019 259.188C196.598 258.441 195.489 257.22 194.885 255.741C194.281 254.261 194.221 252.617 194.716 251.099C194.891 250.374 195.22 249.696 195.681 249.109C196.142 248.521 196.725 248.039 197.389 247.694C198.053 247.349 198.785 247.15 199.533 247.109C200.282 247.068 201.03 247.188 201.729 247.458Z" fill="#FAFAFA"/>
<path d="M172.368 176.139C170.649 178.925 163.32 185.756 160.967 183.734C158.615 181.711 161.646 171.645 163.365 168.813C163.719 168.168 164.215 167.609 164.814 167.177C165.414 166.745 166.103 166.452 166.831 166.319C167.559 166.185 168.308 166.215 169.024 166.405C169.739 166.596 170.402 166.943 170.965 167.42C172.177 168.489 172.979 169.941 173.235 171.531C173.49 173.12 173.184 174.748 172.368 176.139Z" fill="#FAFAFA"/>
<path d="M215.798 50.9809C213.762 53.4975 205.8 59.115 203.583 56.7332C201.366 54.3514 205.709 44.869 207.745 42.3523C208.19 41.7667 208.762 41.2879 209.418 40.9511C210.074 40.6144 210.798 40.4283 211.536 40.4068C212.274 40.3852 213.008 40.5287 213.683 40.8266C214.358 41.1244 214.957 41.569 215.436 42.1277C216.521 43.3324 217.15 44.8745 217.217 46.4898C217.283 48.105 216.781 49.6927 215.798 50.9809Z" fill="#FAFAFA"/>
<path d="M294.289 167.286C297.275 167.286 306.459 169.712 306.595 173.173C306.73 176.633 297.547 179.689 294.787 179.779C293.227 179.709 291.757 179.034 290.691 177.9C289.626 176.766 289.05 175.263 289.087 173.712C288.999 172.95 289.064 172.178 289.279 171.441C289.493 170.704 289.853 170.017 290.337 169.419C290.821 168.822 291.419 168.325 292.098 167.959C292.776 167.593 293.521 167.364 294.289 167.286Z" fill="#FAFAFA"/>
<path d="M279.406 66.2604C279.406 69.7207 276.872 80.012 273.841 79.7424C270.81 79.4727 268.458 69.1815 268.503 65.7211C268.454 64.9605 268.559 64.1979 268.812 63.4782C269.064 62.7586 269.46 62.0964 269.974 61.5309C270.488 60.9654 271.112 60.5081 271.807 60.1858C272.502 59.8634 273.255 59.6826 274.022 59.6542C275.617 59.8241 277.078 60.6146 278.087 61.8528C279.096 63.0909 279.57 64.6758 279.406 66.2604Z" fill="#FAFAFA"/>
<path d="M386.172 103.875C388.57 105.987 394.361 114.616 392.551 117.357C390.742 120.098 382.01 115.874 379.613 113.762C378.391 112.633 377.612 111.111 377.414 109.465C377.215 107.82 377.609 106.158 378.527 104.774C378.923 104.157 379.453 103.636 380.077 103.247C380.701 102.859 381.404 102.613 382.135 102.527C382.867 102.441 383.608 102.517 384.306 102.75C385.005 102.983 385.642 103.368 386.172 103.875Z" fill="#FAFAFA"/>
<path d="M239.051 188.587C241.494 190.699 247.285 199.328 245.43 202.069C243.575 204.81 234.934 200.586 232.491 198.474C231.27 197.345 230.491 195.823 230.292 194.177C230.094 192.532 230.488 190.87 231.406 189.486C231.802 188.869 232.332 188.348 232.956 187.959C233.58 187.571 234.283 187.324 235.014 187.238C235.746 187.153 236.487 187.229 237.185 187.462C237.883 187.695 238.521 188.079 239.051 188.587Z" fill="#FAFAFA"/>
<path d="M290.851 299.903C293.249 302.016 299.039 310.644 297.23 313.385C295.42 316.127 286.689 311.902 284.291 309.79C283.07 308.661 282.291 307.139 282.092 305.494C281.894 303.848 282.288 302.186 283.205 300.802C283.602 300.186 284.131 299.664 284.755 299.276C285.38 298.887 286.083 298.641 286.814 298.555C287.545 298.469 288.287 298.545 288.985 298.778C289.683 299.012 290.321 299.396 290.851 299.903Z" fill="#FAFAFA"/>
<path d="M445.03 205.799C443.627 208.81 437.203 216.54 434.534 214.787C431.865 213.034 433.991 202.653 435.393 199.642C435.666 198.958 436.087 198.342 436.625 197.837C437.164 197.332 437.807 196.951 438.51 196.719C439.213 196.488 439.959 196.412 440.694 196.498C441.43 196.584 442.138 196.829 442.768 197.216C444.104 198.151 445.065 199.525 445.479 201.096C445.893 202.667 445.734 204.333 445.03 205.799Z" fill="#FAFAFA"/>
<path d="M133.869 67.1143C132.466 70.1253 125.997 77.855 123.373 76.1023C120.749 74.3497 122.83 63.9686 124.233 60.9576C124.506 60.2737 124.926 59.6575 125.465 59.1525C126.003 58.6474 126.647 58.2658 127.35 58.0344C128.053 57.8031 128.798 57.7276 129.534 57.8134C130.269 57.8991 130.977 58.144 131.607 58.5308C132.936 59.4716 133.891 60.8464 134.305 62.4152C134.718 63.9839 134.564 65.647 133.869 67.1143Z" fill="#FAFAFA"/>
<path d="M334.689 231.19C336.318 234.111 339.213 244.448 336.679 246.245C334.146 248.043 327.179 240.762 325.505 237.796C324.707 236.406 324.432 234.78 324.731 233.207C325.029 231.634 325.881 230.219 327.134 229.213C327.743 228.788 328.438 228.501 329.17 228.37C329.902 228.24 330.654 228.27 331.374 228.458C332.093 228.647 332.763 228.989 333.335 229.46C333.908 229.932 334.37 230.523 334.689 231.19Z" fill="#FAFAFA"/>
<path d="M425.304 40.7345C426.933 43.6556 429.828 53.9918 427.34 55.7894C424.852 57.587 417.794 50.2618 416.165 47.3407C415.368 45.9466 415.09 44.3182 415.379 42.7407C415.669 41.1632 416.507 39.737 417.749 38.7121C418.361 38.2889 419.058 38.0038 419.793 37.8766C420.527 37.7495 421.281 37.7835 422 37.9762C422.72 38.1689 423.389 38.5156 423.96 38.9921C424.53 39.4685 424.989 40.0633 425.304 40.7345Z" fill="#FAFAFA"/>
<path d="M450.005 117.672C450.005 121.087 448.105 131.558 445.074 131.648C442.043 131.738 439.238 121.402 439.102 118.166C439.015 117.404 439.08 116.632 439.294 115.895C439.509 115.159 439.869 114.471 440.353 113.874C440.837 113.276 441.435 112.779 442.113 112.413C442.792 112.047 443.537 111.818 444.305 111.74C445.837 111.82 447.281 112.479 448.341 113.581C449.4 114.684 449.996 116.147 450.005 117.672Z" fill="#FAFAFA"/>
</svg>
