<svg width="430" height="777" viewBox="0 0 430 777" fill="none" xmlns="http://www.w3.org/2000/svg">
<path d="M214.754 435.873C318.918 435.873 403.359 387.443 403.359 327.702C403.359 267.962 318.918 219.532 214.754 219.532C110.59 219.532 26.1484 267.962 26.1484 327.702C26.1484 387.443 110.59 435.873 214.754 435.873Z" fill="#263238"/>
<path d="M350.791 134.191C275.647 91.0933 153.861 91.0933 78.7172 134.191C38.4989 157.245 19.9052 188.119 22.6649 218.139L63.3809 693.604C65.1452 714.411 79.8482 734.904 107.535 750.812C166.664 784.742 262.527 784.697 321.656 750.812C349.388 734.904 364.091 714.411 365.856 693.604L406.572 218.094C409.648 187.984 390.964 157.245 350.791 134.191Z" fill="#F0F0F0"/>
<path opacity="0.1" d="M350.791 134.191C288.857 98.6882 195.256 92.4865 122.193 115.496C116.086 117.428 110.114 119.54 104.097 121.922L102.333 122.641C100.976 123.18 99.6637 123.72 98.397 124.304L95.004 125.787L91.7919 127.315L87.6298 129.337L85.1869 130.596C82.9701 131.764 80.6629 132.932 78.6723 134.146C38.4539 157.2 19.8603 188.074 22.62 218.094L63.336 693.559C65.1003 714.366 79.8033 734.859 107.49 750.768C131.971 764.043 158.931 772.195 186.705 774.721C161.869 763.441 143.004 745.15 142.054 715.535C141.375 695.896 140.153 659.899 138.706 617.52C203.082 635.496 283.067 629.34 336.586 598.601C353.002 589.891 366.991 577.277 377.302 561.885L393.09 378.44C381.875 395.776 366.399 409.99 348.122 419.74C289.853 453.13 202.947 460.186 132.734 440.637C131.241 398.887 130.02 363.834 129.386 345.364C207.878 364.868 302.475 356.239 366.625 319.478C378.869 312.588 390.179 304.176 400.283 294.447L406.843 218.049C409.648 187.984 390.964 157.245 350.791 134.191Z" fill="black"/>
<path d="M214.754 322.534C321.017 322.534 407.16 273.139 407.16 212.207C407.16 151.274 321.017 101.879 214.754 101.879C108.492 101.879 22.3486 151.274 22.3486 212.207C22.3486 273.139 108.492 322.534 214.754 322.534Z" fill="#E0E0E0"/>
<path d="M366.489 83.9479C282.614 35.8621 146.623 35.8621 62.7476 83.9479C20.991 107.991 0.0449219 139.494 0.0449219 170.952V208.522C0.0449219 239.98 21.1268 271.438 62.9285 295.301C146.803 343.387 282.795 343.387 366.67 295.301C408.607 271.213 429.554 239.665 429.554 208.162C429.554 201.96 429.554 177.333 429.554 171.132C429.554 139.584 408.607 108.036 366.489 83.9479Z" fill="#BA68C8"/>
<path opacity="0.2" d="M366.489 83.9479C282.614 35.8621 146.623 35.8621 62.7476 83.9479C20.991 107.991 0.0449219 139.494 0.0449219 170.952V208.522C0.0449219 239.98 21.1268 271.438 62.9285 295.301C146.803 343.387 282.795 343.387 366.67 295.301C408.607 271.213 429.554 239.665 429.554 208.162C429.554 201.96 429.554 177.333 429.554 171.132C429.554 139.584 408.607 108.036 366.489 83.9479Z" fill="black"/>
<path opacity="0.2" d="M128.888 58.1522C105.796 63.6895 83.5838 72.3701 62.8833 83.9478C20.991 107.991 0.0449219 139.494 0.0449219 170.952V208.522C0.0449219 239.98 21.1268 271.438 62.9285 295.301C83.6291 306.878 105.841 315.559 128.934 321.096L128.888 58.1522Z" fill="black"/>
<path d="M214.754 294.222C333.36 294.222 429.509 239.072 429.509 171.042C429.509 103.011 333.36 47.8611 214.754 47.8611C96.1488 47.8611 0 103.011 0 171.042C0 239.072 96.1488 294.222 214.754 294.222Z" fill="#BA68C8"/>
<path d="M406.798 157.604L399.74 94.6884C397.071 71.005 379.156 47.7261 345.814 29.6602C273.43 -9.70722 156.078 -9.70722 83.4221 29.6602C50.1255 47.6362 32.2105 71.005 29.5413 94.6884L22.3481 157.604C19.2266 186.006 37.6393 214.993 77.6314 236.744C151.825 277.19 277.095 277.19 351.288 236.744C391.507 214.993 409.874 186.006 406.798 157.604Z" fill="#BA68C8"/>
<path opacity="0.2" d="M406.798 157.604L399.74 94.6884C397.071 71.005 379.156 47.7261 345.814 29.6602C273.43 -9.70722 156.078 -9.70722 83.4221 29.6602C50.1255 47.6362 32.2105 71.005 29.5413 94.6884L22.3481 157.604C19.2266 186.006 37.6393 214.993 77.6314 236.744C151.825 277.19 277.095 277.19 351.288 236.744C391.507 214.993 409.874 186.006 406.798 157.604Z" fill="black"/>
<path opacity="0.2" d="M83.6487 29.5256C50.3521 47.5016 32.437 70.8704 29.7679 94.5537L22.5747 157.47C19.4531 185.872 37.8658 214.858 77.858 236.609C94.0219 245.147 111.153 251.74 128.889 256.248L133.413 181.243L142.461 7.90942C121.961 12.4338 102.176 19.7057 83.6487 29.5256Z" fill="black"/>
<path d="M214.754 201.421C317.144 201.421 400.147 156.331 400.147 100.71C400.147 45.0896 317.144 0 214.754 0C112.364 0 29.3604 45.0896 29.3604 100.71C29.3604 156.331 112.364 201.421 214.754 201.421Z" fill="#BA68C8"/>
<path d="M214.754 179.76C303.003 179.76 374.542 144.368 374.542 100.71C374.542 57.0526 303.003 21.661 214.754 21.661C126.506 21.661 54.9668 57.0526 54.9668 100.71C54.9668 144.368 126.506 179.76 214.754 179.76Z" fill="#BA68C8"/>
<path opacity="0.2" d="M214.754 179.76C303.003 179.76 374.542 144.368 374.542 100.71C374.542 57.0526 303.003 21.661 214.754 21.661C126.506 21.661 54.9668 57.0526 54.9668 100.71C54.9668 144.368 126.506 179.76 214.754 179.76Z" fill="black"/>
<path d="M327.719 85.8354C265.333 54.9616 164.176 54.9616 101.519 85.8354C80.98 95.9918 67.227 108.305 60.2148 121.203C67.227 134.191 80.98 146.415 101.519 156.616C163.95 187.49 265.107 187.49 327.719 156.616C348.303 146.415 362.056 134.146 369.068 121.203C361.966 108.26 348.394 95.9918 327.719 85.8354Z" fill="#BA68C8"/>
<path opacity="0.1" d="M327.719 85.8354C265.333 54.9616 164.176 54.9616 101.519 85.8354C80.98 95.9918 67.227 108.305 60.2148 121.203C67.227 134.191 80.98 146.415 101.519 156.616C163.95 187.49 265.107 187.49 327.719 156.616C348.303 146.415 362.056 134.146 369.068 121.203C361.966 108.26 348.394 95.9918 327.719 85.8354Z" fill="white"/>
<path d="M350.202 67.3201L161.914 175.176C141.077 171.824 120.831 165.528 101.79 156.481C72.7908 142.145 57.2282 123.63 55.1924 104.89C57.2282 86.105 72.7455 67.6346 101.79 53.2538C164.176 22.425 265.332 22.425 327.763 53.2538C335.709 57.1649 343.229 61.8786 350.202 67.3201Z" fill="#BA68C8"/>
<path opacity="0.2" d="M350.202 67.3201L161.914 175.176C141.077 171.824 120.831 165.528 101.79 156.481C72.7908 142.145 57.2282 123.63 55.1924 104.89C57.2282 86.105 72.7455 67.6346 101.79 53.2538C164.176 22.425 265.332 22.425 327.763 53.2538C335.709 57.1649 343.229 61.8786 350.202 67.3201Z" fill="white"/>
<path d="M361.966 110.957L244.342 178.367C216.789 180.938 189.017 179.911 161.733 175.311L350.022 67.4548L361.966 110.957Z" fill="#BA68C8"/>
<path opacity="0.1" d="M361.966 110.957L244.342 178.367C216.789 180.938 189.017 179.911 161.733 175.311L350.022 67.4548L361.966 110.957Z" fill="black"/>
<path opacity="0.5" d="M357.758 158.054L330.614 173.648C329.033 174.368 327.304 174.706 325.566 174.636C323.829 174.566 322.133 174.088 320.616 173.244C317.63 171.536 317.314 168.974 319.892 167.491L347.036 151.942C348.617 151.222 350.347 150.884 352.084 150.954C353.822 151.025 355.518 151.502 357.034 152.347C360.02 154.009 360.337 156.616 357.758 158.054Z" fill="black"/>
<path d="M403.088 333.32L387.119 517.574C385.173 541.302 368.389 564.716 336.767 582.872C269.359 621.52 160.104 621.52 92.4706 582.872C58.7216 563.503 41.847 537.932 41.9375 512.676L26.2393 333.859C28.8632 359.385 47.1401 384.507 81.1606 403.966C154.811 446.209 274.245 446.209 348.077 403.966C382.369 384.282 400.736 359.026 402.998 333.095L403.088 333.32Z" fill="#455A64"/>
<path d="M316.725 486.251C324.169 479.405 332.758 473.899 342.105 469.983C343.006 469.644 343.787 469.05 344.352 468.275C344.917 467.5 345.242 466.578 345.285 465.622C345.328 464.666 345.089 463.718 344.596 462.895C344.103 462.073 343.379 461.412 342.512 460.995C324.099 452.007 298.177 457.894 279.9 476.903C260.582 496.991 256.556 524.54 269.042 542.156C269.865 543.21 271.075 543.897 272.406 544.065C273.738 544.234 275.083 543.87 276.145 543.055C286.338 534.727 294.14 523.876 298.765 511.597C302.964 502.028 309.074 493.406 316.725 486.251ZM358.436 476.679C357.802 475.617 356.799 474.822 355.617 474.441C354.435 474.061 353.153 474.121 352.012 474.611C334.763 481.703 320.641 494.696 312.201 511.237C307.677 519.911 304.556 529.708 298.629 537.752C294.632 543.47 289.488 548.305 283.519 551.953C282.705 552.447 283.067 554.38 284.107 554.829C302.203 562.739 327.266 556.537 345 538.112C362.734 519.686 367.846 494.295 358.482 476.679H358.436Z" fill="#263238"/>
<path d="M141.51 427.379C120.497 422.505 100.285 414.698 81.477 404.19C47.4565 384.731 29.1796 359.61 26.5557 334.084L42.254 512.9C42.073 538.201 58.857 563.727 92.6965 583.141C109.972 592.787 128.541 599.944 147.844 604.398L141.51 427.379Z" fill="#37474F"/>
</svg>
