<svg width="2105" height="1995" viewBox="0 0 2105 1995" fill="none" xmlns="http://www.w3.org/2000/svg">
<path d="M308.135 964.715C-102.734 1200.34 -102.689 1582.37 308.135 1817.99C718.96 2053.61 1385.16 2053.61 1795.99 1817.99C2206.81 1582.37 2206.81 1200.34 1795.99 964.715C1385.16 729.095 718.96 729.095 308.135 964.715Z" fill="#F5F5F5"/>
<path d="M1213.07 1073.02L1746.5 1378.75L999.764 1807.03L466.521 1501.21L1213.07 1073.02Z" fill="#E0E0E0"/>
<path d="M1212.93 1051.4L1746.4 1357.13L999.628 1785.41L466.43 1479.55L1212.93 1051.4Z" fill="#FAFAFA"/>
<path d="M1003.16 1230.85C1016.32 1230.85 1027 1239.84 1027 1251.34C1027 1262.85 1016.32 1271.84 1003.16 1271.84C989.992 1271.84 979.36 1262.85 979.36 1251.34C979.36 1239.84 990.037 1230.85 1003.16 1230.85Z" fill="#BA68C8"/>
<path d="M1098.3 1558.19C1111.46 1558.19 1122.09 1567.18 1122.09 1578.64C1122.09 1590.1 1111.46 1599.13 1098.3 1599.13C1085.13 1599.13 1074.5 1590.15 1074.5 1578.64C1074.5 1567.14 1085.13 1558.19 1098.3 1558.19Z" fill="#BA68C8"/>
<path d="M1003.16 1312.69C1016.32 1312.69 1027 1321.67 1027 1333.18C1027 1344.68 1016.32 1353.67 1003.16 1353.67C989.992 1353.67 979.36 1344.46 979.36 1333.18C979.36 1321.9 990.037 1312.69 1003.16 1312.69Z" fill="#BA68C8"/>
<path d="M1003.16 1190C999.762 1190 996.403 1189.3 993.29 1187.96C990.177 1186.61 987.376 1184.65 985.061 1182.18L1023.97 1159.71C1025.91 1162.56 1027.01 1165.89 1027.13 1169.33C1027 1180.83 1016.32 1190 1003.16 1190Z" fill="#BA68C8"/>
<path d="M1003.16 1394.52C1016.32 1394.52 1027 1403.51 1027 1415.01C1027 1426.52 1016.32 1435.46 1003.16 1435.46C989.992 1435.46 979.36 1426.47 979.36 1415.01C979.36 1403.55 990.037 1394.52 1003.16 1394.52Z" fill="#BA68C8"/>
<path d="M1098.3 1639.98C1111.46 1639.98 1122.09 1648.97 1122.09 1660.48C1122.09 1671.98 1111.46 1680.97 1098.3 1680.97C1085.13 1680.97 1074.5 1671.98 1074.5 1660.48C1074.5 1648.97 1085.13 1639.98 1098.3 1639.98Z" fill="#BA68C8"/>
<path d="M1003.16 1639.98C1016.32 1639.98 1027 1648.97 1027 1660.48C1027 1671.98 1016.32 1680.97 1003.16 1680.97C989.992 1680.97 979.36 1671.98 979.36 1660.48C979.36 1648.97 990.037 1639.98 1003.16 1639.98Z" fill="#BA68C8"/>
<path d="M1003.16 1476.36C1016.32 1476.36 1027 1485.35 1027 1496.8C1027 1508.26 1016.32 1517.3 1003.16 1517.3C989.992 1517.3 979.36 1508.31 979.36 1496.8C979.36 1485.3 990.037 1476.36 1003.16 1476.36Z" fill="#BA68C8"/>
<path d="M1193.44 1558.19C1206.56 1558.19 1217.23 1567.18 1217.23 1578.64C1217.23 1590.1 1206.56 1599.13 1193.44 1599.13C1180.32 1599.13 1169.59 1590.15 1169.59 1578.64C1169.59 1567.14 1180.27 1558.19 1193.44 1558.19Z" fill="#BA68C8"/>
<path d="M1193.44 1476.36C1206.56 1476.36 1217.23 1485.35 1217.23 1496.8C1217.23 1508.26 1206.56 1517.3 1193.44 1517.3C1180.32 1517.3 1169.59 1508.31 1169.59 1496.8C1169.59 1485.3 1180.27 1476.36 1193.44 1476.36Z" fill="#BA68C8"/>
<path d="M1003.16 1558.19C1016.32 1558.19 1027 1567.18 1027 1578.64C1027 1590.1 1016.32 1599.13 1003.16 1599.13C989.992 1599.13 979.36 1590.15 979.36 1578.64C979.36 1567.14 990.037 1558.19 1003.16 1558.19Z" fill="#BA68C8"/>
<path d="M1098.3 1149.01C1111.46 1149.01 1122.09 1158 1122.09 1169.51C1122.09 1181.01 1111.46 1190 1098.3 1190C1085.13 1190 1074.5 1181.01 1074.5 1169.51C1074.5 1158 1085.13 1149.01 1098.3 1149.01Z" fill="#BA68C8"/>
<path d="M1098.3 1394.52C1111.46 1394.52 1122.09 1403.51 1122.09 1415.01C1122.09 1426.52 1111.46 1435.46 1098.3 1435.46C1085.13 1435.46 1074.5 1426.47 1074.5 1415.01C1074.5 1403.55 1085.13 1394.52 1098.3 1394.52Z" fill="#BA68C8"/>
<path d="M1098.3 1230.85C1111.46 1230.85 1122.09 1239.84 1122.09 1251.34C1122.09 1262.85 1111.46 1271.84 1098.3 1271.84C1085.13 1271.84 1074.5 1262.85 1074.5 1251.34C1074.5 1239.84 1085.13 1230.85 1098.3 1230.85Z" fill="#BA68C8"/>
<path d="M1098.3 1476.36C1111.46 1476.36 1122.09 1485.35 1122.09 1496.8C1122.09 1508.26 1111.46 1517.3 1098.3 1517.3C1085.13 1517.3 1074.5 1508.31 1074.5 1496.8C1074.5 1485.3 1085.13 1476.36 1098.3 1476.36Z" fill="#BA68C8"/>
<path d="M1098.3 1312.69C1111.46 1312.69 1122.09 1321.67 1122.09 1333.18C1122.09 1344.68 1111.46 1353.67 1098.3 1353.67C1085.13 1353.67 1074.68 1344.46 1074.68 1333.18C1074.68 1321.9 1085.13 1312.69 1098.3 1312.69Z" fill="#BA68C8"/>
<path d="M1169.69 1660.48C1169.69 1649.15 1180.36 1639.98 1193.53 1639.98C1206.69 1639.98 1217.32 1648.97 1217.32 1660.48L1184.61 1679.22C1180.48 1678.01 1176.82 1675.56 1174.15 1672.21C1171.47 1668.85 1169.91 1664.75 1169.69 1660.48Z" fill="#BA68C8"/>
<path d="M908.063 1230.85C921.228 1230.85 931.859 1239.84 931.859 1251.34C931.859 1262.85 921.228 1271.84 908.063 1271.84C894.898 1271.84 884.267 1262.85 884.267 1251.34C884.267 1239.84 894.898 1230.85 908.063 1230.85Z" fill="#BA68C8"/>
<path d="M717.828 1394.52C730.948 1394.52 741.625 1403.51 741.625 1415.01C741.625 1426.52 730.948 1435.46 717.828 1435.46C704.709 1435.46 694.032 1426.47 694.032 1415.01C694.032 1403.55 704.664 1394.52 717.828 1394.52Z" fill="#BA68C8"/>
<path d="M812.923 1476.36C826.088 1476.36 836.765 1485.35 836.765 1496.8C836.765 1508.26 826.088 1517.3 812.923 1517.3C799.758 1517.3 789.127 1508.31 789.127 1496.8C789.127 1485.3 799.804 1476.36 812.923 1476.36Z" fill="#BA68C8"/>
<path d="M812.923 1558.19C826.088 1558.19 836.765 1567.18 836.765 1578.64C836.765 1590.1 826.088 1599.13 812.923 1599.13C799.758 1599.13 789.127 1590.15 789.127 1578.64C789.127 1567.14 799.804 1558.19 812.923 1558.19Z" fill="#BA68C8"/>
<path d="M527.594 1476.36C540.714 1476.36 551.391 1485.35 551.391 1496.8C551.391 1507.05 542.343 1515.14 531.168 1516.67L504.884 1501.75C504.279 1500.21 503.898 1498.59 503.753 1496.94C503.753 1485.52 514.43 1476.36 527.594 1476.36Z" fill="#BA68C8"/>
<path d="M1264.69 1087.67C1264.8 1085.67 1265.26 1083.71 1266.05 1081.87L1303.41 1103.27C1299.08 1106.42 1293.86 1108.13 1288.49 1108.16C1275.37 1108.16 1264.69 1099 1264.69 1087.67Z" fill="#BA68C8"/>
<path d="M1193.44 1394.52C1206.56 1394.52 1217.23 1403.51 1217.23 1415.01C1217.23 1426.52 1206.56 1435.46 1193.44 1435.46C1180.32 1435.46 1169.59 1426.47 1169.59 1415.01C1169.59 1403.55 1180.27 1394.52 1193.44 1394.52Z" fill="#BA68C8"/>
<path d="M717.828 1558.19C730.948 1558.19 741.625 1567.18 741.625 1578.64C741.625 1590.1 730.948 1599.13 717.828 1599.13C704.709 1599.13 694.032 1590.15 694.032 1578.64C694.032 1567.14 704.664 1558.19 717.828 1558.19Z" fill="#BA68C8"/>
<path d="M908.063 1476.36C921.228 1476.36 931.859 1485.35 931.859 1496.8C931.859 1508.26 921.228 1517.3 908.063 1517.3C894.898 1517.3 884.267 1508.31 884.267 1496.8C884.267 1485.3 894.898 1476.36 908.063 1476.36Z" fill="#BA68C8"/>
<path d="M908.063 1394.52C921.228 1394.52 931.859 1403.51 931.859 1415.01C931.859 1426.52 921.228 1435.46 908.063 1435.46C894.898 1435.46 884.267 1426.47 884.267 1415.01C884.267 1403.55 894.898 1394.52 908.063 1394.52Z" fill="#BA68C8"/>
<path d="M908.063 1312.69C921.228 1312.69 931.859 1321.67 931.859 1333.18C931.859 1344.68 921.228 1353.67 908.063 1353.67C894.898 1353.67 884.267 1344.46 884.267 1333.18C884.267 1321.9 894.898 1312.69 908.063 1312.69Z" fill="#BA68C8"/>
<path d="M812.923 1394.52C826.088 1394.52 836.765 1403.51 836.765 1415.01C836.765 1426.52 826.088 1435.46 812.923 1435.46C799.758 1435.46 789.127 1426.47 789.127 1415.01C789.127 1403.55 799.804 1394.52 812.923 1394.52Z" fill="#BA68C8"/>
<path d="M908.063 1639.98C921.228 1639.98 931.859 1648.97 931.859 1660.48C931.859 1671.98 921.228 1680.97 908.063 1680.97C894.898 1680.97 884.267 1671.98 884.267 1660.48C884.267 1648.97 894.898 1639.98 908.063 1639.98Z" fill="#BA68C8"/>
<path d="M812.923 1312.69C826.088 1312.69 836.765 1321.67 836.765 1333.18C836.765 1344.68 826.088 1353.67 812.923 1353.67C799.758 1353.67 789.127 1344.46 789.127 1333.18C789.127 1321.9 799.804 1312.69 812.923 1312.69Z" fill="#BA68C8"/>
<path d="M908.063 1558.19C921.228 1558.19 931.859 1567.18 931.859 1578.64C931.859 1590.1 921.228 1599.13 908.063 1599.13C894.898 1599.13 884.267 1590.15 884.267 1578.64C884.267 1567.14 894.898 1558.19 908.063 1558.19Z" fill="#BA68C8"/>
<path d="M717.828 1476.36C730.948 1476.36 741.625 1485.35 741.625 1496.8C741.625 1508.26 730.948 1517.3 717.828 1517.3C704.709 1517.3 694.032 1508.31 694.032 1496.8C694.032 1485.3 704.664 1476.36 717.828 1476.36Z" fill="#BA68C8"/>
<path d="M1074.68 1742.31C1074.68 1730.99 1085.31 1721.82 1098.48 1721.82C1101.66 1721.81 1104.82 1722.37 1107.8 1723.48L1074.68 1742.45V1742.31Z" fill="#BA68C8"/>
<path d="M1478.77 1230.85C1491.93 1230.85 1502.56 1239.84 1502.56 1251.34C1502.56 1262.85 1491.93 1271.84 1478.77 1271.84C1465.6 1271.84 1454.97 1262.85 1454.97 1251.34C1454.97 1239.84 1465.65 1230.85 1478.77 1230.85Z" fill="#BA68C8"/>
<path d="M1383.67 1558.19C1386.85 1558.19 1390 1558.74 1392.99 1559.81L1359.69 1578.82C1359.69 1567.36 1370.51 1558.19 1383.67 1558.19Z" fill="#BA68C8"/>
<path d="M1669 1353.67C1655.88 1353.67 1645.2 1344.46 1645.2 1333.18C1645.2 1321.9 1655.79 1312.78 1668.86 1312.73L1690.99 1325.4C1692.2 1327.82 1692.83 1330.48 1692.84 1333.18C1692.84 1344.46 1682.16 1353.67 1669 1353.67Z" fill="#BA68C8"/>
<path d="M1454.97 1496.8C1454.97 1485.52 1465.65 1476.36 1478.77 1476.36C1491.88 1476.36 1502.56 1485.35 1502.56 1496.8L1469.81 1515.59C1465.69 1514.36 1462.05 1511.89 1459.4 1508.53C1456.74 1505.17 1455.2 1501.07 1454.97 1496.8Z" fill="#BA68C8"/>
<path d="M1550.11 1251.34C1550.22 1249.3 1550.68 1247.3 1551.47 1245.41L1588.92 1266.89C1584.56 1270.07 1579.31 1271.79 1573.9 1271.84C1560.74 1271.84 1550.11 1262.67 1550.11 1251.34Z" fill="#BA68C8"/>
<path d="M1573.9 1394.52C1587.02 1394.52 1597.7 1403.51 1597.7 1415.01C1597.7 1426.52 1587.02 1435.46 1573.9 1435.46C1560.79 1435.46 1550.11 1426.47 1550.11 1415.01C1550.11 1403.55 1560.74 1394.52 1573.9 1394.52Z" fill="#BA68C8"/>
<path d="M1573.9 1312.69C1587.02 1312.69 1597.7 1321.67 1597.7 1333.18C1597.7 1344.68 1587.02 1353.67 1573.9 1353.67C1560.79 1353.67 1550.11 1344.46 1550.11 1333.18C1550.11 1321.9 1560.74 1312.69 1573.9 1312.69Z" fill="#BA68C8"/>
<path d="M1669 1394.52C1672.18 1394.51 1675.33 1395.06 1678.32 1396.14L1645.25 1415.15C1645.2 1403.69 1655.88 1394.52 1669 1394.52Z" fill="#BA68C8"/>
<path d="M622.689 1435.46C609.569 1435.46 598.893 1426.47 598.893 1415.01C598.893 1403.55 609.569 1394.52 622.689 1394.52C635.808 1394.52 646.485 1403.51 646.485 1415.01C646.485 1426.52 635.854 1435.46 622.689 1435.46Z" fill="#BA68C8"/>
<path d="M622.689 1517.3C609.569 1517.3 598.893 1508.31 598.893 1496.8C598.893 1485.3 609.569 1476.36 622.689 1476.36C635.808 1476.36 646.485 1485.35 646.485 1496.8C646.485 1508.26 635.854 1517.3 622.689 1517.3Z" fill="#BA68C8"/>
<path d="M741.625 1333.18C741.625 1344.46 730.948 1353.67 717.828 1353.67C714.433 1353.67 711.075 1352.98 707.962 1351.63C704.849 1350.29 702.047 1348.32 699.732 1345.85L738.594 1323.38C740.54 1326.29 741.593 1329.69 741.625 1333.18Z" fill="#BA68C8"/>
<path d="M1193.44 1312.69C1206.56 1312.69 1217.23 1321.67 1217.23 1333.18C1217.23 1344.68 1206.56 1353.67 1193.44 1353.67C1180.32 1353.67 1169.69 1344.46 1169.69 1333.18C1169.69 1321.9 1180.27 1312.69 1193.44 1312.69Z" fill="#BA68C8"/>
<path d="M979.36 1742.31C979.36 1730.99 990.037 1721.82 1003.16 1721.82C1016.28 1721.82 1027 1730.81 1027 1742.31C1027 1753.82 1016.32 1762.8 1003.16 1762.8C989.992 1762.8 979.36 1753.64 979.36 1742.31Z" fill="#BA68C8"/>
<path d="M812.923 1639.98C826.088 1639.98 836.765 1648.97 836.765 1660.48C836.765 1670.72 827.717 1678.81 816.497 1680.34L790.258 1665.33C789.656 1663.77 789.275 1662.14 789.127 1660.48C789.127 1649.15 799.804 1639.98 812.923 1639.98Z" fill="#BA68C8"/>
<path d="M646.485 1578.64C646.338 1579.91 646.05 1581.16 645.625 1582.37L609.886 1561.83C613.756 1559.52 618.173 1558.27 622.689 1558.19C635.854 1558.19 646.485 1567.36 646.485 1578.64Z" fill="#BA68C8"/>
<path d="M908.063 1721.95C921.228 1721.95 931.859 1730.94 931.859 1742.45C931.707 1743.72 931.419 1744.97 931 1746.18L895.215 1725.64C899.099 1723.31 903.529 1722.04 908.063 1721.95Z" fill="#BA68C8"/>
<path d="M1288.53 1394.52C1301.7 1394.52 1312.33 1403.51 1312.33 1415.01C1312.33 1426.52 1301.7 1435.46 1288.53 1435.46C1275.37 1435.46 1264.73 1426.47 1264.73 1415.01C1264.73 1403.55 1275.37 1394.52 1288.53 1394.52Z" fill="#BA68C8"/>
<path d="M1288.53 1558.19C1301.7 1558.19 1312.33 1567.18 1312.33 1578.64C1312.33 1590.1 1301.7 1599.13 1288.53 1599.13C1275.37 1599.13 1264.73 1590.15 1264.73 1578.64C1264.73 1567.14 1275.37 1558.19 1288.53 1558.19Z" fill="#BA68C8"/>
<path d="M1288.53 1230.85C1301.7 1230.85 1312.33 1239.84 1312.33 1251.34C1312.33 1262.85 1301.7 1271.84 1288.53 1271.84C1275.37 1271.84 1264.73 1262.85 1264.73 1251.34C1264.73 1239.84 1275.37 1230.85 1288.53 1230.85Z" fill="#BA68C8"/>
<path d="M1288.53 1312.69C1301.7 1312.69 1312.33 1321.67 1312.33 1333.18C1312.33 1344.68 1301.7 1353.67 1288.53 1353.67C1275.37 1353.67 1264.69 1344.46 1264.69 1333.18C1264.69 1321.9 1275.37 1312.69 1288.53 1312.69Z" fill="#BA68C8"/>
<path d="M1288.53 1476.36C1301.7 1476.36 1312.33 1485.35 1312.33 1496.8C1312.33 1508.26 1301.7 1517.3 1288.53 1517.3C1275.37 1517.3 1264.73 1508.31 1264.73 1496.8C1264.73 1485.3 1275.37 1476.36 1288.53 1476.36Z" fill="#BA68C8"/>
<path d="M1193.44 1230.85C1206.56 1230.85 1217.23 1239.84 1217.23 1251.34C1217.23 1262.85 1206.56 1271.84 1193.44 1271.84C1180.32 1271.84 1169.59 1262.85 1169.59 1251.34C1169.59 1239.84 1180.27 1230.85 1193.44 1230.85Z" fill="#BA68C8"/>
<path d="M1193.44 1067.18C1206.56 1067.18 1217.23 1076.39 1217.23 1087.67C1217.23 1098.95 1206.56 1108.16 1193.44 1108.16C1180.32 1108.16 1169.59 1099.18 1169.59 1087.67C1169.59 1076.17 1180.27 1067.18 1193.44 1067.18Z" fill="#BA68C8"/>
<path d="M1193.44 1149.01C1206.56 1149.01 1217.23 1158 1217.23 1169.51C1217.23 1181.01 1206.56 1190 1193.44 1190C1180.32 1190 1169.59 1181.01 1169.59 1169.51C1169.59 1158 1180.27 1149.01 1193.44 1149.01Z" fill="#BA68C8"/>
<path d="M1383.67 1230.85C1396.79 1230.85 1407.47 1239.84 1407.47 1251.34C1407.47 1262.85 1396.79 1271.84 1383.67 1271.84C1370.55 1271.84 1359.83 1262.85 1359.83 1251.34C1359.83 1239.84 1370.51 1230.85 1383.67 1230.85Z" fill="#BA68C8"/>
<path d="M1478.77 1394.52C1491.93 1394.52 1502.56 1403.51 1502.56 1415.01C1502.56 1426.52 1491.93 1435.46 1478.77 1435.46C1465.6 1435.46 1454.97 1426.47 1454.97 1415.01C1454.97 1403.55 1465.65 1394.52 1478.77 1394.52Z" fill="#BA68C8"/>
<path d="M1288.53 1149.01C1301.7 1149.01 1312.33 1158 1312.33 1169.51C1312.33 1181.01 1301.7 1190 1288.53 1190C1275.37 1190 1264.73 1181.01 1264.73 1169.51C1264.73 1158 1275.37 1149.01 1288.53 1149.01Z" fill="#BA68C8"/>
<path d="M1383.67 1312.69C1396.79 1312.69 1407.47 1321.67 1407.47 1333.18C1407.47 1344.68 1396.79 1353.67 1383.67 1353.67C1370.55 1353.67 1359.69 1344.46 1359.69 1333.18C1359.69 1321.9 1370.51 1312.69 1383.67 1312.69Z" fill="#BA68C8"/>
<path d="M1478.77 1312.69C1491.93 1312.69 1502.56 1321.67 1502.56 1333.18C1502.56 1344.68 1491.93 1353.67 1478.77 1353.67C1465.6 1353.67 1454.97 1344.46 1454.97 1333.18C1454.97 1321.9 1465.65 1312.69 1478.77 1312.69Z" fill="#BA68C8"/>
<path d="M1383.67 1190C1370.51 1190 1359.83 1181.01 1359.83 1169.51C1359.83 1158 1370.37 1149.19 1383.35 1149.06L1405.66 1161.87C1406.82 1164.25 1407.44 1166.86 1407.47 1169.51C1407.47 1180.83 1396.79 1190 1383.67 1190Z" fill="#BA68C8"/>
<path d="M1383.67 1476.36C1396.79 1476.36 1407.47 1485.35 1407.47 1496.8C1407.47 1508.26 1396.79 1517.3 1383.67 1517.3C1370.55 1517.3 1359.83 1508.31 1359.83 1496.8C1359.83 1485.3 1370.51 1476.36 1383.67 1476.36Z" fill="#BA68C8"/>
<path d="M1383.67 1394.52C1396.79 1394.52 1407.47 1403.51 1407.47 1415.01C1407.47 1426.52 1396.79 1435.46 1383.67 1435.46C1370.55 1435.46 1359.83 1426.47 1359.83 1415.01C1359.83 1403.55 1370.51 1394.52 1383.67 1394.52Z" fill="#BA68C8"/>
<g opacity="0.7">
<path d="M1003.16 1230.85C1016.32 1230.85 1027 1239.84 1027 1251.34C1027 1262.85 1016.32 1271.84 1003.16 1271.84C989.993 1271.84 979.361 1262.85 979.361 1251.34C979.361 1239.84 990.038 1230.85 1003.16 1230.85Z" fill="white"/>
<path d="M1098.3 1558.19C1111.46 1558.19 1122.09 1567.18 1122.09 1578.64C1122.09 1590.1 1111.46 1599.13 1098.3 1599.13C1085.13 1599.13 1074.5 1590.15 1074.5 1578.64C1074.5 1567.14 1085.13 1558.19 1098.3 1558.19Z" fill="white"/>
<path d="M1003.16 1312.69C1016.32 1312.69 1027 1321.67 1027 1333.18C1027 1344.68 1016.32 1353.67 1003.16 1353.67C989.993 1353.67 979.361 1344.46 979.361 1333.18C979.361 1321.9 990.038 1312.69 1003.16 1312.69Z" fill="white"/>
<path d="M1003.16 1190C999.763 1190 996.404 1189.3 993.291 1187.96C990.178 1186.61 987.377 1184.65 985.062 1182.18L1023.97 1159.71C1025.91 1162.56 1027.01 1165.89 1027.13 1169.33C1027 1180.83 1016.32 1190 1003.16 1190Z" fill="white"/>
<path d="M1003.16 1394.52C1016.32 1394.52 1027 1403.51 1027 1415.01C1027 1426.52 1016.32 1435.46 1003.16 1435.46C989.993 1435.46 979.361 1426.47 979.361 1415.01C979.361 1403.55 990.038 1394.52 1003.16 1394.52Z" fill="white"/>
<path d="M1098.3 1639.98C1111.46 1639.98 1122.09 1648.97 1122.09 1660.48C1122.09 1671.98 1111.46 1680.97 1098.3 1680.97C1085.13 1680.97 1074.5 1671.98 1074.5 1660.48C1074.5 1648.97 1085.13 1639.98 1098.3 1639.98Z" fill="white"/>
<path d="M1003.16 1639.98C1016.32 1639.98 1027 1648.97 1027 1660.48C1027 1671.98 1016.32 1680.97 1003.16 1680.97C989.993 1680.97 979.361 1671.98 979.361 1660.48C979.361 1648.97 990.038 1639.98 1003.16 1639.98Z" fill="white"/>
<path d="M1003.16 1476.36C1016.32 1476.36 1027 1485.35 1027 1496.8C1027 1508.26 1016.32 1517.3 1003.16 1517.3C989.993 1517.3 979.361 1508.31 979.361 1496.8C979.361 1485.3 990.038 1476.36 1003.16 1476.36Z" fill="white"/>
<path d="M1193.44 1558.19C1206.56 1558.19 1217.23 1567.18 1217.23 1578.64C1217.23 1590.1 1206.56 1599.13 1193.44 1599.13C1180.32 1599.13 1169.6 1590.15 1169.6 1578.64C1169.6 1567.14 1180.27 1558.19 1193.44 1558.19Z" fill="white"/>
<path d="M1193.44 1476.36C1206.56 1476.36 1217.23 1485.35 1217.23 1496.8C1217.23 1508.26 1206.56 1517.3 1193.44 1517.3C1180.32 1517.3 1169.6 1508.31 1169.6 1496.8C1169.6 1485.3 1180.27 1476.36 1193.44 1476.36Z" fill="white"/>
<path d="M1003.16 1558.19C1016.32 1558.19 1027 1567.18 1027 1578.64C1027 1590.1 1016.32 1599.13 1003.16 1599.13C989.993 1599.13 979.361 1590.15 979.361 1578.64C979.361 1567.14 990.038 1558.19 1003.16 1558.19Z" fill="white"/>
<path d="M1098.3 1149.01C1111.46 1149.01 1122.09 1158 1122.09 1169.51C1122.09 1181.01 1111.46 1190 1098.3 1190C1085.13 1190 1074.5 1181.01 1074.5 1169.51C1074.5 1158 1085.13 1149.01 1098.3 1149.01Z" fill="white"/>
<path d="M1098.3 1394.52C1111.46 1394.52 1122.09 1403.51 1122.09 1415.01C1122.09 1426.52 1111.46 1435.46 1098.3 1435.46C1085.13 1435.46 1074.5 1426.47 1074.5 1415.01C1074.5 1403.55 1085.13 1394.52 1098.3 1394.52Z" fill="white"/>
<path d="M1098.3 1230.85C1111.46 1230.85 1122.09 1239.84 1122.09 1251.34C1122.09 1262.85 1111.46 1271.84 1098.3 1271.84C1085.13 1271.84 1074.5 1262.85 1074.5 1251.34C1074.5 1239.84 1085.13 1230.85 1098.3 1230.85Z" fill="white"/>
<path d="M1098.3 1476.36C1111.46 1476.36 1122.09 1485.35 1122.09 1496.8C1122.09 1508.26 1111.46 1517.3 1098.3 1517.3C1085.13 1517.3 1074.5 1508.31 1074.5 1496.8C1074.5 1485.3 1085.13 1476.36 1098.3 1476.36Z" fill="white"/>
<path d="M1098.3 1312.69C1111.46 1312.69 1122.09 1321.67 1122.09 1333.18C1122.09 1344.68 1111.46 1353.67 1098.3 1353.67C1085.13 1353.67 1074.68 1344.46 1074.68 1333.18C1074.68 1321.9 1085.13 1312.69 1098.3 1312.69Z" fill="white"/>
<path d="M1169.69 1660.48C1169.69 1649.15 1180.36 1639.98 1193.53 1639.98C1206.69 1639.98 1217.32 1648.97 1217.32 1660.48L1184.61 1679.22C1180.48 1678.01 1176.82 1675.56 1174.15 1672.21C1171.47 1668.85 1169.91 1664.75 1169.69 1660.48Z" fill="white"/>
<path d="M908.063 1230.85C921.228 1230.85 931.859 1239.84 931.859 1251.34C931.859 1262.85 921.228 1271.84 908.063 1271.84C894.898 1271.84 884.267 1262.85 884.267 1251.34C884.267 1239.84 894.898 1230.85 908.063 1230.85Z" fill="white"/>
<path d="M717.828 1394.52C730.948 1394.52 741.625 1403.51 741.625 1415.01C741.625 1426.52 730.948 1435.46 717.828 1435.46C704.709 1435.46 694.032 1426.47 694.032 1415.01C694.032 1403.55 704.664 1394.52 717.828 1394.52Z" fill="white"/>
<path d="M812.923 1476.36C826.088 1476.36 836.765 1485.35 836.765 1496.8C836.765 1508.26 826.088 1517.3 812.923 1517.3C799.758 1517.3 789.127 1508.31 789.127 1496.8C789.127 1485.3 799.804 1476.36 812.923 1476.36Z" fill="white"/>
<path d="M812.923 1558.19C826.088 1558.19 836.765 1567.18 836.765 1578.64C836.765 1590.1 826.088 1599.13 812.923 1599.13C799.758 1599.13 789.127 1590.15 789.127 1578.64C789.127 1567.14 799.804 1558.19 812.923 1558.19Z" fill="white"/>
<path d="M527.594 1476.36C540.714 1476.36 551.391 1485.35 551.391 1496.8C551.391 1507.05 542.343 1515.14 531.168 1516.67L504.884 1501.75C504.279 1500.21 503.898 1498.59 503.753 1496.94C503.753 1485.52 514.43 1476.36 527.594 1476.36Z" fill="white"/>
<path d="M1264.69 1087.67C1264.8 1085.67 1265.26 1083.71 1266.05 1081.87L1303.41 1103.27C1299.08 1106.42 1293.86 1108.13 1288.49 1108.16C1275.37 1108.16 1264.69 1099 1264.69 1087.67Z" fill="white"/>
<path d="M1193.44 1394.52C1206.56 1394.52 1217.23 1403.51 1217.23 1415.01C1217.23 1426.52 1206.56 1435.46 1193.44 1435.46C1180.32 1435.46 1169.6 1426.47 1169.6 1415.01C1169.6 1403.55 1180.27 1394.52 1193.44 1394.52Z" fill="white"/>
<path d="M717.828 1558.19C730.948 1558.19 741.625 1567.18 741.625 1578.64C741.625 1590.1 730.948 1599.13 717.828 1599.13C704.709 1599.13 694.032 1590.15 694.032 1578.64C694.032 1567.14 704.664 1558.19 717.828 1558.19Z" fill="white"/>
<path d="M908.063 1476.36C921.228 1476.36 931.859 1485.35 931.859 1496.8C931.859 1508.26 921.228 1517.3 908.063 1517.3C894.898 1517.3 884.267 1508.31 884.267 1496.8C884.267 1485.3 894.898 1476.36 908.063 1476.36Z" fill="white"/>
<path d="M908.063 1394.52C921.228 1394.52 931.859 1403.51 931.859 1415.01C931.859 1426.52 921.228 1435.46 908.063 1435.46C894.898 1435.46 884.267 1426.47 884.267 1415.01C884.267 1403.55 894.898 1394.52 908.063 1394.52Z" fill="white"/>
<path d="M908.063 1312.69C921.228 1312.69 931.859 1321.67 931.859 1333.18C931.859 1344.68 921.228 1353.67 908.063 1353.67C894.898 1353.67 884.267 1344.46 884.267 1333.18C884.267 1321.9 894.898 1312.69 908.063 1312.69Z" fill="white"/>
<path d="M812.923 1394.52C826.088 1394.52 836.765 1403.51 836.765 1415.01C836.765 1426.52 826.088 1435.46 812.923 1435.46C799.758 1435.46 789.127 1426.47 789.127 1415.01C789.127 1403.55 799.804 1394.52 812.923 1394.52Z" fill="white"/>
<path d="M908.063 1639.98C921.228 1639.98 931.859 1648.97 931.859 1660.48C931.859 1671.98 921.228 1680.97 908.063 1680.97C894.898 1680.97 884.267 1671.98 884.267 1660.48C884.267 1648.97 894.898 1639.98 908.063 1639.98Z" fill="white"/>
<path d="M812.923 1312.69C826.088 1312.69 836.765 1321.67 836.765 1333.18C836.765 1344.68 826.088 1353.67 812.923 1353.67C799.758 1353.67 789.127 1344.46 789.127 1333.18C789.127 1321.9 799.804 1312.69 812.923 1312.69Z" fill="white"/>
<path d="M908.063 1558.19C921.228 1558.19 931.859 1567.18 931.859 1578.64C931.859 1590.1 921.228 1599.13 908.063 1599.13C894.898 1599.13 884.267 1590.15 884.267 1578.64C884.267 1567.14 894.898 1558.19 908.063 1558.19Z" fill="white"/>
<path d="M717.828 1476.36C730.948 1476.36 741.625 1485.35 741.625 1496.8C741.625 1508.26 730.948 1517.3 717.828 1517.3C704.709 1517.3 694.032 1508.31 694.032 1496.8C694.032 1485.3 704.664 1476.36 717.828 1476.36Z" fill="white"/>
<path d="M1074.68 1742.31C1074.68 1730.99 1085.31 1721.82 1098.48 1721.82C1101.66 1721.81 1104.82 1722.37 1107.8 1723.48L1074.68 1742.45V1742.31Z" fill="white"/>
<path d="M1478.77 1230.85C1491.93 1230.85 1502.56 1239.84 1502.56 1251.34C1502.56 1262.85 1491.93 1271.84 1478.77 1271.84C1465.6 1271.84 1454.97 1262.85 1454.97 1251.34C1454.97 1239.84 1465.65 1230.85 1478.77 1230.85Z" fill="white"/>
<path d="M1383.67 1558.19C1386.85 1558.19 1390 1558.74 1392.99 1559.81L1359.69 1578.82C1359.69 1567.36 1370.51 1558.19 1383.67 1558.19Z" fill="white"/>
<path d="M1669 1353.67C1655.88 1353.67 1645.2 1344.46 1645.2 1333.18C1645.2 1321.9 1655.79 1312.78 1668.86 1312.73L1690.99 1325.4C1692.2 1327.82 1692.83 1330.48 1692.84 1333.18C1692.84 1344.46 1682.16 1353.67 1669 1353.67Z" fill="white"/>
<path d="M1454.97 1496.8C1454.97 1485.52 1465.65 1476.36 1478.77 1476.36C1491.88 1476.36 1502.56 1485.35 1502.56 1496.8L1469.81 1515.59C1465.69 1514.36 1462.05 1511.89 1459.4 1508.53C1456.74 1505.17 1455.2 1501.07 1454.97 1496.8Z" fill="white"/>
<path d="M1550.11 1251.34C1550.22 1249.3 1550.68 1247.3 1551.47 1245.41L1588.93 1266.89C1584.57 1270.07 1579.31 1271.79 1573.91 1271.84C1560.74 1271.84 1550.11 1262.67 1550.11 1251.34Z" fill="white"/>
<path d="M1573.91 1394.52C1587.03 1394.52 1597.7 1403.51 1597.7 1415.01C1597.7 1426.52 1587.03 1435.46 1573.91 1435.46C1560.79 1435.46 1550.11 1426.47 1550.11 1415.01C1550.11 1403.55 1560.74 1394.52 1573.91 1394.52Z" fill="white"/>
<path d="M1573.91 1312.69C1587.03 1312.69 1597.7 1321.67 1597.7 1333.18C1597.7 1344.68 1587.03 1353.67 1573.91 1353.67C1560.79 1353.67 1550.11 1344.46 1550.11 1333.18C1550.11 1321.9 1560.74 1312.69 1573.91 1312.69Z" fill="white"/>
<path d="M1669 1394.52C1672.18 1394.51 1675.33 1395.06 1678.32 1396.14L1645.25 1415.15C1645.2 1403.69 1655.88 1394.52 1669 1394.52Z" fill="white"/>
<path d="M622.689 1435.46C609.569 1435.46 598.893 1426.47 598.893 1415.01C598.893 1403.55 609.569 1394.52 622.689 1394.52C635.808 1394.52 646.485 1403.51 646.485 1415.01C646.485 1426.52 635.854 1435.46 622.689 1435.46Z" fill="white"/>
<path d="M622.689 1517.3C609.569 1517.3 598.893 1508.31 598.893 1496.8C598.893 1485.3 609.569 1476.36 622.689 1476.36C635.808 1476.36 646.485 1485.35 646.485 1496.8C646.485 1508.26 635.854 1517.3 622.689 1517.3Z" fill="white"/>
<path d="M741.625 1333.18C741.625 1344.46 730.948 1353.67 717.828 1353.67C714.433 1353.67 711.075 1352.98 707.962 1351.63C704.849 1350.29 702.047 1348.32 699.732 1345.85L738.594 1323.38C740.54 1326.29 741.593 1329.69 741.625 1333.18Z" fill="white"/>
<path d="M1193.44 1312.69C1206.56 1312.69 1217.23 1321.67 1217.23 1333.18C1217.23 1344.68 1206.56 1353.67 1193.44 1353.67C1180.32 1353.67 1169.69 1344.46 1169.69 1333.18C1169.69 1321.9 1180.27 1312.69 1193.44 1312.69Z" fill="white"/>
<path d="M979.361 1742.31C979.361 1730.99 990.038 1721.82 1003.16 1721.82C1016.28 1721.82 1027 1730.81 1027 1742.31C1027 1753.82 1016.32 1762.8 1003.16 1762.8C989.993 1762.8 979.361 1753.64 979.361 1742.31Z" fill="white"/>
<path d="M812.923 1639.98C826.088 1639.98 836.765 1648.97 836.765 1660.48C836.765 1670.72 827.717 1678.81 816.497 1680.34L790.258 1665.33C789.656 1663.77 789.275 1662.14 789.127 1660.48C789.127 1649.15 799.804 1639.98 812.923 1639.98Z" fill="white"/>
<path d="M646.485 1578.64C646.338 1579.91 646.05 1581.16 645.625 1582.37L609.886 1561.83C613.756 1559.52 618.173 1558.27 622.689 1558.19C635.854 1558.19 646.485 1567.36 646.485 1578.64Z" fill="white"/>
<path d="M908.063 1721.95C921.228 1721.95 931.859 1730.94 931.859 1742.45C931.707 1743.72 931.419 1744.97 931 1746.18L895.215 1725.64C899.099 1723.31 903.529 1722.04 908.063 1721.95Z" fill="white"/>
<path d="M1288.53 1394.52C1301.7 1394.52 1312.33 1403.51 1312.33 1415.01C1312.33 1426.52 1301.7 1435.46 1288.53 1435.46C1275.37 1435.46 1264.74 1426.47 1264.74 1415.01C1264.74 1403.55 1275.37 1394.52 1288.53 1394.52Z" fill="white"/>
<path d="M1288.53 1558.19C1301.7 1558.19 1312.33 1567.18 1312.33 1578.64C1312.33 1590.1 1301.7 1599.13 1288.53 1599.13C1275.37 1599.13 1264.74 1590.15 1264.74 1578.64C1264.74 1567.14 1275.37 1558.19 1288.53 1558.19Z" fill="white"/>
<path d="M1288.53 1230.85C1301.7 1230.85 1312.33 1239.84 1312.33 1251.34C1312.33 1262.85 1301.7 1271.84 1288.53 1271.84C1275.37 1271.84 1264.74 1262.85 1264.74 1251.34C1264.74 1239.84 1275.37 1230.85 1288.53 1230.85Z" fill="white"/>
<path d="M1288.53 1312.69C1301.7 1312.69 1312.33 1321.67 1312.33 1333.18C1312.33 1344.68 1301.7 1353.67 1288.53 1353.67C1275.37 1353.67 1264.69 1344.46 1264.69 1333.18C1264.69 1321.9 1275.37 1312.69 1288.53 1312.69Z" fill="white"/>
<path d="M1288.53 1476.36C1301.7 1476.36 1312.33 1485.35 1312.33 1496.8C1312.33 1508.26 1301.7 1517.3 1288.53 1517.3C1275.37 1517.3 1264.74 1508.31 1264.74 1496.8C1264.74 1485.3 1275.37 1476.36 1288.53 1476.36Z" fill="white"/>
<path d="M1193.44 1230.85C1206.56 1230.85 1217.23 1239.84 1217.23 1251.34C1217.23 1262.85 1206.56 1271.84 1193.44 1271.84C1180.32 1271.84 1169.6 1262.85 1169.6 1251.34C1169.6 1239.84 1180.27 1230.85 1193.44 1230.85Z" fill="white"/>
<path d="M1193.44 1067.18C1206.56 1067.18 1217.23 1076.39 1217.23 1087.67C1217.23 1098.95 1206.56 1108.16 1193.44 1108.16C1180.32 1108.16 1169.6 1099.18 1169.6 1087.67C1169.6 1076.17 1180.27 1067.18 1193.44 1067.18Z" fill="white"/>
<path d="M1193.44 1149.01C1206.56 1149.01 1217.23 1158 1217.23 1169.51C1217.23 1181.01 1206.56 1190 1193.44 1190C1180.32 1190 1169.6 1181.01 1169.6 1169.51C1169.6 1158 1180.27 1149.01 1193.44 1149.01Z" fill="white"/>
<path d="M1383.67 1230.85C1396.79 1230.85 1407.47 1239.84 1407.47 1251.34C1407.47 1262.85 1396.79 1271.84 1383.67 1271.84C1370.55 1271.84 1359.83 1262.85 1359.83 1251.34C1359.83 1239.84 1370.51 1230.85 1383.67 1230.85Z" fill="white"/>
<path d="M1478.77 1394.52C1491.93 1394.52 1502.56 1403.51 1502.56 1415.01C1502.56 1426.52 1491.93 1435.46 1478.77 1435.46C1465.6 1435.46 1454.97 1426.47 1454.97 1415.01C1454.97 1403.55 1465.65 1394.52 1478.77 1394.52Z" fill="white"/>
<path d="M1288.53 1149.01C1301.7 1149.01 1312.33 1158 1312.33 1169.51C1312.33 1181.01 1301.7 1190 1288.53 1190C1275.37 1190 1264.74 1181.01 1264.74 1169.51C1264.74 1158 1275.37 1149.01 1288.53 1149.01Z" fill="white"/>
<path d="M1383.67 1312.69C1396.79 1312.69 1407.47 1321.67 1407.47 1333.18C1407.47 1344.68 1396.79 1353.67 1383.67 1353.67C1370.55 1353.67 1359.69 1344.46 1359.69 1333.18C1359.69 1321.9 1370.51 1312.69 1383.67 1312.69Z" fill="white"/>
<path d="M1478.77 1312.69C1491.93 1312.69 1502.56 1321.67 1502.56 1333.18C1502.56 1344.68 1491.93 1353.67 1478.77 1353.67C1465.6 1353.67 1454.97 1344.46 1454.97 1333.18C1454.97 1321.9 1465.65 1312.69 1478.77 1312.69Z" fill="white"/>
<path d="M1383.67 1190C1370.51 1190 1359.83 1181.01 1359.83 1169.51C1359.83 1158 1370.37 1149.19 1383.35 1149.06L1405.66 1161.87C1406.82 1164.25 1407.44 1166.86 1407.47 1169.51C1407.47 1180.83 1396.79 1190 1383.67 1190Z" fill="white"/>
<path d="M1383.67 1476.36C1396.79 1476.36 1407.47 1485.35 1407.47 1496.8C1407.47 1508.26 1396.79 1517.3 1383.67 1517.3C1370.55 1517.3 1359.83 1508.31 1359.83 1496.8C1359.83 1485.3 1370.51 1476.36 1383.67 1476.36Z" fill="white"/>
<path d="M1383.67 1394.52C1396.79 1394.52 1407.47 1403.51 1407.47 1415.01C1407.47 1426.52 1396.79 1435.46 1383.67 1435.46C1370.55 1435.46 1359.83 1426.47 1359.83 1415.01C1359.83 1403.55 1370.51 1394.52 1383.67 1394.52Z" fill="white"/>
</g>
<path opacity="0.05" d="M1107.07 1418.61L1372.99 1571.32L999.629 1785.41L733.029 1632.48L1107.07 1418.61Z" fill="black"/>
<path opacity="0.05" d="M1212.93 1051.4L1480.57 1204.78L1107.07 1418.61L839.886 1265.36L1212.93 1051.4Z" fill="black"/>
<path opacity="0.1" d="M733.029 1632.48L1107.07 1418.61L1372.99 1571.32L1107.62 1440.05L733.029 1632.48Z" fill="black"/>
<path opacity="0.1" d="M1480.57 1204.78L1107.07 1418.61L839.886 1265.36L1106.53 1399.55L1480.57 1204.78Z" fill="black"/>
<path d="M362.407 577.983C360.507 575.556 358.38 573.489 356.345 570.972C352.137 566.208 351.82 565.939 347.568 561.355C345.034 558.658 339.741 563.108 342.501 565.849C347.025 570.792 347.749 571.332 352.363 576.275C354.58 578.657 356.887 581.084 359.104 583.286C360.114 584.212 361.187 585.068 362.316 585.847C363.131 586.342 365.347 587.33 366.162 586.207C366.976 585.083 366.478 583.6 365.573 582.207C364.589 580.747 363.532 579.338 362.407 577.983ZM378.422 536.233C376.567 536.233 374.712 536.233 372.902 536.728C369.871 537.177 366.795 537.851 363.854 538.435C357.611 539.649 357.295 539.739 351.051 541.177C347.477 542.031 348.744 548.772 352.68 547.873C359.285 546.345 360.054 546.12 366.704 544.637C369.871 543.918 373.083 543.289 376.205 542.3C377.51 541.927 378.781 541.446 380.005 540.862C380.865 540.413 382.855 538.975 382.267 537.716C381.679 536.458 380.095 536.144 378.422 536.233ZM348.654 507.112C348.993 505.8 349.22 504.462 349.332 503.113C349.332 502.124 349.106 499.697 347.704 499.607C346.301 499.517 345.306 500.596 344.537 502.079C343.662 503.698 342.876 505.363 342.184 507.067C341.053 509.899 340.149 512.865 339.153 515.786C337.072 521.763 336.982 522.077 335.127 528.144C334.041 531.65 340.601 533.941 341.777 530.122C343.768 523.65 343.949 522.886 345.939 516.64C346.935 513.314 347.975 510.258 348.654 507.112ZM598.831 10.0759C594.812 10.067 590.88 11.2429 587.533 13.4547C584.187 15.6664 581.576 18.8147 580.032 22.501C578.488 26.1872 578.079 30.2458 578.858 34.1629C579.636 38.08 581.567 41.6796 584.406 44.506C587.245 47.3325 590.865 49.2587 594.806 50.041C598.748 50.8232 602.834 50.4262 606.549 48.9003C610.263 47.3744 613.438 44.7882 615.672 41.469C617.906 38.1497 619.098 34.2467 619.098 30.254C619.098 24.9102 616.965 19.7846 613.165 16.0018C609.365 12.219 604.21 10.0878 598.831 10.0759ZM598.831 46.0279C595.71 46.0367 592.657 45.1267 590.056 43.4126C587.456 41.6986 585.425 39.2575 584.221 36.3976C583.016 33.5378 582.692 30.3875 583.289 27.3446C583.885 24.3017 585.377 21.5028 587.574 19.3013C589.771 17.0998 592.576 15.5945 595.634 14.9756C598.692 14.3567 601.866 14.6518 604.755 15.8238C607.644 16.9958 610.119 18.992 611.866 21.5603C613.614 24.1287 614.557 27.1539 614.574 30.254C614.562 34.3981 612.9 38.3691 609.95 41.2994C607 44.2297 603.003 45.8812 598.831 45.8931V46.0279ZM304.273 513.404C303.279 512.477 302.221 511.622 301.106 510.842C300.292 510.348 298.03 509.359 297.261 510.483C296.492 511.606 296.899 513.089 297.804 514.482C298.78 516.034 299.837 517.534 300.971 518.976C302.916 521.403 305.042 523.695 307.078 525.987C311.24 530.751 311.602 531.02 315.855 535.649C318.388 538.301 323.636 533.852 320.876 531.155L311.014 520.1C308.797 517.718 306.671 515.291 304.273 513.089V513.404ZM1788.15 596.453C1790.09 598.88 1792.22 600.947 1794.25 603.464C1798.41 608.227 1798.78 608.452 1803.03 613.081C1805.56 615.777 1810.81 611.283 1808.05 608.362L1798.46 597.577C1796.29 595.24 1794.16 592.768 1791.72 590.611C1790.74 589.671 1789.68 588.815 1788.55 588.049C1787.74 587.555 1785.48 586.521 1784.71 587.69C1783.94 588.858 1784.35 590.251 1785.25 591.644C1786.15 593.19 1787.14 594.69 1788.19 596.138L1788.15 596.453ZM452.118 256.841C448.098 256.833 444.166 258.008 440.82 260.22C437.474 262.432 434.863 265.58 433.319 269.267C431.774 272.953 431.366 277.011 432.144 280.928C432.923 284.846 434.854 288.445 437.693 291.272C440.532 294.098 444.151 296.024 448.093 296.806C452.034 297.589 456.121 297.192 459.835 295.666C463.55 294.14 466.725 291.554 468.959 288.234C471.193 284.915 472.385 281.012 472.385 277.02C472.385 271.676 470.251 266.55 466.452 262.767C462.652 258.985 457.497 256.853 452.118 256.841ZM452.118 292.793C448.991 292.802 445.932 291.889 443.329 290.169C440.725 288.449 438.695 286 437.494 283.132C436.294 280.264 435.977 277.107 436.585 274.061C437.193 271.014 438.697 268.215 440.908 266.019C443.119 263.823 445.936 262.328 449.003 261.725C452.07 261.121 455.249 261.435 458.135 262.628C461.022 263.821 463.488 265.838 465.219 268.424C466.951 271.01 467.87 274.049 467.861 277.154C467.825 281.279 466.151 285.222 463.202 288.126C460.254 291.03 456.27 292.659 452.118 292.659V292.793ZM253.876 87.2828C251.885 93.7991 251.704 94.5631 249.714 101.034C248.645 104.086 247.739 107.191 246.999 110.337C246.653 111.646 246.441 112.986 246.366 114.337C246.366 115.28 246.366 117.707 247.949 117.842C249.533 117.977 250.347 116.853 251.116 115.37C251.885 113.887 252.79 112.09 253.469 110.382C254.6 107.506 255.505 104.54 256.5 101.664C258.581 95.6866 258.671 95.3271 260.526 89.3051C261.612 85.7549 255.052 83.4629 253.876 87.2828ZM281.02 27.962C281.363 26.6375 281.575 25.2829 281.653 23.9174C281.653 22.9737 281.653 20.5469 280.07 20.4121C278.486 20.2773 277.627 21.4457 276.858 22.9287C276.089 24.4118 275.229 26.1644 274.551 27.8721C273.42 30.7483 272.47 33.7143 271.474 36.8601C269.438 42.8372 269.348 43.1517 267.493 49.2186C266.407 52.724 272.967 55.0159 274.143 51.196C276.089 44.7246 276.27 43.9157 278.306 37.714C279.165 34.1637 280.251 31.1078 280.929 27.962H281.02ZM243.154 69.5315C236.549 71.1044 235.78 71.3291 229.13 72.8121C225.963 73.5312 222.751 74.1154 219.674 75.1041C218.358 75.5045 217.073 76.0001 215.829 76.5871C214.969 77.0365 212.979 78.4746 213.567 79.688C214.155 80.9013 215.648 81.3058 217.367 81.2159C219.086 81.126 221.032 80.9912 222.841 80.7216C225.918 80.2722 228.949 79.5981 231.889 79.0139C238.132 77.7555 238.449 77.6657 244.692 76.2725C248.266 75.4187 246.999 68.6327 243.064 69.5315H243.154ZM233.156 39.4667C235.101 41.8934 237.182 43.9607 239.218 46.4773C243.425 51.2409 243.742 51.4656 248.266 56.0945C250.754 58.7909 256.047 54.2969 253.288 51.6005C248.764 46.6571 248.04 46.1178 243.425 41.1294C241.209 38.7926 238.901 36.3209 236.685 34.1637C235.687 33.2238 234.612 32.367 233.473 31.6022C232.658 31.1078 230.442 30.0742 229.627 31.2426C228.813 32.4111 229.311 33.8042 230.215 35.1974C231.126 36.6667 232.107 38.0915 233.156 39.4667ZM78.2994 336.52C72.3224 336.52 66.4796 338.281 61.5099 341.579C56.5402 344.878 52.6668 349.566 50.3795 355.052C48.0922 360.537 47.4937 366.573 48.6598 372.397C49.8258 378.22 52.704 383.569 56.9304 387.767C61.1568 391.966 66.5416 394.825 72.4037 395.983C78.2659 397.141 84.3422 396.547 89.8642 394.275C95.3863 392.003 100.106 388.155 103.427 383.218C106.747 378.281 108.52 372.477 108.52 366.54C108.52 358.594 105.348 350.972 99.7004 345.344C94.0526 339.717 86.3892 336.544 78.3899 336.52H78.2994ZM78.2994 392.066C73.2172 392.066 68.2491 390.569 64.0233 387.764C59.7976 384.959 56.504 380.973 54.5591 376.308C52.6142 371.644 52.1054 366.512 53.0969 361.56C54.0884 356.609 56.5357 352.06 60.1294 348.49C63.7231 344.921 68.3017 342.489 73.2863 341.505C78.2709 340.52 83.4376 341.025 88.133 342.957C92.8284 344.889 96.8416 348.161 99.6651 352.359C102.489 356.556 103.996 361.491 103.996 366.54C103.996 373.294 101.301 379.773 96.5015 384.558C91.7021 389.342 85.1893 392.042 78.3899 392.066H78.2994ZM321.555 566.478C319.564 572.949 319.383 573.713 317.348 580.185C316.398 583.286 315.312 586.342 314.633 589.487C314.29 590.797 314.078 592.136 314 593.487C314 594.476 314 596.902 315.583 596.992C317.167 597.082 318.026 596.004 318.795 594.521C319.564 593.038 320.424 591.24 321.103 589.532C322.234 586.701 323.184 583.735 324.179 580.814C326.215 574.837 326.305 574.522 328.16 568.455C329.336 565.04 322.776 562.658 321.645 566.478H321.555ZM284.82 68.7226C291.47 67.1946 292.239 66.925 298.89 65.442C302.056 64.723 305.269 64.1387 308.345 63.15C309.668 62.7694 310.955 62.2731 312.19 61.667C313.05 61.2626 315.04 59.8245 314.452 58.5662C313.864 57.3078 312.326 57.218 310.652 57.218C308.82 57.256 306.992 57.4061 305.178 57.6674C302.102 58.1168 299.071 58.7909 296.13 59.42C289.887 60.6334 289.525 60.7233 283.327 62.1614C279.617 62.8355 280.929 69.6214 284.82 68.7226ZM310.833 548.727C304.183 550.255 303.414 550.479 296.763 551.962C293.597 552.681 290.385 553.311 287.308 554.299C285.986 554.665 284.699 555.146 283.463 555.737C282.603 556.187 280.658 557.625 281.201 558.883C281.744 560.142 283.327 560.456 285.001 560.366C286.675 560.276 288.665 560.142 290.475 559.872C293.551 559.422 296.582 558.748 299.523 558.164C305.766 556.951 306.128 556.861 312.326 555.423C316.036 554.569 314.588 547.828 310.833 548.727ZM291.38 104.315C292.351 105.267 293.411 106.125 294.547 106.877C295.361 107.416 297.623 108.405 298.437 107.281C299.252 106.158 298.754 104.675 297.849 103.281C296.944 101.888 295.813 100.226 294.682 98.7875C292.737 96.4056 290.611 94.2935 288.575 91.7768C284.413 87.0132 284.051 86.7885 279.798 82.1597C277.265 79.4633 272.017 83.9573 274.777 86.8784C279.301 91.8218 280.025 92.361 284.639 97.3494C286.856 99.7312 288.982 102.158 291.38 104.315ZM1869.35 156.086C1870.84 157.075 1872.43 158.063 1873.88 158.962C1876.59 160.445 1879.44 161.703 1882.24 163.052C1887.99 165.793 1888.31 165.928 1894.1 168.489C1897.49 169.972 1900.57 163.995 1896.9 162.153L1883.69 156.401C1880.71 155.052 1877.81 153.659 1874.64 152.581C1873.41 152.15 1872.14 151.819 1870.84 151.592C1869.89 151.592 1867.41 151.592 1867.13 152.76C1866.86 153.929 1867.95 155.052 1869.35 156.086ZM1865.64 613.8C1863.79 613.8 1861.93 613.8 1860.12 614.294C1857.09 614.744 1854.01 615.418 1851.07 616.047C1844.83 617.26 1844.51 617.35 1838.32 618.788C1834.7 619.597 1835.96 626.383 1839.9 625.484C1846.5 623.956 1847.27 623.687 1853.92 622.204C1857.09 621.485 1860.3 620.9 1863.42 619.912C1864.73 619.523 1866 619.027 1867.22 618.429C1868.08 618.024 1870.08 616.586 1869.49 615.328C1868.9 614.07 1867.32 613.665 1865.64 613.71V613.8ZM1894.91 182.825C1889.44 186.78 1888.8 187.319 1883.29 191.274C1880.66 193.161 1877.95 194.959 1875.5 197.071C1874.45 197.934 1873.46 198.881 1872.56 199.902C1871.93 200.666 1870.66 202.734 1871.7 203.677C1872.74 204.621 1874.24 204.307 1875.78 203.677C1877.44 202.897 1879.05 202.027 1880.62 201.071C1883.29 199.498 1885.82 197.655 1888.35 195.948C1893.64 192.397 1893.92 192.173 1899.03 188.443C1902.01 186.106 1897.99 180.354 1894.91 182.735V182.825ZM1849.67 655.549C1847.77 653.167 1845.65 651.055 1843.61 648.538C1839.4 643.775 1839.09 643.55 1834.83 638.921C1832.3 636.225 1827.01 640.719 1829.77 643.64C1834.29 648.583 1835.01 649.123 1839.63 654.111C1841.85 656.493 1844.15 658.92 1846.37 661.077C1847.36 662.03 1848.43 662.888 1849.58 663.638C1850.4 664.178 1852.61 665.166 1853.43 664.043C1854.24 662.919 1853.74 661.436 1852.84 660.043C1851.93 658.65 1850.76 656.897 1849.63 655.459L1849.67 655.549ZM1836.1 584.724C1836.4 583.391 1836.61 582.039 1836.73 580.679C1836.73 579.735 1836.51 577.309 1835.1 577.174C1833.7 577.039 1832.71 578.207 1831.94 579.69C1831.06 581.294 1830.28 582.944 1829.59 584.634C1828.45 587.51 1827.55 590.476 1826.55 593.397C1824.47 599.374 1824.38 599.689 1822.53 605.756C1821.44 609.261 1828 611.553 1829.18 607.733C1831.17 601.262 1831.35 600.453 1833.34 594.251C1834.15 590.836 1835.19 587.78 1835.92 584.634L1836.1 584.724ZM1808.96 644.044C1806.97 650.561 1806.78 651.325 1804.75 657.796C1803.8 660.852 1802.71 663.908 1802.03 667.099C1801.71 668.412 1801.5 669.75 1801.4 671.098C1801.4 672.042 1801.63 674.469 1802.98 674.604C1804.34 674.739 1805.43 673.615 1806.2 672.132C1806.97 670.649 1807.82 668.851 1808.5 667.144C1809.63 664.267 1810.58 661.301 1811.58 658.425C1813.62 652.403 1813.71 652.089 1815.56 646.067C1816.56 642.427 1810.04 640.135 1808.87 643.955L1808.96 644.044ZM1916.08 153.569C1915.36 146.828 1915.22 146.064 1914.5 139.323C1914.18 136.088 1913.96 132.897 1913.37 129.706C1913.14 128.36 1912.79 127.037 1912.33 125.751C1912.01 124.853 1910.84 122.74 1909.48 123.145C1908.12 123.549 1907.67 125.032 1907.53 126.695C1907.4 128.358 1907.31 130.335 1907.53 132.178C1907.53 135.234 1907.94 138.335 1908.17 141.391C1908.62 147.682 1908.71 148.042 1909.39 154.333C1909.57 157.973 1916.49 157.524 1916.08 153.569ZM1984.49 423.209C1978.51 423.209 1972.67 424.97 1967.7 428.269C1962.73 431.567 1958.85 436.256 1956.57 441.741C1954.28 447.227 1953.68 453.263 1954.85 459.086C1956.01 464.909 1958.89 470.258 1963.12 474.457C1967.34 478.655 1972.73 481.514 1978.59 482.672C1984.45 483.831 1990.53 483.236 1996.05 480.964C2001.57 478.692 2006.29 474.844 2009.61 469.907C2012.93 464.971 2014.71 459.167 2014.71 453.229C2014.65 445.302 2011.44 437.72 2005.78 432.131C2000.12 426.543 1992.47 423.401 1984.49 423.389V423.209ZM1984.49 478.71C1979.4 478.71 1974.43 477.212 1970.21 474.405C1965.98 471.598 1962.69 467.609 1960.74 462.942C1958.8 458.275 1958.29 453.141 1959.29 448.188C1960.28 443.235 1962.73 438.687 1966.33 435.119C1969.93 431.551 1974.51 429.123 1979.5 428.143C1984.49 427.164 1989.66 427.675 1994.35 429.614C1999.05 431.553 2003.06 434.832 2005.87 439.036C2008.69 443.239 2010.19 448.179 2010.18 453.229C2010.2 456.593 2009.55 459.926 2008.27 463.039C2006.98 466.152 2005.09 468.981 2002.71 471.366C2000.32 473.751 1997.48 475.643 1994.35 476.934C1991.23 478.225 1987.87 478.89 1984.49 478.89V478.71ZM951.296 32.9504C945.317 32.9504 939.472 34.7122 934.502 38.0128C929.531 41.3134 925.657 46.0045 923.372 51.4926C921.086 56.9806 920.49 63.0189 921.659 68.8434C922.829 74.668 925.712 80.0169 929.943 84.2135C934.174 88.41 939.563 91.2656 945.428 92.4188C951.293 93.5721 957.371 92.9712 962.892 90.6921C968.413 88.4131 973.13 84.5584 976.445 79.6157C979.76 74.6731 981.525 68.8646 981.516 62.9253C981.516 58.9852 980.734 55.0837 979.215 51.444C977.696 47.8044 975.469 44.498 972.662 41.7139C969.855 38.9299 966.523 36.7229 962.857 35.2192C959.191 33.7154 955.262 32.9445 951.296 32.9504ZM951.296 88.4513C946.214 88.4513 941.245 86.9542 937.02 84.1494C932.794 81.3446 929.5 77.3579 927.555 72.6937C925.611 68.0294 925.102 62.897 926.093 57.9455C927.085 52.9939 929.532 48.4456 933.126 44.8758C936.719 41.3059 941.298 38.8748 946.283 37.8899C951.267 36.905 956.434 37.4105 961.129 39.3425C965.825 41.2745 969.838 44.5462 972.661 48.7439C975.485 52.9416 976.992 57.8768 976.992 62.9253C977.022 66.2963 976.379 69.6398 975.101 72.7627C973.823 75.8856 971.935 78.7262 969.546 81.1203C967.157 83.5145 964.314 85.4148 961.182 86.7117C958.049 88.0085 954.689 88.6761 951.296 88.676V88.4513ZM1918.75 194.06C1918.35 190.42 1911.42 190.87 1911.88 194.824C1912.6 201.565 1912.74 202.374 1913.41 209.115C1913.78 212.306 1914 215.542 1914.59 218.687C1914.83 220.028 1915.16 221.349 1915.59 222.642C1915.95 223.541 1917.12 225.698 1918.44 225.249C1919.75 224.799 1920.29 223.361 1920.38 221.698C1920.47 220.036 1920.61 218.058 1920.38 216.261C1920.38 213.16 1920.02 210.104 1919.79 207.003C1919.48 200.711 1919.43 200.352 1918.75 194.06ZM1933 165.703C1938.52 161.703 1939.16 161.209 1944.68 157.209C1947.3 155.322 1950.01 153.524 1952.46 151.412C1953.51 150.55 1954.5 149.603 1955.4 148.581C1956.03 147.862 1957.25 145.75 1956.26 144.851C1955.26 143.952 1953.68 144.177 1952.19 144.851C1950.52 145.606 1948.9 146.462 1947.34 147.413C1944.68 149.03 1942.14 150.828 1939.61 152.581C1934.32 156.131 1934.04 156.311 1928.93 160.041C1925.9 162.333 1929.66 168.04 1933 165.703ZM1960.74 195.858C1961.1 194.15 1960.01 193.386 1958.61 192.442C1957.21 191.499 1955.53 190.42 1954.09 189.521C1951.33 188.083 1948.48 186.78 1945.72 185.477C1939.97 182.69 1939.65 182.601 1933.82 180.039C1930.43 178.556 1927.35 184.533 1931.06 186.331C1937.3 189.072 1938.03 189.342 1944.27 192.128C1947.21 193.431 1950.15 194.869 1953.32 195.903C1954.59 196.392 1955.91 196.768 1957.25 197.026C1957.98 197.206 1960.42 197.206 1960.74 195.858ZM1215.72 83.2382L1204.05 91.6869C1201.36 93.5041 1198.76 95.4539 1196.27 97.5291C1195.19 98.3675 1194.21 99.3165 1193.33 100.36C1192.7 101.079 1191.43 103.192 1192.47 104.09C1193.51 104.989 1195.05 104.72 1196.54 104.09C1198.2 103.318 1199.81 102.463 1201.38 101.529C1204.05 99.911 1206.59 98.1134 1209.12 96.3607C1214.41 92.8104 1214.68 92.5857 1219.8 88.8557C1222.83 86.6087 1218.98 80.8564 1215.72 83.2382ZM1239.52 94.608C1239.16 90.923 1232.24 91.3724 1232.64 95.372C1233.37 102.113 1233.5 102.877 1234.23 109.618C1234.54 112.809 1234.77 116.044 1235.36 119.235C1235.6 120.573 1235.94 121.894 1236.35 123.19C1236.71 124.089 1237.89 126.201 1239.2 125.796C1240.52 125.392 1241.06 123.909 1241.19 122.246C1241.33 120.583 1241.42 118.606 1241.19 116.763C1241.19 113.708 1240.79 110.607 1240.56 107.775C1240.24 101.214 1240.2 100.9 1239.52 94.608ZM1236.85 54.162C1236.13 47.466 1235.99 46.6571 1235.31 39.9161C1234.95 36.7253 1234.72 33.4896 1234.14 30.2989C1233.89 28.9609 1233.56 27.6399 1233.14 26.3442C1232.78 25.4903 1231.6 23.3332 1230.29 23.7826C1228.98 24.232 1228.44 25.6251 1228.35 27.2879C1228.23 29.1138 1228.23 30.9448 1228.35 32.7706C1228.35 35.8265 1228.71 38.9274 1228.93 41.9833C1229.43 48.3198 1229.48 48.6344 1230.16 54.926C1230.34 58.5212 1237.48 58.0718 1236.85 54.0722V54.162ZM1203.15 63.5545C1208.89 66.2958 1209.21 66.4307 1215.05 68.9922C1218.39 70.4753 1221.51 64.4982 1217.8 62.7006C1211.56 59.9593 1210.84 59.6897 1204.59 56.9034C1201.65 55.6001 1198.71 54.1621 1195.55 53.0835C1194.27 52.6087 1192.95 52.2477 1191.61 52.0049C1190.66 52.0049 1188.22 52.0049 1187.9 53.1284C1187.58 54.2519 1188.62 55.6451 1190.03 56.5888C1191.43 57.5325 1193.1 58.6111 1194.55 59.465C1197.49 60.8581 1200.39 62.1164 1203.15 63.4646V63.5545ZM1087.83 252.303C1083.81 252.294 1079.88 253.469 1076.53 255.681C1073.19 257.893 1070.58 261.041 1069.03 264.728C1067.49 268.414 1067.08 272.472 1067.86 276.389C1068.64 280.307 1070.57 283.906 1073.41 286.733C1076.24 289.559 1079.86 291.485 1083.81 292.268C1087.75 293.05 1091.83 292.653 1095.55 291.127C1099.26 289.601 1102.44 287.015 1104.67 283.696C1106.91 280.376 1108.1 276.473 1108.1 272.481C1108.09 267.145 1105.95 262.031 1102.15 258.257C1098.35 254.484 1093.2 252.359 1087.83 252.347V252.303ZM1087.83 288.255C1084.7 288.263 1081.64 287.35 1079.04 285.63C1076.44 283.91 1074.41 281.461 1073.21 278.593C1072.01 275.726 1071.69 272.568 1072.3 269.522C1072.91 266.475 1074.41 263.676 1076.62 261.48C1078.83 259.284 1081.65 257.789 1084.72 257.186C1087.78 256.582 1090.96 256.896 1093.85 258.089C1096.73 259.282 1099.2 261.299 1100.93 263.885C1102.66 266.471 1103.58 269.51 1103.57 272.615C1103.55 276.748 1101.88 280.702 1098.93 283.616C1095.98 286.529 1091.99 288.165 1087.83 288.165V288.255ZM1798.1 626.293C1791.45 627.866 1790.68 628.091 1784.03 629.574C1780.86 630.293 1777.65 630.877 1774.57 631.866C1773.26 632.266 1771.97 632.762 1770.73 633.349C1769.87 633.798 1767.92 635.236 1768.51 636.45C1769.1 637.663 1770.59 638.067 1772.27 637.978C1773.94 637.888 1775.93 637.753 1777.74 637.483C1780.82 637.034 1783.85 636.36 1786.79 635.776C1793.08 634.517 1793.39 634.427 1799.59 633.034C1803.26 632.09 1801.99 625.305 1798.05 626.203L1798.1 626.293ZM1253.77 66.206L1265.44 57.7572C1268.13 55.9401 1270.73 53.9903 1273.22 51.915C1274.3 51.0767 1275.29 50.1277 1276.16 49.0838C1276.8 48.3648 1278.06 46.2526 1277.02 45.3538C1275.98 44.455 1274.49 44.7246 1272.95 45.3538C1271.41 45.983 1269.65 46.9716 1268.11 47.9154C1265.44 49.5332 1262.91 51.3308 1260.38 53.0835C1255.08 56.6338 1254.81 56.8584 1249.7 60.5885C1246.53 62.8355 1250.56 68.5878 1253.77 66.206ZM1679.8 350.092C1675.78 350.083 1671.84 351.259 1668.5 353.471C1665.15 355.682 1662.54 358.831 1661 362.517C1659.45 366.203 1659.04 370.262 1659.82 374.179C1660.6 378.096 1662.53 381.696 1665.37 384.522C1668.21 387.349 1671.83 389.275 1675.77 390.057C1679.71 390.839 1683.8 390.442 1687.51 388.916C1691.23 387.39 1694.4 384.804 1696.64 381.485C1698.87 378.166 1700.06 374.263 1700.06 370.27C1700.06 364.926 1697.93 359.801 1694.13 356.018C1690.33 352.235 1685.17 350.104 1679.8 350.092ZM1679.8 386.044C1676.67 386.053 1673.61 385.139 1671.01 383.419C1668.4 381.699 1666.37 379.25 1665.17 376.383C1663.97 373.515 1663.65 370.358 1664.26 367.311C1664.87 364.265 1666.38 361.466 1668.59 359.27C1670.8 357.073 1673.61 355.579 1676.68 354.975C1679.75 354.371 1682.93 354.686 1685.81 355.878C1688.7 357.071 1691.17 359.088 1692.9 361.674C1694.63 364.26 1695.55 367.299 1695.54 370.405C1695.5 374.529 1693.83 378.472 1690.88 381.376C1687.93 384.28 1683.95 385.909 1679.8 385.909V386.044ZM1634.15 0.234042C1628.17 0.225151 1622.32 1.97823 1617.35 5.27145C1612.37 8.56467 1608.49 13.25 1606.2 18.7347C1603.9 24.2193 1603.3 30.2567 1604.46 36.083C1605.62 41.9092 1608.49 47.2624 1612.72 51.4653C1616.94 55.6682 1622.33 58.5318 1628.19 59.6937C1634.05 60.8557 1640.13 60.2638 1645.66 57.993C1651.18 55.7222 1655.9 51.8745 1659.23 46.9368C1662.55 41.9991 1664.32 36.1933 1664.32 30.254C1664.32 22.3 1661.15 14.6711 1655.49 9.04255C1649.83 3.41402 1642.16 0.24595 1634.15 0.234042ZM1634.15 55.7349C1629.06 55.7438 1624.09 54.2532 1619.86 51.4518C1615.62 48.6504 1612.32 44.6642 1610.37 39.9982C1608.42 35.3321 1607.91 30.1959 1608.9 25.2402C1609.89 20.2845 1612.34 15.7321 1615.93 12.1595C1619.53 8.58694 1624.11 6.15493 1629.1 5.17144C1634.09 4.18795 1639.26 4.69722 1643.96 6.63478C1648.65 8.57235 1652.67 11.851 1655.49 16.0556C1658.31 20.2602 1659.81 25.2016 1659.8 30.254C1659.78 37.0047 1657.07 43.4721 1652.26 48.2456C1647.45 53.0191 1640.94 55.7112 1634.15 55.7349ZM1279.38 93.17C1277.92 92.131 1276.41 91.1709 1274.85 90.2938C1272.14 88.8108 1269.29 87.5525 1266.48 86.2043C1260.74 83.4629 1260.42 83.3281 1254.63 80.7665C1251.24 79.2835 1248.16 85.2605 1251.83 87.0581C1258.07 89.7995 1258.84 90.0691 1265.04 92.8554C1268.02 94.2036 1270.92 95.5967 1274.08 96.6753C1275.36 97.1649 1276.67 97.5263 1278.02 97.7538C1278.97 97.7538 1281.41 97.9785 1281.73 96.6303C1282.05 95.2821 1280.78 93.889 1279.38 93.17Z" fill="#EBEBEB"/>
</svg>
