<svg width="422" height="608" viewBox="0 0 422 608" fill="none" xmlns="http://www.w3.org/2000/svg">
<path d="M126.672 423.38L351.153 552.133L418.741 282.897C438.33 109.653 155.806 -52.4001 136.217 120.844L126.672 423.38Z" fill="#EBEBEB"/>
<path d="M10.8574 176.974L136.082 120.844L126.536 423.38L30.8536 478.207L10.8574 176.974Z" fill="#E0E0E0"/>
<path d="M385.536 245.013H28.4111V384.102H385.536V245.013Z" fill="#F0997A"/>
<path d="M125.043 363.744C126.31 363.07 146.215 352.464 152.956 347.431C159.697 342.398 172.726 304.199 175.576 226.632C176.39 206.05 176.255 189.467 175.576 175.895C173.812 138.325 167.885 124.529 165.578 117.473C162.456 107.766 140.877 73.8812 140.877 73.8812C140.877 73.8812 153.182 209.51 134.589 319.703C132.179 334.538 128.993 349.239 125.043 363.744Z" fill="#F0997A"/>
<path d="M113.824 331.298L125.044 363.744C125.858 362.666 137.349 347.431 145.538 311.614C150.843 287.307 153.572 262.514 153.681 237.643C154.695 182.765 150.453 127.916 141.014 73.8363L120.113 99.2274C120.113 99.2274 128.889 179.31 126.039 238.541C125.677 245.777 125.225 252.608 124.727 259.034C123.239 279.671 120.413 300.191 116.267 320.467C114.82 327.657 113.824 331.298 113.824 331.298Z" fill="#FFBDA7"/>
<path opacity="0.5" d="M124.727 259.259C137.666 209.825 126.853 104.98 126.853 104.98L140.968 73.9712L120.067 99.3623C120.067 99.3623 128.844 179.445 125.994 238.676C125.677 246.001 125.225 252.832 124.727 259.259Z" fill="white"/>
<path d="M200.956 295.705C202.268 295.211 223.169 286.717 230.452 282.448C237.736 278.179 254.792 241.597 266.102 164.795C269.087 144.437 270.626 127.899 271.576 114.327C273.883 76.8024 269.449 62.4665 267.911 55.1413C265.875 45.2096 248.051 9.16772 248.051 9.16772C248.051 9.16772 245.698 145.336 215.252 252.922C211.248 267.423 206.476 281.704 200.956 295.705Z" fill="#F0997A"/>
<path d="M193.266 262.225L200.956 295.705C201.861 294.761 214.936 280.83 226.969 246.271C234.826 222.662 240.208 198.31 243.03 173.603C249.91 119.146 251.577 64.1626 248.006 9.39246L224.526 32.4466C224.526 32.4466 224.526 112.979 215.478 171.761C214.363 178.891 213.186 185.632 211.95 191.984C208.217 212.335 203.201 232.433 196.93 252.158C194.532 258.72 193.266 262.225 193.266 262.225Z" fill="#FFBDA7"/>
<path opacity="0.5" d="M211.904 191.759C230 144.078 230.679 38.5585 230.679 38.5585L248.051 9.21265L224.572 32.2669C224.572 32.2669 224.572 112.799 215.524 171.581C214.347 178.711 213.141 185.437 211.904 191.759Z" fill="white"/>
<path d="M272.164 309.861C273.521 309.412 294.784 301.772 302.158 297.772C309.532 293.773 328.126 257.91 342.512 181.602C346.312 161.379 348.665 144.931 349.977 131.404C353.777 94.0143 349.977 79.4987 348.71 72.1286C347.081 62.1069 330.614 25.391 330.614 25.391C330.614 25.391 322.788 161.379 288.088 267.663C283.531 281.997 278.216 296.083 272.164 309.861Z" fill="#F0997A"/>
<path d="M265.83 276.066L272.164 309.861C273.114 308.917 286.731 295.525 300.167 261.281C308.992 238.032 315.359 213.934 319.168 189.377C328.231 135.231 332.094 80.3527 330.704 25.481L306.275 47.5914C306.275 47.5914 303.108 127.764 291.617 186.186C290.169 193.287 288.721 200.028 287.093 206.275C282.555 226.468 276.738 246.356 269.675 265.82C267.368 272.651 265.83 276.066 265.83 276.066Z" fill="#FFBDA7"/>
<path opacity="0.5" d="M287.273 206.409C307.36 159.492 312.155 54.0627 312.155 54.0627L330.704 25.4359L306.274 47.5464C306.274 47.5464 303.107 127.764 291.616 186.186C290.169 193.422 288.721 200.163 287.273 206.409Z" fill="white"/>
<path d="M163.361 290.312C164.583 289.638 183.991 278.179 190.505 272.876C197.02 267.573 208.601 228.924 208.33 151.268C208.33 130.73 207.47 114.103 206.249 100.576C202.946 63.1407 196.432 49.5688 193.853 42.5581C190.37 33.0308 167.388 0 167.388 0C167.388 0 185.212 135.045 171.097 245.867C169.319 260.808 166.736 275.645 163.361 290.312Z" fill="#F0997A"/>
<path d="M150.831 258.315L163.362 290.312C164.086 289.234 174.989 273.55 181.684 237.418C185.994 212.916 187.707 188.034 186.796 163.177C185.537 108.312 179.038 53.6899 167.388 0.0449219L147.573 26.2899C147.573 26.2899 159.607 105.924 159.155 165.604C159.155 172.839 159.155 179.67 158.657 186.141C157.997 206.813 156.017 227.422 152.731 247.844C151.69 254.63 150.831 258.315 150.831 258.315Z" fill="#FFBDA7"/>
<path opacity="0.5" d="M158.792 185.917C169.74 136.123 154.63 31.6377 154.63 31.6377L167.478 0.179688L147.663 26.4246C147.663 26.4246 159.697 106.058 159.245 165.739C159.199 172.704 159.064 179.445 158.792 185.917Z" fill="white"/>
<path d="M52.6592 34.4689L64.6478 185.243V185.377L75.2792 319.209L105.952 327.523L82.9699 27.0988L52.6592 34.4689Z" fill="#FFBDA7"/>
<path d="M82.9697 27.0988L112.15 53.9279L128.526 321.231L105.906 327.523L82.9697 27.0988Z" fill="#F0997A"/>
<path opacity="0.5" d="M64.6478 185.243L59.0832 40.8054L82.9699 27.0988L52.6592 34.4689L64.6478 185.243Z" fill="white"/>
<path d="M204.485 99.8566C203.988 109.564 196.568 267.528 195.437 267.663C194.306 267.797 194.216 325.051 193.763 373.137C193.492 407.831 193.266 437.716 193.266 437.716C201.615 433.11 208.763 426.626 214.136 418.783C219.51 410.94 222.96 401.956 224.21 392.551C226.246 375.923 228.96 325.545 230.77 274.583C230.77 273.864 230.77 273.145 230.77 272.471C232.398 226.273 233.213 179.94 232.036 158.458C229.503 112.979 221.586 107.856 204.304 99.3623L204.485 99.8566Z" fill="#F0997A"/>
<path d="M173.178 156.526C173.178 171.851 176.164 204.207 178.652 249.687C180.462 282.448 176.978 339.836 175.486 372.777C174.847 380.896 174.726 389.046 175.124 397.18C176.843 406.168 193.22 437.626 193.22 437.626C196.251 425.043 198.467 399.876 200.096 368.733C205.253 269.64 204.62 109.788 204.349 99.7668V99.2725L204.077 99.6769C201.091 103.946 173.043 142.1 173.178 156.526Z" fill="#FFBDA7"/>
<path opacity="0.5" d="M173.178 156.526C173.178 171.85 176.164 204.207 178.652 249.687C178.652 249.687 180.779 175.67 181.502 156.841C182.226 138.011 204.484 99.8566 204.484 99.8566H204.213C201.091 103.946 173.043 142.1 173.178 156.526Z" fill="white"/>
<path d="M399.107 106.238C396.257 115.586 350.7 267.078 349.705 266.989C348.709 266.899 334.549 322.355 322.561 368.912C313.829 402.528 306.41 431.514 306.41 431.514C315.624 429.034 324.126 424.446 331.236 418.118C338.345 411.789 343.865 403.895 347.352 395.068C353.414 379.383 368.253 331.163 382.368 282.133C382.594 281.414 382.775 280.74 382.956 280.111C395.804 235.665 407.793 190.905 411.865 169.738C420.46 124.798 414.036 118.147 399.288 105.789C399.247 105.946 399.186 106.097 399.107 106.238Z" fill="#F0997A"/>
<path d="M354.953 153.74C351.334 168.615 346.267 200.747 337.671 245.462C331.473 277.729 314.192 332.556 304.736 364.149C302.166 371.881 300.066 379.76 298.448 387.742C297.905 397.045 306.275 431.469 306.275 431.469C312.246 419.964 320.525 396.056 329.664 366.216C358.708 271.258 396.709 115.945 399.062 106.193C399.08 106.044 399.08 105.893 399.062 105.744L398.7 106.058C394.809 109.384 358.346 139.718 354.953 153.74Z" fill="#FFBDA7"/>
<path opacity="0.5" d="M354.952 153.74C351.333 168.615 346.266 200.747 337.671 245.462C337.671 245.462 357.667 174.142 362.96 156.032C368.253 137.921 399.152 106.238 399.152 106.238H398.881C394.809 109.384 358.345 139.718 354.952 153.74Z" fill="white"/>
<path d="M230.724 405.808C232.262 405.089 256.646 393.315 265.015 387.607C273.385 381.9 290.938 336.78 298.448 243.799C300.438 219.217 301.117 199.264 301.027 182.951C300.8 137.786 294.376 120.978 291.979 112.305C288.721 100.531 264.563 58.7814 264.563 58.7814C264.563 58.7814 272.435 222.138 244.296 353.363C240.71 371.071 236.18 388.578 230.724 405.808Z" fill="#F0997A"/>
<path d="M218.826 366.261L230.634 405.808C231.629 404.55 246.196 386.843 257.778 344.285C265.358 315.379 269.907 285.77 271.35 255.933C275.311 190.16 272.979 124.162 264.383 58.8264L238.008 88.2621C238.008 88.2621 244.477 184.748 238.008 255.933C237.239 264.607 236.334 272.786 235.384 280.471C232.531 305.139 228.119 329.605 222.174 353.723C220.229 361.947 218.826 366.261 218.826 366.261Z" fill="#FFBDA7"/>
<path opacity="0.5" d="M235.564 280.56C253.66 222.138 246.015 95.5424 246.015 95.5424L264.518 59.0511L238.143 88.4868C238.143 88.4868 244.612 184.973 238.143 256.158C237.419 264.562 236.514 272.741 235.564 280.56Z" fill="white"/>
<path d="M47.7729 368.553C48.9039 367.699 66.819 354.037 72.6549 347.97C78.4909 341.903 85.1411 302.132 75.4598 225.104C72.8811 204.702 70.0763 188.344 67.1809 175.041C59.3092 138.28 51.2112 125.607 47.7729 118.956C43.2489 109.968 16.3311 79.9033 16.3311 79.9033C16.3311 79.9033 50.5326 211.757 50.0802 323.523C50.1302 338.563 49.36 353.595 47.7729 368.553Z" fill="#F0997A"/>
<path d="M31.3966 338.308L47.7734 368.553C48.3616 367.384 57.2739 350.577 59.5359 313.816C60.8313 288.984 59.4969 264.085 55.5547 239.53C47.5855 185.225 34.4523 131.792 16.3316 79.9482L0 108.305C0 108.305 21.7152 185.872 28.5464 245.013C29.3608 252.248 30.0846 259.034 30.5823 265.461C32.4569 286.062 33.016 306.761 32.2561 327.433C31.668 334.488 31.3966 338.308 31.3966 338.308Z" fill="#FFBDA7"/>
<path opacity="0.5" d="M30.4466 265.461C35.1968 214.678 7.41943 112.664 7.41943 112.664L16.4674 79.7684L0 108.305C0 108.305 21.7152 185.872 28.5464 245.013C29.225 252.248 29.9489 259.034 30.4466 265.461Z" fill="white"/>
<path d="M113.824 431.694C115.136 431.154 136.037 422.706 143.321 418.436C150.604 414.167 167.615 377.541 178.97 300.738C181.956 280.426 183.494 263.888 184.444 250.316C186.706 212.791 182.318 198.41 180.779 191.085C178.744 181.153 160.919 145.156 160.919 145.156C160.919 145.156 158.521 281.279 128.12 388.866C124.104 403.378 119.333 417.673 113.824 431.694Z" fill="#F0997A"/>
<path d="M106.133 398.213L113.824 431.694C114.683 430.705 127.803 416.773 139.837 382.035C147.732 358.418 153.13 334.049 155.942 309.322C162.823 254.879 164.489 199.911 160.919 145.156L137.394 168.165C137.394 168.165 137.394 248.698 128.346 307.479C127.169 314.625 126.038 321.411 124.817 327.747C121.086 348.084 116.07 368.167 109.797 387.877C107.535 394.708 106.133 398.213 106.133 398.213Z" fill="#FFBDA7"/>
<path opacity="0.5" d="M124.771 327.792C142.867 280.156 143.546 174.592 143.546 174.592L160.918 145.291L137.393 168.3C137.393 168.3 137.393 248.833 128.345 307.614C127.124 314.67 125.993 321.456 124.771 327.792Z" fill="white"/>
<path d="M275.964 440.097C277.366 440.097 299.941 439.154 308.22 437.581C316.499 436.008 345.091 407.381 382.052 338.982C391.824 321.006 399.062 305.862 404.445 293.368C419.465 258.854 420.234 243.934 421.32 236.474C422.813 226.408 418.379 186.546 418.379 186.546C418.379 186.546 369.52 313.771 304.103 404.685C295.348 416.966 285.955 428.786 275.964 440.097Z" fill="#F0997A"/>
<path d="M280.488 405.988L275.964 440.097C277.14 439.468 294.06 430.795 317.404 402.213C332.894 382.666 346.31 361.582 357.441 339.297C382.564 290.395 402.953 239.234 418.334 186.501L388.34 199.983C388.34 199.983 361.015 276.066 332.152 328.197C328.669 334.533 325.23 340.51 321.928 346.173C311.434 363.943 299.845 381.053 287.229 397.404C282.795 403.202 280.488 405.988 280.488 405.988Z" fill="#FFBDA7"/>
<path opacity="0.5" d="M321.928 346.083C355.36 307.434 392.004 208.387 392.004 208.387L418.425 186.681L388.43 200.163C388.43 200.163 361.015 276.066 332.152 328.197C328.669 334.488 325.23 340.51 321.928 346.083Z" fill="white"/>
<path d="M316.227 156.841L282.071 304.244L281.981 304.379L251.67 435.154L278.407 452.276L347.398 158.863L316.227 156.841Z" fill="#FFBDA7"/>
<path d="M347.398 158.863L367.077 193.197L301.841 452.995L278.361 452.276L347.398 158.863Z" fill="#F0997A"/>
<path opacity="0.5" d="M282.071 304.244L320.435 164.795L347.398 158.863L316.227 156.841L282.071 304.244Z" fill="white"/>
<path d="M71.8867 398.168C73.1534 397.584 93.4662 387.787 100.433 383.023C107.4 378.26 122.013 340.69 128.256 263.303C129.93 242.811 130.518 226.183 130.427 212.611C130.427 174.996 124.863 160.975 122.872 153.785C120.203 143.988 100.252 109.204 100.252 109.204C100.252 109.204 106.812 245.237 83.5133 354.532C80.4151 369.271 76.5342 383.837 71.8867 398.168Z" fill="#F0997A"/>
<path d="M62.0244 365.227L71.8868 398.168C72.7012 397.18 84.8255 382.394 94.5068 346.982C100.823 322.914 104.598 298.259 105.772 273.415C109.07 218.634 107.131 163.666 99.9808 109.249L77.9941 133.741C77.9941 133.741 83.3777 214.094 77.9941 273.415C77.3608 280.605 76.637 287.436 75.8227 293.863C73.4474 314.402 69.7605 334.771 64.7841 354.846C63.3364 361.677 62.0244 365.227 62.0244 365.227Z" fill="#FFBDA7"/>
<path opacity="0.5" d="M76.0029 293.773C91.0226 245.058 84.6891 139.673 84.6891 139.673L100.116 109.294L78.1292 133.786C78.1292 133.786 83.5128 214.139 78.1292 273.46C77.5411 280.56 76.9077 287.346 76.0029 293.773Z" fill="white"/>
<path d="M30.8536 478.296L255.38 607.049L293.381 339.117C177.16 401.269 18.0958 282.852 10.8574 177.198L30.8536 478.296Z" fill="#F5F5F5"/>
<path d="M80.889 506.878L102.649 519.372L106.133 317.771C94.938 310.29 84.3497 301.951 74.4648 292.829L80.889 506.878Z" fill="#BA68C8"/>
<path d="M162.366 345.723C151.379 342.034 140.687 337.527 130.382 332.241L128.889 534.471L150.694 546.965L162.366 345.723Z" fill="#BA68C8"/>
<path d="M293.381 338.982C280.998 345.601 267.708 350.385 253.932 353.183L233.664 594.466L255.379 606.915L293.381 338.982Z" fill="#BA68C8"/>
<path d="M225.069 356.239C213.613 356.334 202.174 355.326 190.913 353.229L181.322 564.447L203.083 576.895L225.069 356.239Z" fill="#BA68C8"/>
<path d="M10.9023 177.198L30.8532 478.296L31.3508 478.566L52.6589 490.79L47.4562 263.618C26.4196 236.654 12.8477 206.364 10.9023 177.153V177.198Z" fill="#BA68C8"/>
<path d="M293.381 339.027L418.606 282.897L351.017 552.133L255.38 606.96L293.381 339.027Z" fill="#E6E6E6"/>
<path opacity="0.15" d="M25.0625 390.529C36.3725 452.995 69.3072 481.712 120.338 511.642C174.943 543.639 264.563 542.201 269.901 504.541C269.901 504.541 283.202 552.582 321.927 522.113C360.653 491.644 409.964 317.321 409.964 317.321L351.152 552.133L255.515 606.96L30.8532 478.296L25.0625 390.529Z" fill="black"/>
</svg>
