<svg width="643" height="453" viewBox="0 0 643 453" fill="none" xmlns="http://www.w3.org/2000/svg">
<path d="M71.606 428.487C23.923 401.164 -6.70439 352.988 1.25785 307.734C5.41995 286.772 15.581 267.448 30.5223 252.08C45.4637 236.712 64.5509 225.951 85.4947 221.089C127.161 212.326 243.835 163.386 316.219 118.716C388.603 74.0457 431.038 27.7575 473.111 6.05148C501.793 -8.77872 543.685 4.47865 556.307 36.7456C568.929 69.0125 567.391 192.193 426.016 290.836C284.641 389.48 71.606 428.487 71.606 428.487Z" fill="#FFBDA7"/>
<path d="M94.4525 228.954C126.121 222.303 214.836 184.823 261.026 158.398C307.216 131.973 379.284 85.8649 418.914 43.3966C391.001 65.4621 358.835 92.2914 316.219 118.581C243.835 163.252 127.116 212.191 85.4951 220.955C64.5563 225.827 45.4748 236.591 30.5352 251.957C15.5955 267.324 5.43088 286.642 1.25824 307.599C-6.704 352.853 23.8782 401.029 71.6064 428.353C153.666 411.846 233.778 386.92 310.655 353.977L302.738 289.668L53.5104 287.376C29.6237 318.429 44.8243 364.628 59.5725 384.806C64.368 391.367 62.2869 398.288 54.7771 397.344C43.9195 395.726 29.6236 385.255 19.3994 365.886C12.3145 352.67 8.69967 337.892 8.88946 322.92C9.07924 307.948 13.0676 293.265 20.4852 280.23C37.1336 251.109 62.7845 235.74 94.4525 228.954Z" fill="#F0997A"/>
<path d="M76.1307 272.411C240.804 210.349 386.251 134.984 487.362 39.8914C498.203 27.1264 513.704 19.162 530.456 17.7503C547.208 16.3386 563.838 21.5954 576.689 32.364C589.539 43.1327 597.557 58.5312 598.978 75.1721C600.399 91.813 595.107 108.333 584.266 121.098L582.954 122.851C540.791 178.217 281.249 352.045 121.506 387.997L120.783 388.221C113.399 390.154 105.798 391.151 98.1625 391.187C83.7312 391.152 69.7669 386.104 58.6878 376.917C47.6088 367.731 40.1127 354.985 37.4976 340.887C34.8825 326.789 37.3131 312.226 44.3685 299.72C51.424 287.215 62.66 277.554 76.1307 272.411Z" fill="#B16668"/>
<path d="M218.229 240.009C218.385 259.294 215.531 278.487 209.769 296.903C208.774 300.364 212.303 302.835 215.334 302.835C217.121 302.833 218.861 302.26 220.295 301.2C221.729 300.139 222.781 298.649 223.296 296.948C229.615 276.589 232.474 255.325 231.756 234.032C231.224 225.469 229.706 216.995 227.232 208.776L214.474 214.753C216.758 222.988 218.019 231.47 218.229 240.009Z" fill="#9A4A4D"/>
<path d="M128.925 327.418C128.337 330.473 128.156 333.574 127.749 336.675C127.263 338.247 127.173 339.914 127.489 341.529C127.804 343.143 128.515 344.656 129.558 345.933C130.105 346.579 130.883 346.987 131.728 347.071C132.574 347.155 133.418 346.908 134.082 346.382C135.792 345.347 137.32 344.041 138.606 342.517C139.232 341.668 139.806 340.783 140.326 339.866C141.714 337.265 142.967 334.595 144.08 331.867C146.065 326.524 147.579 321.021 148.604 315.418C150.916 305.531 152.085 295.414 152.088 285.264C152.104 274.502 150.674 263.787 147.835 253.401C147.064 250.578 146.128 247.802 145.031 245.087C139.104 247.559 133.132 249.986 126.935 252.413C127.885 254.839 128.744 257.266 129.468 259.738C131.605 267.524 132.805 275.534 133.042 283.601C133.246 293.543 132.564 303.483 131.006 313.306C130.689 318.025 129.875 322.699 128.925 327.418Z" fill="#9A4A4D"/>
<path d="M468.362 57.8673C470.285 61.4329 471.992 65.1096 473.474 68.8776C476.321 76.2994 478.309 84.0187 479.4 91.8869C480.508 100.755 480.826 109.703 480.35 118.626C480.35 123.66 479.943 128.693 479.491 133.681C479.174 136.512 478.993 139.254 478.948 142.085C478.948 146.893 478.133 151.567 482.024 155.567C483.336 156.825 485.688 155.567 486.548 154.623C489.625 151.93 491.894 148.447 493.108 144.557C493.968 142.279 494.693 139.953 495.279 137.591C496.275 133.097 496.953 128.603 497.541 124.109C499.034 112.552 499.125 100.859 497.813 89.2804C496.759 79.8157 494.479 70.5258 491.027 61.6422C489.286 57.2319 487.198 52.9645 484.784 48.8793C484.015 47.4861 483.155 46.048 482.25 44.3853C477.726 48.8793 472.795 53.0138 467.909 57.2382L468.362 57.8673Z" fill="#9A4A4D"/>
<path d="M390.187 118.087C392.938 126.203 394.67 134.626 395.344 143.163C396.492 162.422 394.599 181.74 389.734 200.417C389.623 201.191 389.689 201.979 389.926 202.724C390.163 203.469 390.566 204.152 391.105 204.722C391.643 205.291 392.304 205.733 393.038 206.015C393.771 206.297 394.56 206.411 395.344 206.349C397.135 206.357 398.879 205.78 400.309 204.709C401.739 203.637 402.776 202.13 403.261 200.417C408.681 179.617 410.502 158.053 408.644 136.647C407.57 127.152 405.274 117.834 401.813 108.919L389.825 117.188C389.926 117.495 390.047 117.795 390.187 118.087Z" fill="#9A4A4D"/>
<path d="M307.397 190.261C308.039 209.548 305.658 228.818 300.34 247.379C299.48 250.795 302.828 253.266 305.95 253.266C307.735 253.277 309.475 252.707 310.904 251.644C312.333 250.581 313.374 249.084 313.867 247.379C319.771 226.707 322.111 205.192 320.788 183.744C320.106 176.511 318.712 169.361 316.626 162.398L304.05 169.408C305.839 176.236 306.96 183.219 307.397 190.261Z" fill="#9A4A4D"/>
<path opacity="0.15" d="M120.601 388.356C113.218 390.289 105.617 391.286 97.9813 391.322C82.3798 391.32 67.3556 385.46 55.9202 374.917C44.4848 364.375 37.4835 349.928 36.3193 334.473C43.1053 346.068 60.025 358.067 102.008 352.449C176.563 342.562 384.622 224.505 473.745 157.364C562.868 90.2241 560.651 27.9821 522.785 22.05C525.946 21.5973 529.137 21.372 532.331 21.376C544.041 21.2713 555.551 24.3938 565.582 30.3966C575.614 36.3994 583.773 45.0473 589.154 55.3795C594.535 65.7118 596.927 77.3238 596.064 88.9253C595.201 100.527 591.117 111.663 584.266 121.098L582.954 122.851C540.791 178.217 281.249 352.045 121.506 387.997L120.601 388.356Z" fill="black"/>
<path d="M71.6064 428.488C71.631 423.022 73.3271 417.693 76.4699 413.206C79.6128 408.72 84.0541 405.288 89.2049 403.366C104.767 397.659 109.382 393.659 128.79 370.919C154.034 341.394 228.815 320.092 321.376 269.759C413.938 219.427 482.205 170.892 522.604 129.996C565.537 86.5841 582.638 29.8248 607.022 45.1044C631.406 60.384 656.786 105.369 633.397 162.308C610.008 219.247 521.066 296.319 415.973 360.044C344.313 403.591 240.94 444.891 162.177 451.452C117.208 455.182 83.5498 440.262 71.6969 428.308L71.6064 428.488Z" fill="#FFBDA7"/>
<path d="M620.594 56.7888C605.122 41.8688 596.3 105.818 530.702 166.173C465.104 226.527 353.859 292.544 298.711 312.992C243.564 333.44 162.991 366.695 140.371 397.12C122.275 421.837 108.387 437.565 87.8477 439.408C111.056 449.979 136.686 454.199 162.087 451.632C240.895 445.07 344.268 403.771 415.928 360.224C521.021 296.319 610.008 219.247 633.352 162.488C652.307 116.11 639.233 77.7758 620.594 56.7888Z" fill="#F0997A"/>
<path opacity="0.15" d="M569.518 44.6999C567.407 42.2117 564.478 40.5449 561.25 39.9939C558.021 39.4429 554.7 40.0432 551.874 41.6889C541.153 49.3287 527.852 48.385 513.782 47.4412C501.999 45.8438 490.013 46.6234 478.54 49.7332C477.364 50.1377 476.188 50.5871 475.057 51.0815C466.944 58.3318 458.59 65.4622 449.994 72.4728C446.983 77.8792 445.317 83.9227 445.136 90.0987C444.955 96.2747 446.264 102.404 448.953 107.975C449.542 109.458 450.265 110.941 450.944 112.469C455.016 121.143 456.508 125.682 453.025 129.951C447.053 137.231 435.517 136.872 425.293 136.602L399.144 135.748L383.039 135.209C375.863 134.785 368.667 134.875 361.504 135.479C348.807 143.478 335.778 151.298 322.417 158.937C321.456 160.779 320.668 162.704 320.065 164.69C317.981 173.559 317.981 182.785 320.065 191.654C320.517 194.305 320.969 196.957 321.286 199.608C322.066 203.443 321.612 207.425 319.988 210.99C318.365 214.555 315.653 217.522 312.238 219.472C305.045 223.966 295.952 224.73 282.742 222.393C277.765 221.539 272.653 220.326 267.224 219.022C246.776 214.259 223.658 208.776 203.255 221.314C197.585 224.611 192.975 229.442 189.963 235.242C186.952 241.043 185.662 247.574 186.245 254.075C186.516 257.221 187.014 260.232 187.557 263.063C189.004 271.198 189.728 276.545 186.29 281.489C174.301 299.24 150.098 291.96 124.492 282.208L119.968 280.5C106.496 275.102 92.1849 272.062 77.6687 271.512L76.1306 272.096C68.0164 275.143 60.6377 279.85 54.4728 285.912C48.308 291.974 43.4949 299.255 40.3457 307.284C42.3944 308.328 44.7048 308.756 46.9945 308.517C49.2841 308.277 51.454 307.381 53.2391 305.936C69.8874 290.971 91.6932 297.622 114.494 306.386C130.645 312.632 147.338 318.295 163.579 318.295C173.708 318.418 183.686 315.859 192.488 310.88C198.385 307.721 203.527 303.335 207.564 298.023C211.6 292.71 214.436 286.596 215.877 280.096C216.789 273.789 216.482 267.368 214.972 261.176L214.429 258.659C213.168 254.892 212.934 250.861 213.751 246.975C216.375 239.919 227.323 237.762 235.647 237.987C244.651 238.528 253.57 240.035 262.248 242.481C266.139 243.425 269.984 244.368 273.875 245.177C305.271 251.738 330.334 244.503 342.594 225.269C349.697 214.034 348.792 201.271 346.801 189.317V188.867C344.856 177.453 344.132 170.127 350.194 165.049C357.252 159.117 367.521 159.027 379.284 159.477L406.021 160.6L420.588 161.229C432.984 161.769 447.008 162.353 459.585 156.511C465.515 154.138 470.72 150.27 474.687 145.29C478.653 140.309 481.245 134.387 482.205 128.109C482.57 120.111 480.59 112.18 476.505 105.279C474.41 101.427 472.886 97.295 471.981 93.0104C470.714 84.337 478.359 76.5175 486.548 73.2369C494.736 69.9563 504.327 70.8999 514.416 71.8886C518.94 72.338 523.464 72.7874 527.761 72.8773C545.857 73.1919 560.108 68.3833 569.563 58.4066C571.32 56.5486 572.294 54.0932 572.285 51.5444C572.277 48.9955 571.287 46.5465 569.518 44.6999Z" fill="black"/>
<path d="M567.527 37.5545C565.408 35.0628 562.472 33.3943 559.236 32.8434C555.999 32.2925 552.671 32.8946 549.838 34.5435C539.116 42.1833 525.861 41.2845 511.791 40.2958C500.119 39.5318 488.086 38.678 476.504 42.5878C464.942 46.4472 455.06 54.1233 448.501 64.3387C445.236 69.8228 443.384 76.0222 443.108 82.3874C442.831 88.7526 444.14 95.0871 446.917 100.83C447.551 102.313 448.229 103.796 448.953 105.324C452.979 113.952 454.518 118.491 450.989 122.761C445.062 130.041 433.481 129.682 423.302 129.412L397.108 128.558L381.003 128.019C369.059 127.614 355.532 127.12 343.182 132.063C337.311 134.112 331.992 137.47 327.631 141.879C323.271 146.289 319.986 151.632 318.029 157.499C315.929 166.366 315.929 175.596 318.029 184.463C318.481 187.115 318.933 189.721 319.205 192.373C319.988 196.214 319.536 200.204 317.912 203.776C316.288 207.349 313.576 210.324 310.157 212.281C302.964 216.775 293.87 217.494 280.615 215.202C275.639 214.304 270.526 213.09 265.098 211.832C244.694 207.023 221.577 201.586 201.128 214.079C195.556 217.464 191.059 222.343 188.153 228.154C185.248 233.966 184.053 240.474 184.706 246.93C184.98 249.947 185.418 252.948 186.018 255.918C187.466 264.052 188.145 269.4 184.752 274.298C172.718 292.05 148.559 284.769 122.908 275.017L118.384 273.31C77.6684 258.255 47.5386 262.255 32.8808 284.59C31.4847 286.72 30.9558 289.298 31.401 291.801C31.8461 294.304 33.2322 296.546 35.2785 298.072C37.4712 300.095 40.3142 301.282 43.3037 301.421C46.2931 301.561 49.2357 300.645 51.6101 298.836C68.2584 283.871 90.1094 290.522 112.91 299.33C129.061 305.532 145.755 311.194 161.996 311.194C172.113 311.345 182.084 308.783 190.859 303.779C196.766 300.627 201.919 296.245 205.964 290.932C210.008 285.619 212.85 279.5 214.293 272.995C215.214 266.702 214.891 260.291 213.343 254.12C213.206 253.258 213.024 252.403 212.8 251.559C211.537 247.791 211.318 243.755 212.167 239.874C214.746 232.864 225.739 230.662 234.063 230.886C243.065 231.449 251.981 232.956 260.664 235.38C264.555 236.324 268.4 237.313 272.291 238.122C303.687 244.683 328.75 237.403 340.965 218.168C348.113 206.933 347.208 194.215 345.173 182.216V181.767C343.272 170.307 342.549 162.982 348.611 157.904C355.668 152.017 365.938 151.927 377.7 152.376C386.748 152.691 395.525 153.095 404.437 153.5L419.004 154.129C431.4 154.623 445.379 155.207 457.956 149.365C463.878 146.992 469.076 143.131 473.042 138.159C477.008 133.188 479.604 127.277 480.576 121.008C480.944 112.996 478.964 105.05 474.876 98.1337C472.781 94.2818 471.257 90.1495 470.352 85.865C469.085 77.2365 476.685 69.3721 484.919 66.0914C493.152 62.8108 502.698 63.7545 512.742 64.7881C517.266 65.1926 521.79 65.6869 526.314 65.7318C544.409 66.0464 558.66 61.2378 568.07 51.2612C569.771 49.3456 570.664 46.8524 570.563 44.2998C570.462 41.7471 569.375 39.3314 567.527 37.5545Z" fill="#BA68C8"/>
<path opacity="0.15" d="M567.527 37.5545C565.408 35.0628 562.472 33.3943 559.236 32.8434C555.999 32.2925 552.671 32.8946 549.838 34.5435C539.116 42.1833 525.861 41.2845 511.791 40.2958C500.119 39.5318 488.086 38.678 476.504 42.5878C464.942 46.4472 455.06 54.1233 448.501 64.3387C445.236 69.8228 443.384 76.0222 443.108 82.3874C442.831 88.7526 444.14 95.0871 446.917 100.83C447.551 102.313 448.229 103.796 448.953 105.324C452.979 113.952 454.518 118.491 450.989 122.761C445.062 130.041 433.481 129.682 423.302 129.412L397.108 128.558L381.003 128.019C369.059 127.614 355.532 127.12 343.182 132.063C337.311 134.112 331.992 137.47 327.631 141.879C323.271 146.289 319.986 151.632 318.029 157.499C315.929 166.366 315.929 175.596 318.029 184.463C318.481 187.115 318.933 189.721 319.205 192.373C319.988 196.214 319.536 200.204 317.912 203.776C316.288 207.349 313.576 210.324 310.157 212.281C302.964 216.775 293.87 217.494 280.615 215.202C275.639 214.304 270.526 213.09 265.098 211.832C244.694 207.023 221.577 201.586 201.128 214.079C195.556 217.464 191.059 222.343 188.153 228.154C185.248 233.966 184.053 240.474 184.706 246.93C184.98 249.947 185.418 252.948 186.018 255.918C187.466 264.052 188.145 269.4 184.752 274.298C172.718 292.05 148.559 284.769 122.908 275.017L118.384 273.31C77.6684 258.255 47.5386 262.255 32.8808 284.59C31.4847 286.72 30.9558 289.298 31.401 291.801C31.8461 294.304 33.2322 296.546 35.2785 298.072C37.4712 300.095 40.3142 301.282 43.3037 301.421C46.2931 301.561 49.2357 300.645 51.6101 298.836C68.2584 283.871 90.1094 290.522 112.91 299.33C129.061 305.532 145.755 311.194 161.996 311.194C172.113 311.345 182.084 308.783 190.859 303.779C196.766 300.627 201.919 296.245 205.964 290.932C210.008 285.619 212.85 279.5 214.293 272.995C215.214 266.702 214.891 260.291 213.343 254.12C213.206 253.258 213.024 252.403 212.8 251.559C211.537 247.791 211.318 243.755 212.167 239.874C214.746 232.864 225.739 230.662 234.063 230.886C243.065 231.449 251.981 232.956 260.664 235.38C264.555 236.324 268.4 237.313 272.291 238.122C303.687 244.683 328.75 237.403 340.965 218.168C348.113 206.933 347.208 194.215 345.173 182.216V181.767C343.272 170.307 342.549 162.982 348.611 157.904C355.668 152.017 365.938 151.927 377.7 152.376C386.748 152.691 395.525 153.095 404.437 153.5L419.004 154.129C431.4 154.623 445.379 155.207 457.956 149.365C463.878 146.992 469.076 143.131 473.042 138.159C477.008 133.188 479.604 127.277 480.576 121.008C480.944 112.996 478.964 105.05 474.876 98.1337C472.781 94.2818 471.257 90.1495 470.352 85.865C469.085 77.2365 476.685 69.3721 484.919 66.0914C493.152 62.8108 502.698 63.7545 512.742 64.7881C517.266 65.1926 521.79 65.6869 526.314 65.7318C544.409 66.0464 558.66 61.2378 568.07 51.2612C569.771 49.3456 570.664 46.8524 570.563 44.2998C570.462 41.7471 569.375 39.3314 567.527 37.5545Z" fill="white"/>
<path opacity="0.2" d="M112.323 288.724C96.127 283.152 78.1215 279.107 62.1065 285.264C58.7331 286.804 55.2564 288.11 51.7014 289.174C46.8607 290.252 39.4413 288.679 38.1294 282.882C37.9264 280.383 38.7044 277.903 40.3008 275.961C37.3814 278.525 34.8113 281.455 32.6554 284.68C31.2593 286.81 30.7302 289.388 31.1753 291.891C31.6205 294.394 33.0067 296.635 35.0531 298.162C37.2458 300.185 40.0888 301.372 43.0782 301.511C46.0676 301.651 49.0103 300.735 51.3847 298.926C68.033 283.961 89.8838 290.612 112.685 299.42C128.835 305.622 145.529 311.284 161.77 311.284C171.887 311.435 181.858 308.873 190.633 303.869C195.128 301.379 199.228 298.244 202.803 294.566C193.732 299.739 183.493 302.552 173.035 302.746C151.546 303.06 131.957 295.555 112.323 288.724ZM275.187 228.954C261.525 226.274 247.628 224.95 233.702 224.999C225.287 225.404 215.606 228.19 212.711 236.099C212.369 237.195 212.156 238.326 212.077 239.47C214.972 232.819 225.423 230.482 233.747 230.931C242.749 231.494 251.665 233.001 260.348 235.425C264.239 236.369 268.084 237.358 271.975 238.167C302.421 244.503 326.851 237.852 339.473 219.876C332.788 224.837 325.052 228.219 316.853 229.763C303.02 231.866 288.926 231.593 275.187 228.954ZM465.195 138.715C457.059 142.458 448.273 144.609 439.318 145.051C419.864 146.624 400.366 144.287 380.868 143.478C371.82 143.119 362.093 143.253 354.447 147.972C350.722 151.158 347.912 155.267 346.304 159.881C346.885 159.131 347.553 158.452 348.295 157.859C355.352 151.972 365.622 151.882 377.384 152.331C386.432 152.646 395.209 153.05 404.121 153.455L418.688 154.084C431.084 154.578 445.063 155.163 457.64 149.32C462.383 147.291 466.671 144.342 470.252 140.645C473.833 136.949 476.636 132.58 478.496 127.794C474.955 132.402 470.407 136.152 465.195 138.759V138.715ZM567.528 37.5096C566.973 36.9215 566.384 36.3663 565.764 35.8468C566.215 37.7389 566.191 39.7122 565.694 41.5929C565.197 43.4737 564.242 45.2043 562.913 46.6324C559.625 49.8948 555.589 52.3159 551.151 53.688C546.65 55.4869 541.961 56.7831 537.172 57.5528C528.088 58.116 518.968 57.5423 510.028 55.8452C501.01 54.1556 491.691 55.1563 483.246 58.7212C479.796 60.4176 476.885 63.0274 474.833 66.2628C472.782 69.4981 471.669 73.2334 471.619 77.0568C474.556 72.2094 479.026 68.4642 484.332 66.4059C492.61 63.0804 502.111 64.0692 512.154 65.1028C516.678 65.5072 521.202 66.0015 525.726 66.0465C543.822 66.3611 558.073 61.5525 567.483 51.5758C569.356 49.7202 570.413 47.2026 570.421 44.5745C570.43 41.9464 569.389 39.422 567.528 37.5545V37.5096Z" fill="black"/>
<path opacity="0.3" d="M64.8657 271.737C61.7738 271.02 58.5646 270.957 55.4468 271.553C52.329 272.15 49.3726 273.391 46.7697 275.197C44.9148 276.59 43.9648 278.073 45.3672 280.185C47.3578 283.196 51.2031 282.028 53.8722 280.815C57.5367 279.152 61.0655 277.219 64.5942 275.242C65.6347 274.703 66.811 273.624 66.2681 272.636C66.1115 272.396 65.9055 272.192 65.6638 272.037C65.422 271.882 65.1501 271.78 64.8657 271.737ZM120.104 277.399C112.607 274.212 104.778 271.861 96.7598 270.389C90.3528 268.425 83.6277 267.693 76.9447 268.231C73.9136 268.771 72.9183 270.164 73.7327 271.422C74.5033 272.391 75.5923 273.059 76.8089 273.31C80.8017 274.124 84.8332 274.739 88.8881 275.152C95.6288 276.321 102.46 277.624 109.02 279.062C115.144 281.022 121.448 282.377 127.84 283.107C128.156 282.747 127.84 282.163 127.433 281.848C125.288 279.927 122.803 278.418 120.104 277.399ZM236.687 211.337C232.303 210.754 227.861 210.754 223.477 211.337C215.052 212.268 206.98 215.213 199.952 219.921C197.554 221.584 194.026 224.415 194.388 227.875C194.622 229.238 195.369 230.461 196.478 231.296C197.588 232.131 198.975 232.515 200.359 232.369C203.255 231.785 204.883 228.684 206.648 226.392C210.678 222.161 216.009 219.379 221.803 218.483C229.211 216.699 236.801 215.764 244.423 215.697C247.228 213.045 237.366 211.427 236.687 211.337ZM195.066 237.537C194.429 237.446 193.779 237.533 193.188 237.787C192.597 238.04 192.088 238.452 191.719 238.976C191.006 240.06 190.614 241.321 190.588 242.616C190.434 243.488 190.493 244.384 190.761 245.229C191.029 246.073 191.497 246.842 192.126 247.469C192.882 248.008 193.806 248.263 194.734 248.188C195.661 248.114 196.533 247.716 197.193 247.065C197.828 246.4 198.275 245.58 198.489 244.689C198.704 243.797 198.678 242.865 198.414 241.986C197.862 240.157 196.676 238.581 195.066 237.537ZM342.006 138.175C337.92 139.962 334.207 142.492 331.058 145.635C327.258 149.59 320.336 161.634 328.841 164.914C329.434 165.069 330.057 165.069 330.651 164.914C331.403 164.708 332.059 164.247 332.505 163.611C334.781 160.2 336.678 156.554 338.16 152.736C341.218 147.276 345.982 142.953 351.732 140.422C357.419 137.818 363.571 136.367 369.828 136.153C370.749 136.141 371.657 135.942 372.498 135.569C372.906 135.373 373.231 135.04 373.413 134.628C373.596 134.216 373.624 133.752 373.493 133.322C362.745 131.468 351.682 133.173 342.006 138.175ZM455.784 64.7431C454.951 64.9067 454.172 65.2779 453.522 65.8218C450.401 68.4905 448.168 72.0367 447.118 75.9922C446.068 79.9478 446.251 84.1266 447.641 87.9771C448.32 89.55 449.541 91.2128 451.215 91.2128C451.947 91.1433 452.639 90.8514 453.198 90.3769C453.756 89.9024 454.154 89.2685 454.337 88.5614C454.697 87.0916 454.789 85.5694 454.608 84.0674C454.425 78.5141 455.427 72.985 457.549 67.844C457.918 67.1881 458.03 66.4202 457.865 65.6869C457.663 65.3314 457.353 65.0486 456.979 64.879C456.606 64.7095 456.187 64.6619 455.784 64.7431ZM496.5 44.9245C489.917 44.1206 483.239 44.5629 476.821 46.2278C470.064 47.6228 464.022 51.348 459.765 56.7438C458.861 58.2717 458.544 61.2378 460.761 62.0018C462.978 62.7658 464.968 59.8896 466.325 58.6313C470.588 54.7397 475.794 52.0143 481.435 50.7218C485.754 49.7347 490.139 49.0589 494.555 48.6996C495.777 48.6996 499.758 48.6996 500.029 47.2615C500.301 45.8234 497.541 45.0594 496.365 44.9245H496.5Z" fill="white"/>
</svg>
