<svg width="524" height="1134" viewBox="0 0 524 1134" fill="none" xmlns="http://www.w3.org/2000/svg">
<path opacity="0.7" d="M261.759 1133.69C393.932 1133.69 501.079 1072.24 501.079 996.445C501.079 920.645 393.932 859.198 261.759 859.198C129.586 859.198 22.4395 920.645 22.4395 996.445C22.4395 1072.24 129.586 1133.69 261.759 1133.69Z" fill="#E0E0E0"/>
<path d="M86.0924 360.319C164.81 316.817 261.94 309.806 349.525 327.737C380.343 334.075 410.002 345.062 437.471 360.319C488.457 389.575 512.525 428.313 509.855 466.602L507.458 501.7L499.631 611.399L496.419 656.878C495.671 666.55 492.566 675.897 487.371 684.111L478.006 799.922L474.206 853.311C473.489 862.869 470.26 872.074 464.841 880.005L459.82 977.435C459.006 1005.88 439.733 1034.19 401.867 1055.9C324.462 1100.3 198.966 1100.3 121.606 1055.9C104.847 1046.83 90.2266 1034.31 78.7182 1019.18C69.541 1007.11 64.2718 992.55 63.6081 977.435L58.3602 880.32C52.873 872.322 49.6396 863.012 48.9955 853.355L35.8307 684.246C30.6424 676.012 27.5379 666.653 26.7827 656.968L15.9704 501.925L13.6178 466.827C11.0391 428.313 35.1069 389.575 86.0924 360.319Z" fill="#BA68C8"/>
<path opacity="0.5" d="M13.6178 466.602L15.9704 501.7L16.9204 515.182L27.0088 656.743C27.7426 666.432 30.8487 675.797 36.0568 684.022L49.2216 853.131C49.8657 862.788 53.0991 872.098 58.5864 880.095L63.8342 977.21C64.478 992.33 69.7493 1006.89 78.9444 1018.96C90.4527 1034.08 105.073 1046.6 121.832 1055.68C199.192 1100.08 324.688 1100.08 402.094 1055.68C439.959 1033.97 459.232 1005.66 460.046 977.21L465.249 879.915C470.713 871.903 473.958 862.604 474.659 852.951L478.459 799.517L487.823 683.752C493.018 675.537 496.123 666.191 496.871 656.518L500.083 611.039L506.598 515.407L507.548 501.925L509.946 466.827C512.524 428.538 488.457 389.799 437.562 360.543C410.092 345.287 380.433 334.299 349.615 327.962C262.031 309.986 164.946 317.042 86.1828 360.543C35.1068 389.575 11.0391 428.313 13.6178 466.602ZM14.8845 460.894C14.8845 424.628 40.0379 390.294 85.6851 364.094C111.439 349.675 139.179 339.077 168.022 332.636C198.784 325.634 230.246 322.121 261.804 322.165C325.548 322.165 389.336 336.096 437.833 363.914C483.48 390.114 508.634 424.448 508.634 460.715C508.634 496.981 483.48 531.315 437.833 557.471C340.748 613.151 182.77 613.106 85.6851 557.471C40.0379 531.495 14.8845 497.116 14.8845 460.894Z" fill="white"/>
<path opacity="0.6" d="M14.8838 460.894C14.8838 497.116 40.0372 531.495 85.6844 557.65C182.769 613.286 340.748 613.331 437.833 557.65C483.48 531.495 508.633 497.116 508.633 460.894C508.633 424.673 483.48 390.294 437.833 364.094C389.335 336.276 325.547 322.344 261.804 322.344C230.247 322.286 198.785 325.784 168.021 332.771C139.178 339.212 111.439 349.81 85.6844 364.229C40.0372 390.294 14.8838 424.628 14.8838 460.894Z" fill="white"/>
<path d="M27.0088 464.804L40.5808 656.159C41.1527 663.523 43.4954 670.643 47.4121 676.921L49.2669 679.887L62.8389 852.636C63.3682 859.764 65.7705 866.628 69.8059 872.545L72.0226 875.736L77.4966 977.075C78.0717 989.442 82.4273 1001.34 89.9829 1011.18C100.362 1024.75 113.533 1035.97 128.618 1044.08C163.95 1064.39 211.317 1075.54 261.895 1075.54C312.473 1075.54 359.749 1064.35 395.172 1044.08C427.383 1025.61 445.479 1001.79 446.203 977.03L451.677 875.601L453.848 872.455C457.839 866.583 460.239 859.788 460.815 852.726L464.661 798.798L474.206 679.752L476.061 676.786C480.019 670.429 482.363 663.211 482.892 655.754L483.797 643.081L486.104 610.275L496.51 464.625L27.0088 464.804Z" fill="#C8856A"/>
<path d="M14.8838 460.894C14.8838 497.116 40.0372 531.495 85.6844 557.65C182.769 613.286 340.748 613.331 437.833 557.65C483.48 531.495 508.633 497.116 508.633 460.894C508.633 424.673 483.48 390.294 437.833 364.094C389.335 336.276 325.547 322.344 261.804 322.344C230.247 322.286 198.785 325.784 168.021 332.771C139.178 339.212 111.439 349.81 85.6844 364.229C40.0372 390.294 14.8838 424.628 14.8838 460.894Z" fill="#C8856A"/>
<path opacity="0.1" d="M261.758 1067.76C359.751 1067.76 439.19 1025.15 439.19 972.581C439.19 920.013 359.751 877.398 261.758 877.398C163.766 877.398 84.3271 920.013 84.3271 972.581C84.3271 1025.15 163.766 1067.76 261.758 1067.76Z" fill="black"/>
<path opacity="0.3" d="M48.9954 853.266C49.8327 865.987 55.2245 877.99 64.196 887.106C75.0029 897.648 87.1737 906.716 100.388 914.07C189.601 965.256 334.279 965.256 423.537 914.07C436.668 906.693 448.761 897.626 459.503 887.106C468.455 877.981 473.83 865.98 474.659 853.266C461.442 872.278 443.936 887.959 423.537 899.06C334.279 950.246 189.601 950.246 100.388 899.06C79.9629 887.939 62.4404 872.226 49.2216 853.176L48.9954 853.266ZM45.1953 799.832L46.3714 815.921V818.347C56.8219 837.582 75.2799 855.737 101.881 870.972C190.054 921.574 333.103 921.574 421.366 870.972C447.877 855.737 466.289 837.672 476.785 818.437L478.097 799.922C468.054 820.504 449.55 839.964 421.366 856.142C333.103 906.744 190.054 906.744 101.881 856.142C73.606 839.919 55.1481 820.46 45.0596 799.877L45.1953 799.832Z" fill="white"/>
<path opacity="0.3" d="M22.4395 592.928L23.7513 611.399C34.5184 634.498 55.4193 656.339 87.0873 674.315C183.629 729.681 340.115 729.681 436.612 674.315C468.28 656.339 489.135 634.273 499.948 611.399L501.26 592.928C490.764 616.881 469.365 639.531 436.702 658.271C340.205 713.637 183.72 713.637 87.1779 658.271C54.3336 639.531 32.9351 616.881 22.4395 592.928ZM26.9635 656.878C27.8732 670.63 33.6222 683.627 43.2046 693.594C55.3706 705.78 69.1799 716.231 84.2373 724.647C182.272 780.867 341.2 780.867 439.19 724.647C454.246 716.246 468.055 705.81 480.223 693.639C489.848 683.664 495.602 670.623 496.464 656.833C484.34 675.528 465.429 693.055 439.19 708.109C341.2 764.329 182.272 764.329 84.2373 708.109C58.0433 693.144 39.0877 675.618 27.0086 656.878H26.9635Z" fill="white"/>
<path d="M0.180664 460.895C0.337017 480.291 6.1514 499.226 16.9195 515.407C30.1296 535.944 50.8496 554.639 78.3102 570.413C128.934 599.4 195.346 613.915 261.804 613.915C328.261 613.915 394.673 599.4 445.207 570.413C472.712 554.639 493.432 535.944 506.597 515.407C517.368 499.26 523.183 480.353 523.336 460.984C523.336 419.325 495.604 380.452 445.207 351.556C344.095 293.538 179.467 293.538 78.3102 351.556C55.618 363.886 35.855 380.913 20.3577 401.484C7.5258 418.695 0.467237 439.479 0.180664 460.895ZM22.4388 460.895C22.4388 425.751 46.8231 392.451 91.0678 367.06C116.048 353.149 142.93 342.916 170.871 336.68C200.701 329.914 231.206 326.522 261.804 326.569C323.602 326.569 385.399 340.051 432.449 367.015C476.694 392.406 501.078 425.707 501.078 460.85C501.078 495.993 476.694 529.338 432.675 554.684C338.531 608.612 185.439 608.612 91.2941 554.684C46.8232 529.338 22.4388 495.993 22.4388 460.895Z" fill="#BA68C8"/>
<path opacity="0.85" d="M0.180664 460.895C0.337017 480.291 6.1514 499.226 16.9195 515.407C30.1296 535.944 50.8496 554.639 78.3102 570.413C128.934 599.4 195.346 613.915 261.804 613.915C328.261 613.915 394.673 599.4 445.207 570.413C472.712 554.639 493.432 535.944 506.597 515.407C517.368 499.26 523.183 480.353 523.336 460.984C523.336 419.325 495.604 380.452 445.207 351.556C344.095 293.538 179.467 293.538 78.3102 351.556C55.618 363.886 35.855 380.913 20.3577 401.484C7.5258 418.695 0.467237 439.479 0.180664 460.895ZM22.4388 460.895C22.4388 425.751 46.8231 392.451 91.0678 367.06C116.048 353.149 142.93 342.916 170.871 336.68C200.701 329.914 231.206 326.522 261.804 326.569C323.602 326.569 385.399 340.051 432.449 367.015C476.694 392.406 501.078 425.707 501.078 460.85C501.078 495.993 476.694 529.338 432.675 554.684C338.531 608.612 185.439 608.612 91.2941 554.684C46.8232 529.338 22.4388 495.993 22.4388 460.895Z" fill="white"/>
<path opacity="0.5" d="M363.413 785.361C362.689 785.856 362.825 787.923 363.911 787.384C369.792 784.507 367.756 799.428 367.575 801.854C367.266 805.621 367.161 809.401 367.259 813.179C367.225 816.162 368.15 819.078 369.9 821.502C371.649 823.927 374.131 825.734 376.985 826.661C379.593 827.324 382.345 827.151 384.848 826.167C387.351 825.182 389.476 823.436 390.919 821.178C393.579 816.345 394.788 810.855 394.403 805.36C394.403 797.091 393.814 788.867 393.86 780.598C393.86 777.587 394.764 772.509 398.972 773.767C400.962 774.351 401.37 776.104 401.777 777.946C402.094 780.495 402.958 782.947 404.31 785.137C405.787 787.09 407.789 788.591 410.086 789.465C412.382 790.34 414.881 790.553 417.294 790.08C419.664 789.397 421.814 788.114 423.535 786.357C425.256 784.601 426.488 782.43 427.111 780.058C428.581 774.475 428.581 768.61 427.111 763.026C426.066 758.748 425.4 754.387 425.12 749.994C425.12 745.5 427.835 735.568 434.53 738.804C426.387 734.085 423.492 746.893 423.492 752.286C423.492 760.42 426.794 768.284 425.482 776.463C424.351 783.429 418.696 789.271 411.187 786.53C409.636 785.994 408.23 785.111 407.077 783.951C405.924 782.79 405.055 781.381 404.536 779.834C404.232 777.234 403.466 774.708 402.274 772.374C399.017 767.88 393.452 771.565 392.05 775.609C391.216 778.821 390.986 782.157 391.371 785.451C391.371 789.631 391.371 793.855 391.688 798.079C391.688 804.91 393.136 813.943 388.838 819.875C387.656 821.367 386.095 822.52 384.317 823.214C382.538 823.909 380.605 824.121 378.717 823.828C376.828 823.535 375.052 822.748 373.571 821.548C372.09 820.348 370.958 818.778 370.29 816.999C367.575 809.988 369.249 801.315 369.611 794.035C370.215 791.26 369.713 788.36 368.209 785.946C367.611 785.295 366.799 784.879 365.92 784.772C365.04 784.664 364.151 784.874 363.413 785.361ZM374.904 846.884C374.542 847.829 374.402 848.844 374.497 849.85C374.647 851.601 375.272 853.278 376.307 854.704C377.796 856.517 379.938 857.681 382.278 857.95C384.618 858.218 386.972 857.57 388.838 856.142C389.628 855.513 390.272 854.721 390.725 853.821C391.178 852.921 391.43 851.934 391.462 850.929C391.761 849.292 391.684 847.61 391.238 846.007C390.791 844.404 389.986 842.922 388.883 841.671C388.209 841.141 387.426 840.766 386.589 840.572C385.753 840.378 384.883 840.369 384.043 840.548C382.25 840.916 380.516 841.52 378.885 842.345C378.659 842.345 378.885 843.154 378.885 843.109C380.371 842.793 381.894 842.687 383.409 842.795C384.908 842.893 386.328 843.495 387.436 844.502C388.123 845.436 388.611 846.5 388.868 847.629C389.124 848.758 389.145 849.927 388.928 851.064C388.979 851.646 388.886 852.233 388.657 852.771C388.307 853.312 387.844 853.772 387.3 854.12C386.275 854.821 385.096 855.268 383.862 855.423C382.615 855.56 381.353 855.371 380.202 854.874C379.052 854.378 378.052 853.591 377.302 852.592C376.62 851.649 376.185 850.552 376.035 849.401C375.993 848.787 375.993 848.172 376.035 847.558C376.078 846.864 376.169 846.173 376.307 845.491C376.307 845.221 376.307 844.592 375.764 844.907C375.32 845.487 375.025 846.166 374.904 846.884ZM138.616 967.278C138.616 967.503 138.616 967.908 139.023 967.593C139.449 966.698 140.08 965.915 140.866 965.307C141.651 964.698 142.569 964.28 143.547 964.088C144.708 963.912 145.896 964.063 146.975 964.524C148.055 964.984 148.983 965.736 149.654 966.694C152.437 970.459 154.014 974.969 154.178 979.637C155.988 990.962 157.571 1010.2 173.677 1009.21C180.734 1008.76 181.91 1001.12 182.408 995.366C182.77 991.636 181.865 987.726 182.408 984.041C182.545 982.815 183.05 981.659 183.856 980.721C184.663 979.784 185.734 979.109 186.932 978.783C187.732 978.499 188.603 978.476 189.417 978.719C190.231 978.961 190.945 979.456 191.456 980.131C191.456 980.131 191.456 980.131 191.456 979.817C190.841 978.934 189.928 978.299 188.882 978.027C187.836 977.755 186.728 977.864 185.756 978.334C184.224 979.035 182.933 980.166 182.04 981.587C181.148 983.009 180.694 984.658 180.734 986.333C180.698 990.56 180.366 994.78 179.739 998.961C179.286 1001.07 178.834 1004.22 176.708 1005.3C174.653 1006.08 172.397 1006.18 170.284 1005.57C161.507 1003.5 159.109 994.692 157.843 986.962C157.119 982.468 156.576 978.289 155.762 974.019C155.384 970.373 153.792 966.957 151.238 964.312C147.664 961.077 139.339 961.301 138.616 967.278ZM109.798 908.317C118.077 908.946 119.072 923.013 119.389 929.035C119.75 937.124 118.981 945.213 119.389 953.257C119.75 958.875 120.429 966.02 124.636 970.289C125.366 971.149 126.279 971.836 127.31 972.301C128.34 972.765 129.463 972.995 130.594 972.973C131.726 972.952 132.838 972.679 133.85 972.176C134.862 971.673 135.748 970.952 136.444 970.065C136.444 970.065 136.444 969.436 136.444 969.615C135.861 970.33 135.142 970.922 134.327 971.359C133.512 971.796 132.619 972.068 131.698 972.16C130.777 972.252 129.846 972.162 128.96 971.895C128.075 971.628 127.251 971.189 126.536 970.604C123.633 967.926 121.828 964.277 121.47 960.358C120.456 952.912 120.214 945.383 120.746 937.888C121.14 931.147 120.577 924.384 119.072 917.8C117.941 913.395 115.498 908.317 109.979 908.317H109.798ZM91.385 624.746C93.1493 621.24 97.3114 624.072 98.5781 626.364C99.8143 629.093 100.652 631.983 101.066 634.947C102.104 641.049 102.604 647.229 102.559 653.418C102.559 663.754 101.293 674.629 103.464 684.876C104.821 691.212 108.802 698.357 115.815 699.93C122.827 701.503 127.486 696.155 128.979 690.044C130.156 685.55 129.522 680.606 130.789 676.067C132.056 671.528 138.48 666.001 143.004 671.079C146.08 674.494 146.035 680.067 146.487 684.561C146.94 689.055 147.483 694.178 148.025 698.987C148.975 707.48 150.242 717.996 156.757 724.288C157.819 725.479 159.115 726.443 160.565 727.119C162.015 727.795 163.589 728.17 165.19 728.221C166.791 728.271 168.386 727.996 169.876 727.413C171.367 726.829 172.722 725.949 173.858 724.827C175.807 722.223 176.897 719.083 176.979 715.839C177.273 710.99 177.273 706.128 176.979 701.279C176.979 695.302 175.441 687.797 179.603 682.898C180.915 681.071 182.894 679.827 185.118 679.432C187.342 679.037 189.634 679.523 191.501 680.786C191.727 680.786 191.727 680.426 191.501 680.292C185.394 674.809 177.929 681.37 176.12 687.572C175.169 692.652 174.895 697.835 175.305 702.986C175.961 708.918 175.517 714.92 173.993 720.693C173.458 721.867 172.675 722.914 171.696 723.761C170.718 724.609 169.567 725.237 168.323 725.604C167.078 725.97 165.769 726.067 164.483 725.886C163.198 725.706 161.967 725.252 160.874 724.557C156.69 721.974 153.699 717.857 152.549 713.098C149.111 702.447 149.111 690.628 148.025 679.662C147.347 674 144.994 664.697 137.213 666.495C129.432 668.293 128.165 677.955 127.758 684.471C127.351 689.549 126.129 696.021 120.158 697.189C117.766 697.597 115.307 697.324 113.065 696.401C110.824 695.479 108.891 693.944 107.49 691.976C101.609 683.392 103.555 670.225 103.871 660.518C104.601 650.274 103.823 639.98 101.564 629.959C100.75 626.993 99.6187 622.679 96.3161 621.51C95.2112 621.144 94.0066 621.215 92.9532 621.709C91.8998 622.203 91.0788 623.081 90.6611 624.162C90.6611 624.341 91.1588 625.465 91.566 624.746H91.385ZM104.686 722.76C105.004 724.709 105.866 726.531 107.174 728.018C108.214 729.744 109.807 731.073 111.698 731.793C113.497 731.98 115.316 731.874 117.081 731.478C118.797 731.165 120.42 730.474 121.832 729.456C123.188 728.25 124.147 726.666 124.583 724.91C125.019 723.154 124.911 721.308 124.274 719.614C123.864 717.69 122.851 715.945 121.38 714.628C119.908 713.312 118.055 712.493 116.086 712.289C115.543 712.289 115.634 713.323 116.086 713.457C117.889 714.046 119.52 715.064 120.836 716.423C122.029 717.921 122.85 719.676 123.234 721.546C123.888 723.161 123.888 724.965 123.234 726.58C122.474 727.824 121.257 728.726 119.841 729.096C118.477 729.418 117.081 729.584 115.679 729.591C114.142 729.889 112.55 729.667 111.155 728.962C109.928 727.936 108.874 726.723 108.033 725.366C107.12 724.145 106.557 722.701 106.405 721.187C106.441 718.341 107.612 715.626 109.662 713.637C109.662 713.637 109.662 712.828 109.436 712.918C107.668 713.806 106.254 715.261 105.425 717.048C104.595 718.835 104.398 720.848 104.867 722.76H104.686Z" fill="white"/>
<path d="M20.3577 401.349C35.8674 380.789 55.6276 363.765 78.3102 351.421C179.467 293.448 344.095 293.448 445.207 351.421C495.604 380.317 523.336 419.19 523.336 460.894H501.078C501.078 425.751 476.694 392.406 432.449 367.06C385.399 340.096 323.602 326.614 261.804 326.614C231.205 326.545 200.697 329.937 170.871 336.725C142.918 342.921 116.03 353.156 91.0678 367.105C46.8231 392.451 22.4388 425.796 22.4388 460.939H0.180664C0.444672 439.465 7.5036 418.617 20.3577 401.349Z" fill="#BA68C8"/>
<path opacity="0.45" d="M20.3577 401.349C35.8674 380.789 55.6276 363.765 78.3102 351.421C179.467 293.448 344.095 293.448 445.207 351.421C495.604 380.317 523.336 419.19 523.336 460.894H501.078C501.078 425.751 476.694 392.406 432.449 367.06C385.399 340.096 323.602 326.614 261.804 326.614C231.205 326.545 200.697 329.937 170.871 336.725C142.918 342.921 116.03 353.156 91.0678 367.105C46.8231 392.451 22.4388 425.796 22.4388 460.939H0.180664C0.444672 439.465 7.5036 418.617 20.3577 401.349Z" fill="white"/>
<path d="M20.3577 383.957C35.855 363.386 55.618 346.359 78.3102 334.029C179.467 276.011 344.095 276.011 445.207 334.029C495.604 362.925 523.155 401.798 523.155 443.503H500.897C500.897 408.36 476.513 375.059 432.268 349.668C385.218 322.704 323.421 309.222 261.623 309.222C231.025 309.176 200.52 312.568 170.69 319.334C142.749 325.569 115.867 335.802 90.887 349.713C46.6422 375.104 22.2578 408.405 22.2578 443.548H0.180664C0.435482 422.071 7.49533 401.221 20.3577 383.957Z" fill="#BA68C8"/>
<path opacity="0.65" d="M20.3577 383.957C35.855 363.386 55.618 346.359 78.3102 334.029C179.467 276.011 344.095 276.011 445.207 334.029C495.604 362.925 523.155 401.798 523.155 443.503H500.897C500.897 408.36 476.513 375.059 432.268 349.668C385.218 322.704 323.421 309.222 261.623 309.222C231.025 309.176 200.52 312.568 170.69 319.334C142.749 325.569 115.867 335.802 90.887 349.713C46.6422 375.104 22.2578 408.405 22.2578 443.548H0.180664C0.435482 422.071 7.49533 401.221 20.3577 383.957Z" fill="white"/>
<path d="M230.996 251.969C202.449 276.281 146.171 279.697 71.5701 346.343C38.6353 375.733 9.95316 441.93 40.5806 502.419C80.0299 580.255 163.136 577.873 163.136 577.873C163.136 577.873 146.578 504.531 165.895 428.942C185.213 353.353 230.996 251.969 230.996 251.969Z" fill="#F5F5F5"/>
<path d="M298.041 256.148C316.137 281.359 374.949 301.492 416.886 328.591C458.824 355.69 479.86 380.587 491.08 416.539C502.299 452.491 494.111 505.25 447.107 527.451C400.102 549.651 304.193 473.523 293.969 446.019C283.745 418.516 298.041 256.148 298.041 256.148Z" fill="#F0F0F0"/>
<path d="M273.385 235.026C279.073 237.026 284.3 240.135 288.759 244.172C293.219 248.208 296.821 253.09 299.353 258.53C305.982 272.06 309.196 286.991 308.718 302.032C307.677 331.827 294.286 398.742 380.332 444.491C456.019 484.937 465.067 524.53 424.713 559.673C385.852 593.468 332.242 586.142 332.242 586.142C332.242 586.142 219.73 560.392 196.794 476.848C182.905 426.156 204.711 368.992 220.635 320.008C229.909 291.232 243.269 263.917 260.311 238.891C261.271 237.256 262.623 235.883 264.247 234.891C266.662 233.882 269.365 233.786 271.847 234.622L273.385 235.026Z" fill="#F5F5F5"/>
<path d="M255.063 610.365C328.216 610.365 357.713 579.132 323.692 537.562C306.863 516.98 276.371 508.486 257.235 487.499C239.727 468.31 221.45 444.267 218.283 408.315C215.659 378.43 240.586 349.488 252.304 322.929C261.125 302.796 286.234 262.035 273.974 239.88C272.332 236.874 269.833 234.417 266.791 232.818C263.748 231.219 260.298 230.549 256.873 230.892C249.861 231.97 244.658 237.678 239.863 242.891C224.048 259.937 206.959 275.771 188.741 290.257C136.172 332.411 76.3652 418.112 111.471 519.901C129.567 571.672 207.923 610.365 255.063 610.365Z" fill="#FAFAFA"/>
<path opacity="0.05" d="M103.464 535.854C95.004 518.418 93.9634 474.332 99.5732 453.075C108.621 502.509 143.547 542.146 210.773 560.931C234.817 568.092 259.981 570.804 285.012 568.93C313.649 566.234 330.252 555.448 328.849 544.573C300.936 507.902 258.546 505.16 234.117 457.03C230.039 449.968 226.617 442.552 223.893 434.874C223.214 432.807 222.716 431.144 222.445 430.38C222.399 430.113 222.399 429.839 222.445 429.571C235.429 462.737 272.526 488.488 306.953 503.048C341.381 517.609 370.923 518.912 406.481 513.744C437.742 509.25 438.783 492.218 438.783 490.061C438.535 489.517 438.182 489.028 437.742 488.622C427.111 474.197 408.427 459.636 380.785 444.941C368.528 438.481 357.001 430.737 346.403 421.842C359.278 430.054 373.199 436.523 387.797 441.076C415.439 449.3 448.374 451.098 461.629 448.401C489.044 442.829 493.795 429.616 489.225 410.112C490.085 412.314 490.763 414.382 491.487 416.718C502.707 452.67 494.518 505.43 447.514 527.63C443.55 540.411 435.773 551.695 425.211 559.987C386.35 593.782 332.74 586.457 332.74 586.457C321.883 601.467 295.191 610.679 255.561 610.679C228.96 610.679 192.225 598.366 162.366 578.233C162.366 578.233 79.939 579.446 40.4897 501.835C30.4875 482.088 26.3155 459.933 28.4559 437.93C32.7537 505.07 79.0343 528.349 103.464 535.854Z" fill="black"/>
<path opacity="0.15" d="M58.8573 468.04C57.7228 468.391 56.4975 468.311 55.419 467.815C54.2413 467.268 53.3287 466.282 52.8797 465.07C52.4306 463.858 52.4815 462.519 53.0213 461.344L66.5933 432.492C67.1392 431.301 68.1396 430.373 69.374 429.914C70.6085 429.454 71.976 429.501 73.1758 430.043C74.3756 430.585 75.3094 431.579 75.7718 432.805C76.2342 434.032 76.1872 435.39 75.6413 436.582L62.0693 465.433C61.7672 466.081 61.3213 466.652 60.7649 467.103C60.2085 467.555 59.5563 467.875 58.8573 468.04Z" fill="black"/>
<path d="M71.1626 424.044C72.3371 424.582 73.249 425.56 73.6985 426.765C74.1479 427.969 74.0982 429.302 73.5603 430.47L59.9883 459.367C59.6925 459.994 59.2649 460.551 58.7343 461.001C58.2037 461.45 57.5823 461.782 56.912 461.973C55.7751 462.303 54.5572 462.224 53.4737 461.748C52.296 461.201 51.3834 460.215 50.9343 459.003C50.4853 457.791 50.5362 456.452 51.076 455.277L64.648 426.425C64.9159 425.842 65.2976 425.317 65.7709 424.881C66.2441 424.445 66.7998 424.107 67.4055 423.885C68.0112 423.664 68.6551 423.564 69.3 423.591C69.9449 423.618 70.5779 423.772 71.1626 424.044Z" fill="#455A64"/>
<path opacity="0.15" d="M155.445 510.463C155.241 509.295 155.483 508.093 156.123 507.093C156.457 506.544 156.897 506.067 157.419 505.69C157.94 505.313 158.532 505.043 159.16 504.897C159.788 504.75 160.439 504.73 161.075 504.837C161.711 504.944 162.319 505.176 162.864 505.52L190.008 522.283C191.112 522.962 191.899 524.049 192.196 525.305C192.493 526.561 192.275 527.882 191.591 528.979C190.907 530.075 189.813 530.857 188.549 531.152C187.285 531.447 185.954 531.231 184.851 530.552L157.707 513.789C157.113 513.427 156.603 512.943 156.213 512.369C155.823 511.796 155.561 511.146 155.445 510.463Z" fill="black"/>
<path d="M192.632 523.361C192.299 523.91 191.858 524.387 191.337 524.764C190.815 525.141 190.223 525.411 189.595 525.557C188.967 525.704 188.316 525.724 187.68 525.617C187.044 525.51 186.436 525.278 185.891 524.934L158.747 508.171C158.15 507.814 157.637 507.331 157.247 506.757C156.856 506.182 156.596 505.53 156.485 504.846C156.303 503.678 156.543 502.483 157.164 501.475C157.854 500.386 158.948 499.61 160.21 499.316C161.471 499.022 162.799 499.232 163.905 499.902L191.049 516.665C191.596 517.001 192.072 517.44 192.448 517.959C192.824 518.477 193.094 519.064 193.241 519.686C193.388 520.309 193.41 520.953 193.305 521.584C193.201 522.215 192.972 522.819 192.632 523.361Z" fill="#455A64"/>
<path opacity="0.15" d="M427.428 491.993C427.627 490.825 427.386 489.625 426.749 488.622C426.059 487.533 424.965 486.757 423.703 486.463C422.442 486.169 421.115 486.379 420.008 487.05L392.864 503.857C391.761 504.536 390.974 505.624 390.677 506.879C390.38 508.135 390.597 509.457 391.281 510.553C391.965 511.65 393.059 512.431 394.324 512.726C395.588 513.021 396.918 512.805 398.022 512.126L425.166 495.363C425.757 494.988 426.264 494.494 426.653 493.914C427.043 493.334 427.306 492.68 427.428 491.993Z" fill="black"/>
<path d="M391.959 498.24L419.103 481.477C419.647 481.133 420.256 480.901 420.892 480.794C421.528 480.687 422.179 480.707 422.807 480.854C423.435 481.001 424.027 481.27 424.549 481.647C425.07 482.024 425.51 482.501 425.844 483.05C426.184 483.592 426.413 484.196 426.517 484.827C426.621 485.458 426.6 486.103 426.452 486.725C426.305 487.347 426.036 487.934 425.66 488.452C425.284 488.971 424.808 489.41 424.261 489.746L397.117 506.509C396.013 507.188 394.682 507.404 393.418 507.109C392.154 506.814 391.06 506.032 390.376 504.936C389.692 503.839 389.474 502.518 389.771 501.262C390.068 500.006 390.855 498.919 391.959 498.24Z" fill="#455A64"/>
<path opacity="0.15" d="M297.589 421.707C297.385 420.538 297.627 419.337 298.268 418.336C298.601 417.788 299.041 417.311 299.563 416.934C300.085 416.557 300.677 416.287 301.305 416.14C301.933 415.994 302.584 415.973 303.22 416.08C303.856 416.187 304.464 416.42 305.008 416.763L332.152 433.526C333.249 434.212 334.03 435.298 334.326 436.551C334.622 437.805 334.41 439.123 333.736 440.222C333.398 440.766 332.956 441.238 332.434 441.612C331.912 441.986 331.321 442.253 330.694 442.399C330.068 442.546 329.419 442.567 328.784 442.464C328.149 442.36 327.541 442.133 326.995 441.795L299.851 425.032C299.261 424.666 298.755 424.181 298.365 423.608C297.975 423.035 297.711 422.387 297.589 421.707Z" fill="black"/>
<path d="M334.776 434.515C334.086 435.604 332.992 436.38 331.731 436.674C330.469 436.968 329.142 436.758 328.036 436.088L300.892 419.28C300.294 418.923 299.782 418.44 299.391 417.865C299 417.291 298.741 416.639 298.63 415.954C298.43 414.786 298.672 413.586 299.308 412.584C299.999 411.495 301.093 410.719 302.354 410.425C303.616 410.13 304.943 410.341 306.049 411.011L333.193 427.819C333.745 428.15 334.225 428.587 334.605 429.105C334.985 429.624 335.256 430.212 335.404 430.836C335.551 431.459 335.572 432.106 335.464 432.738C335.356 433.37 335.123 433.974 334.776 434.515Z" fill="#455A64"/>
<path opacity="0.15" d="M298.901 300.054C298.702 298.886 298.943 297.686 299.58 296.684C300.27 295.594 301.364 294.819 302.626 294.524C303.887 294.23 305.214 294.441 306.321 295.111L333.465 311.918C334.017 312.25 334.497 312.687 334.876 313.205C335.256 313.723 335.528 314.312 335.675 314.935C335.823 315.559 335.843 316.206 335.736 316.838C335.628 317.47 335.394 318.074 335.048 318.615C334.358 319.704 333.264 320.48 332.002 320.774C330.741 321.068 329.414 320.858 328.307 320.187L301.163 303.425C300.568 303.054 300.059 302.561 299.669 301.98C299.279 301.399 299.017 300.743 298.901 300.054Z" fill="black"/>
<path d="M336.088 313.177C335.755 313.725 335.315 314.202 334.793 314.579C334.271 314.956 333.679 315.226 333.051 315.373C332.423 315.519 331.772 315.54 331.136 315.433C330.5 315.326 329.892 315.093 329.348 314.75L302.204 297.987C301.606 297.63 301.094 297.147 300.703 296.572C300.312 295.998 300.052 295.346 299.942 294.661C299.759 293.494 299.999 292.299 300.62 291.291C300.954 290.742 301.394 290.266 301.916 289.888C302.437 289.511 303.029 289.242 303.657 289.095C304.285 288.949 304.936 288.928 305.572 289.035C306.208 289.142 306.816 289.374 307.361 289.718L334.505 306.481C335.052 306.816 335.528 307.256 335.904 307.774C336.28 308.293 336.55 308.88 336.697 309.502C336.844 310.124 336.866 310.769 336.761 311.4C336.657 312.03 336.428 312.634 336.088 313.177Z" fill="#455A64"/>
<path opacity="0.15" d="M105.183 368.678C104.961 367.515 105.187 366.312 105.816 365.307C106.154 364.763 106.596 364.291 107.118 363.917C107.64 363.543 108.231 363.276 108.858 363.13C109.484 362.984 110.133 362.962 110.768 363.065C111.403 363.169 112.011 363.396 112.557 363.734L139.701 380.497C140.797 381.182 141.578 382.269 141.875 383.522C142.171 384.775 141.959 386.094 141.284 387.193C140.947 387.737 140.504 388.209 139.982 388.583C139.46 388.956 138.869 389.224 138.243 389.37C137.616 389.516 136.967 389.538 136.332 389.434C135.698 389.331 135.09 389.104 134.544 388.766L107.4 372.003C106.818 371.632 106.32 371.145 105.939 370.572C105.557 370 105.299 369.354 105.183 368.678Z" fill="black"/>
<path d="M142.37 381.575C142.033 382.119 141.59 382.592 141.068 382.965C140.546 383.339 139.955 383.607 139.329 383.753C138.703 383.899 138.053 383.921 137.419 383.817C136.784 383.713 136.176 383.486 135.63 383.148L108.486 366.386C107.888 366.028 107.375 365.545 106.985 364.971C106.594 364.397 106.334 363.745 106.224 363.06C106.024 361.892 106.266 360.692 106.902 359.69C107.24 359.146 107.682 358.673 108.204 358.3C108.726 357.926 109.317 357.658 109.944 357.512C110.57 357.366 111.219 357.344 111.854 357.448C112.489 357.552 113.097 357.779 113.643 358.117L140.787 374.879C141.335 375.215 141.81 375.654 142.186 376.173C142.562 376.691 142.832 377.279 142.979 377.901C143.126 378.523 143.148 379.168 143.043 379.798C142.939 380.429 142.71 381.033 142.37 381.575Z" fill="#455A64"/>
<path opacity="0.15" d="M292.748 543.809C291.523 544.137 290.22 544.009 289.084 543.449C287.934 542.839 287.075 541.801 286.694 540.563C286.312 539.326 286.439 537.988 287.048 536.843L301.932 508.711C302.546 507.569 303.591 506.715 304.837 506.337C306.083 505.958 307.429 506.084 308.582 506.688C309.154 506.982 309.661 507.385 310.074 507.876C310.487 508.366 310.797 508.933 310.987 509.544C311.176 510.155 311.241 510.798 311.178 511.434C311.114 512.07 310.924 512.687 310.618 513.25L295.689 541.382C295.388 541.962 294.972 542.476 294.467 542.893C293.962 543.31 293.377 543.621 292.748 543.809Z" fill="black"/>
<path d="M306.727 500.576C307.884 501.179 308.753 502.213 309.143 503.452C309.533 504.69 309.413 506.032 308.808 507.183L293.879 535.315C293.577 535.89 293.161 536.398 292.656 536.807C292.15 537.217 291.566 537.519 290.938 537.697C290.336 537.896 289.699 537.966 289.067 537.904C288.436 537.842 287.825 537.649 287.274 537.337C286.702 537.044 286.195 536.64 285.782 536.15C285.369 535.66 285.059 535.092 284.869 534.481C284.68 533.87 284.614 533.228 284.678 532.592C284.741 531.956 284.932 531.338 285.238 530.776L300.122 502.644C300.729 501.506 301.762 500.651 302.998 500.264C304.234 499.878 305.573 499.99 306.727 500.576Z" fill="#BA68C8"/>
<path opacity="0.3" d="M306.727 500.576C307.884 501.179 308.753 502.213 309.143 503.452C309.533 504.69 309.413 506.032 308.808 507.183L293.879 535.315C293.577 535.89 293.161 536.398 292.656 536.807C292.15 537.217 291.566 537.519 290.938 537.697C290.336 537.896 289.699 537.966 289.067 537.904C288.436 537.842 287.825 537.649 287.274 537.337C286.702 537.044 286.195 536.64 285.782 536.15C285.369 535.66 285.059 535.092 284.869 534.481C284.68 533.87 284.614 533.228 284.678 532.592C284.741 531.956 284.932 531.338 285.238 530.776L300.122 502.644C300.729 501.506 301.762 500.651 302.998 500.264C304.234 499.878 305.573 499.99 306.727 500.576Z" fill="black"/>
<path opacity="0.15" d="M184.715 338.163C184.113 338.362 183.475 338.433 182.844 338.371C182.213 338.309 181.602 338.116 181.05 337.804C180.483 337.506 179.98 337.1 179.571 336.609C179.161 336.118 178.853 335.552 178.664 334.942C178.475 334.333 178.409 333.693 178.469 333.058C178.529 332.423 178.714 331.806 179.015 331.243L193.899 303.065C194.522 301.932 195.566 301.086 196.809 300.708C198.052 300.331 199.394 300.451 200.549 301.043C201.116 301.341 201.619 301.747 202.029 302.238C202.438 302.729 202.746 303.295 202.935 303.905C203.124 304.514 203.191 305.154 203.13 305.789C203.07 306.424 202.885 307.041 202.585 307.604L187.655 335.782C187.03 336.93 185.973 337.786 184.715 338.163Z" fill="black"/>
<path d="M198.694 295.201C199.265 295.495 199.773 295.898 200.187 296.387C200.601 296.877 200.913 297.442 201.107 298.052C201.3 298.662 201.37 299.303 201.313 299.94C201.256 300.577 201.073 301.196 200.775 301.762L185.846 329.894C185.545 330.475 185.13 330.988 184.624 331.405C184.119 331.822 183.534 332.134 182.905 332.321C181.68 332.649 180.377 332.521 179.241 331.962C178.092 331.351 177.232 330.314 176.851 329.076C176.469 327.838 176.597 326.5 177.205 325.356L192.089 297.223C192.389 296.659 192.798 296.16 193.292 295.753C193.786 295.346 194.356 295.04 194.97 294.852C195.583 294.665 196.228 294.599 196.867 294.659C197.506 294.718 198.127 294.903 198.694 295.201Z" fill="#BA68C8"/>
<path opacity="0.3" d="M198.694 295.201C199.265 295.495 199.773 295.898 200.187 296.387C200.601 296.877 200.913 297.442 201.107 298.052C201.3 298.662 201.37 299.303 201.313 299.94C201.256 300.577 201.073 301.196 200.775 301.762L185.846 329.894C185.545 330.475 185.13 330.988 184.624 331.405C184.119 331.822 183.534 332.134 182.905 332.321C181.68 332.649 180.377 332.521 179.241 331.962C178.092 331.351 177.232 330.314 176.851 329.076C176.469 327.838 176.597 326.5 177.205 325.356L192.089 297.223C192.389 296.659 192.798 296.16 193.292 295.753C193.786 295.346 194.356 295.04 194.97 294.852C195.583 294.665 196.228 294.599 196.867 294.659C197.506 294.718 198.127 294.903 198.694 295.201Z" fill="black"/>
<path opacity="0.15" d="M447.559 431.504C448.161 431.702 448.799 431.773 449.43 431.711C450.061 431.649 450.672 431.456 451.224 431.144C451.795 430.851 452.303 430.447 452.716 429.957C453.128 429.466 453.439 428.899 453.628 428.288C453.818 427.677 453.883 427.035 453.819 426.399C453.756 425.763 453.566 425.145 453.259 424.583L438.375 396.451C437.769 395.301 436.728 394.438 435.481 394.05C434.234 393.663 432.883 393.783 431.725 394.383C431.158 394.681 430.655 395.087 430.245 395.578C429.836 396.069 429.528 396.636 429.339 397.245C429.15 397.854 429.083 398.495 429.144 399.129C429.204 399.764 429.389 400.381 429.689 400.945L444.619 429.122C444.92 429.697 445.336 430.205 445.842 430.614C446.347 431.024 446.932 431.326 447.559 431.504Z" fill="black"/>
<path d="M440.185 390.339L455.069 418.516C455.369 419.08 455.555 419.696 455.615 420.331C455.675 420.966 455.609 421.606 455.42 422.216C455.231 422.825 454.923 423.391 454.513 423.882C454.104 424.373 453.601 424.779 453.033 425.077C452.482 425.389 451.871 425.582 451.24 425.644C450.608 425.706 449.971 425.635 449.369 425.437C448.741 425.259 448.157 424.957 447.651 424.547C447.146 424.138 446.73 423.63 446.428 423.055L431.499 394.878C430.899 393.733 430.781 392.399 431.172 391.169C431.562 389.938 432.428 388.912 433.58 388.316C434.732 387.72 436.075 387.604 437.314 387.991C438.552 388.379 439.585 389.239 440.185 390.384V390.339Z" fill="#BA68C8"/>
<path opacity="0.3" d="M440.185 390.339L455.069 418.516C455.369 419.08 455.555 419.696 455.615 420.331C455.675 420.966 455.609 421.606 455.42 422.216C455.231 422.825 454.923 423.391 454.513 423.882C454.104 424.373 453.601 424.779 453.033 425.077C452.482 425.389 451.871 425.582 451.24 425.644C450.608 425.706 449.971 425.635 449.369 425.437C448.741 425.259 448.157 424.957 447.651 424.547C447.146 424.138 446.73 423.63 446.428 423.055L431.499 394.878C430.899 393.733 430.781 392.399 431.172 391.169C431.562 389.938 432.428 388.912 433.58 388.316C434.732 387.72 436.075 387.604 437.314 387.991C438.552 388.379 439.585 389.239 440.185 390.384V390.339Z" fill="black"/>
<path opacity="0.15" d="M194.035 438.425C193.136 438.06 192.367 437.438 191.825 436.638C191.283 435.837 190.994 434.895 190.994 433.931C190.994 432.966 191.283 432.024 191.825 431.223C192.367 430.423 193.136 429.801 194.035 429.437L223.757 417.572C224.943 417.156 226.245 417.21 227.392 417.723C228.538 418.236 229.442 419.169 229.914 420.327C230.386 421.485 230.39 422.779 229.926 423.94C229.462 425.101 228.565 426.04 227.422 426.56L197.699 438.425C196.526 438.906 195.208 438.906 194.035 438.425Z" fill="black"/>
<path d="M231.539 415.19C231.788 415.783 231.915 416.418 231.913 417.06C231.911 417.702 231.779 418.337 231.526 418.927C231.273 419.518 230.904 420.052 230.44 420.499C229.976 420.945 229.426 421.295 228.824 421.527L199.147 433.391C197.94 433.866 196.594 433.849 195.4 433.344C194.206 432.84 193.26 431.888 192.768 430.695C192.519 430.103 192.391 429.467 192.394 428.825C192.396 428.183 192.527 427.549 192.78 426.958C193.033 426.367 193.402 425.833 193.867 425.387C194.331 424.94 194.88 424.591 195.482 424.358L225.205 412.494C226.405 412.021 227.745 412.039 228.932 412.544C230.118 413.05 231.056 414.001 231.539 415.19Z" fill="#BA68C8"/>
<path opacity="0.3" d="M231.539 415.19C231.788 415.783 231.915 416.418 231.913 417.06C231.911 417.702 231.779 418.337 231.526 418.927C231.273 419.518 230.904 420.052 230.44 420.499C229.976 420.945 229.426 421.295 228.824 421.527L199.147 433.391C197.94 433.866 196.594 433.849 195.4 433.344C194.206 432.84 193.26 431.888 192.768 430.695C192.519 430.103 192.391 429.467 192.394 428.825C192.396 428.183 192.527 427.549 192.78 426.958C193.033 426.367 193.402 425.833 193.867 425.387C194.331 424.94 194.88 424.591 195.482 424.358L225.205 412.494C226.405 412.021 227.745 412.039 228.932 412.544C230.118 413.05 231.056 414.001 231.539 415.19Z" fill="black"/>
<path opacity="0.15" d="M347.036 375.688C346.452 375.437 345.923 375.073 345.481 374.618C345.038 374.163 344.691 373.626 344.458 373.037C343.992 371.837 344.015 370.505 344.521 369.322C345.028 368.139 345.979 367.199 347.172 366.7L376.895 354.881C377.495 354.608 378.144 354.458 378.804 354.441C379.464 354.424 380.121 354.54 380.734 354.782C381.348 355.024 381.906 355.387 382.374 355.849C382.843 356.311 383.212 356.863 383.46 357.471C383.708 358.079 383.829 358.73 383.816 359.386C383.804 360.042 383.657 360.688 383.386 361.286C383.115 361.884 382.725 362.421 382.239 362.865C381.753 363.309 381.182 363.651 380.559 363.869L350.836 375.733C350.233 375.983 349.585 376.108 348.932 376.101C348.278 376.093 347.633 375.953 347.036 375.688Z" fill="black"/>
<path d="M384.54 352.454C384.783 353.047 384.906 353.682 384.9 354.322C384.895 354.962 384.763 355.595 384.51 356.184C384.258 356.773 383.891 357.306 383.43 357.754C382.97 358.201 382.425 358.554 381.826 358.791L352.149 370.655C350.942 371.13 349.596 371.113 348.402 370.608C347.208 370.103 346.262 369.151 345.77 367.959C345.521 367.366 345.393 366.731 345.396 366.089C345.398 365.447 345.529 364.812 345.782 364.222C346.035 363.631 346.404 363.097 346.869 362.651C347.333 362.204 347.882 361.854 348.484 361.622L378.207 349.758C378.8 349.518 379.436 349.397 380.077 349.402C380.718 349.408 381.352 349.54 381.941 349.791C382.53 350.042 383.064 350.406 383.51 350.864C383.956 351.321 384.306 351.862 384.54 352.454Z" fill="#BA68C8"/>
<path opacity="0.3" d="M384.54 352.454C384.783 353.047 384.906 353.682 384.9 354.322C384.895 354.962 384.763 355.595 384.51 356.184C384.258 356.773 383.891 357.306 383.43 357.754C382.97 358.201 382.425 358.554 381.826 358.791L352.149 370.655C350.942 371.13 349.596 371.113 348.402 370.608C347.208 370.103 346.262 369.151 345.77 367.959C345.521 367.366 345.393 366.731 345.396 366.089C345.398 365.447 345.529 364.812 345.782 364.222C346.035 363.631 346.404 363.097 346.869 362.651C347.333 362.204 347.882 361.854 348.484 361.622L378.207 349.758C378.8 349.518 379.436 349.397 380.077 349.402C380.718 349.408 381.352 349.54 381.941 349.791C382.53 350.042 383.064 350.406 383.51 350.864C383.956 351.321 384.306 351.862 384.54 352.454Z" fill="black"/>
<path d="M523.155 460.895C522.996 480.248 517.181 499.14 506.417 515.272C493.252 535.81 472.532 554.55 445.026 570.279C394.493 599.265 328.035 613.825 261.623 613.825C195.211 613.825 128.753 599.265 78.1296 570.279C50.6689 554.55 29.9489 535.81 16.7389 515.272C5.99343 499.131 0.179939 480.245 0 460.895H22.2581C22.2581 495.948 46.6426 529.293 90.8873 554.639C185.032 608.567 338.124 608.567 432.268 554.639C476.513 529.293 500.897 495.948 500.897 460.895" fill="#BA68C8"/>
<path opacity="0.85" d="M523.155 460.895C522.996 480.248 517.181 499.14 506.417 515.272C493.252 535.81 472.532 554.55 445.026 570.279C394.493 599.265 328.035 613.825 261.623 613.825C195.211 613.825 128.753 599.265 78.1296 570.279C50.6689 554.55 29.9489 535.81 16.7389 515.272C5.99343 499.131 0.179939 480.245 0 460.895H22.2581C22.2581 495.948 46.6426 529.293 90.8873 554.639C185.032 608.567 338.124 608.567 432.268 554.639C476.513 529.293 500.897 495.948 500.897 460.895" fill="white"/>
<path d="M22.4388 443.503C22.4388 478.601 46.8231 511.946 91.0678 537.292C185.212 591.22 338.305 591.22 432.449 537.292C476.694 511.946 501.078 478.601 501.078 443.503H523.155C523.002 462.871 517.187 481.779 506.416 497.925C493.251 518.463 472.532 537.158 445.026 552.932C394.493 581.918 328.035 596.433 261.623 596.433C195.21 596.433 128.753 581.918 78.1292 552.932C50.6686 537.158 29.9486 518.463 16.7385 497.925C6.05101 481.75 0.300698 462.85 0.180664 443.503H22.4388Z" fill="#BA68C8"/>
<path opacity="0.65" d="M22.4388 443.503C22.4388 478.601 46.8231 511.946 91.0678 537.292C185.212 591.22 338.305 591.22 432.449 537.292C476.694 511.946 501.078 478.601 501.078 443.503H523.155C523.002 462.871 517.187 481.779 506.416 497.925C493.251 518.463 472.532 537.158 445.026 552.932C394.493 581.918 328.035 596.433 261.623 596.433C195.21 596.433 128.753 581.918 78.1292 552.932C50.6686 537.158 29.9486 518.463 16.7385 497.925C6.05101 481.75 0.300698 462.85 0.180664 443.503H22.4388Z" fill="white"/>
<path opacity="0.1" d="M10.8125 444.177C10.8125 480.983 35.3326 517.833 84.3275 545.921C182.317 602.096 341.2 602.096 439.19 545.921C488.23 517.833 512.705 480.983 512.705 444.177C512.705 378.063 486.266 314.657 439.205 267.908C392.143 221.158 328.314 194.895 261.759 194.895C195.204 194.895 131.375 221.158 84.313 267.908C37.2514 314.657 10.8125 378.063 10.8125 444.177Z" fill="#BA68C8"/>
<path opacity="0.1" d="M94.3252 551.359C148.613 571.312 225.205 585.243 292.114 561.965C359.974 538.371 410.553 492.757 432.675 424.763C454.798 356.769 436.792 275.292 381.916 229.139C376.981 225.023 371.832 221.167 366.489 217.589C410.133 237.5 447.108 269.433 473.026 309.597C498.944 349.761 512.715 396.469 512.705 444.177C512.705 480.983 488.23 517.789 439.19 545.921C344.457 600.253 192.903 602.051 94.3252 551.359Z" fill="#BA68C8"/>
<path opacity="0.3" d="M261.759 197.591C327.564 197.674 390.649 223.682 437.177 269.909C483.704 316.136 509.874 378.808 509.945 444.177C509.945 481.567 484.34 516.89 437.833 543.539C391.326 570.189 328.307 585.333 261.759 585.333C195.211 585.333 132.689 570.503 85.7299 543.539C38.7708 516.575 13.5721 481.567 13.5721 444.177C13.6439 378.808 39.8137 316.136 86.3409 269.909C132.868 223.682 195.953 197.674 261.759 197.591ZM261.759 194.895C195.204 194.895 131.375 221.158 84.313 267.908C37.2514 314.657 10.8125 378.063 10.8125 444.177C10.8125 480.983 35.3326 517.833 84.3275 545.921C133.322 574.008 197.428 588.075 261.759 588.075C326.09 588.075 390.195 574.008 439.19 545.921C488.185 517.833 512.705 480.983 512.705 444.177C512.711 411.439 506.224 379.021 493.615 348.774C481.006 318.527 462.522 291.044 439.218 267.895C415.914 244.745 388.248 226.384 357.799 213.858C327.35 201.333 294.715 194.889 261.759 194.895Z" fill="#BA68C8"/>
<path opacity="0.2" d="M311.432 244.913C308.745 238.437 303.798 233.14 297.498 229.993C286.332 224.363 273.986 221.43 261.464 221.43C248.942 221.43 236.597 224.363 225.431 229.993C219.131 233.14 214.184 238.437 211.497 244.913C208.239 235.655 212.899 225.634 225.431 218.488C236.597 212.859 248.942 209.925 261.464 209.925C273.986 209.925 286.332 212.859 297.498 218.488C310.029 225.634 314.689 235.655 311.432 244.913Z" fill="#BA68C8"/>
<path opacity="0.2" d="M311.432 244.913C308.726 251.366 303.783 256.643 297.498 259.788C277.593 271.203 245.337 271.248 225.431 259.788C219.147 256.643 214.204 251.366 211.497 244.913C214.184 238.437 219.131 233.14 225.431 229.993C236.597 224.363 248.943 221.43 261.465 221.43C273.987 221.43 286.332 224.363 297.498 229.993C303.798 233.14 308.745 238.437 311.432 244.913Z" fill="white"/>
<path d="M230.995 251.969C230.995 252.373 229.412 255.474 227.15 260.957C226.562 260.687 225.974 260.327 225.431 260.013L223.983 259.159L222.626 258.305C225.472 256.529 228.193 254.562 230.769 252.418L230.995 251.969Z" fill="#F5F5F5"/>
<path d="M299.76 258.395L299.398 258.665L297.725 259.653C297.951 257.406 298.041 256.148 298.041 256.148C298.629 257.002 299.172 257.676 299.76 258.395Z" fill="#F0F0F0"/>
<path d="M299.399 258.665L297.725 259.653H297.499C290.703 263.401 283.288 265.912 275.602 267.068C264.96 268.83 254.079 268.587 243.527 266.349C248.627 256.863 254.229 247.652 260.311 238.756C261.272 237.122 262.624 235.748 264.247 234.756C265.758 234.008 267.464 233.741 269.133 233.992C270.052 234.07 270.961 234.235 271.848 234.487L273.386 234.891C283.999 238.579 292.81 246.127 298.041 256.013C298.494 256.777 298.901 257.541 299.308 258.305C299.353 258.575 299.399 258.575 299.399 258.665Z" fill="#F5F5F5"/>
<path d="M275.602 267.203C264.96 268.965 254.079 268.721 243.527 266.484C237.824 265.338 232.311 263.402 227.15 260.732C226.562 260.462 225.974 260.103 225.431 259.788L223.983 258.934C226.276 256.717 228.538 254.47 230.769 252.193C233.785 249.047 236.801 245.857 239.817 242.621C244.613 237.408 249.815 231.701 256.828 230.622C259.004 230.349 261.213 230.518 263.321 231.121C265.429 231.724 267.391 232.747 269.088 234.127C271.082 235.603 272.733 237.489 273.928 239.655C278.136 247.205 278 256.912 275.602 267.203Z" fill="#FAFAFA"/>
<path opacity="0.6" d="M67.7248 393.035C92.6973 373.217 116.177 351.51 142.687 333.445C153.771 325.895 169.153 316.592 178.427 306.93C192.451 292.414 201.681 267.383 193.356 247.699C170.103 204.017 94.326 277.719 77.3158 302.346C63.0199 324.097 29.9043 366.026 45.6478 391.777C51.6647 399.866 60.7578 399.551 67.7248 393.035ZM26.5112 440.851C28.7952 442.166 31.3412 442.969 33.9705 443.203C36.5999 443.437 39.249 443.097 41.7319 442.206C44.2149 441.316 46.4715 439.896 48.3437 438.047C50.2159 436.198 51.6583 433.965 52.5695 431.504C54.2471 425.887 53.7133 419.847 51.0765 414.606C46.5525 406.203 32.9805 403.236 25.8778 410.112C17.5536 418.157 16.4679 434.515 26.5112 440.851Z" fill="white"/>
<path d="M268.499 9.24757C268.76 7.66386 269.444 6.17843 270.478 4.9456C271.512 3.71278 272.86 2.7775 274.381 2.2369C278.526 0.499743 283.025 -0.242764 287.513 0.0695491C292.001 0.381862 296.352 1.74021 300.213 4.03451C301.637 4.78778 302.833 5.9059 303.677 7.27294C304.52 8.63997 304.98 10.2062 305.008 11.8091C305.008 13.4719 280.579 347.781 280.443 349.398C280.189 350.99 279.51 352.485 278.475 353.726C277.44 354.968 276.089 355.91 274.562 356.454C270.418 358.174 265.926 358.903 261.447 358.583C256.969 358.263 252.628 356.902 248.775 354.611C247.35 353.858 246.154 352.74 245.311 351.373C244.468 350.006 244.008 348.44 243.979 346.837C244.07 345.219 268.409 10.8654 268.499 9.24757Z" fill="#BA68C8"/>
<path opacity="0.15" d="M274.562 356.454C270.418 358.173 265.926 358.903 261.447 358.583C256.969 358.262 252.628 356.902 248.775 354.611C247.35 353.858 246.154 352.74 245.311 351.373C244.468 350.006 244.008 348.44 243.979 346.837C243.979 346.837 243.979 346.163 243.979 345.174C254.113 353.083 268.454 355.33 271.35 318.704C274.516 279.112 294.377 10.5508 294.377 10.5508L295.598 1.8324C297.182 2.40215 298.699 3.14046 300.122 4.03445C301.547 4.78772 302.743 5.90584 303.586 7.27288C304.429 8.63991 304.889 10.2061 304.918 11.8091C304.918 13.4719 280.488 347.78 280.352 349.398C280.107 350.98 279.441 352.468 278.423 353.708C277.405 354.949 276.072 355.897 274.562 356.454Z" fill="black"/>
<path d="M300.212 4.03451C301.727 4.67899 303.001 5.77679 303.858 7.17488C304.714 8.57297 305.11 10.2017 304.991 11.8341C304.871 13.4664 304.242 15.0211 303.191 16.2813C302.14 17.5416 300.719 18.4447 299.127 18.8647C294.983 20.5842 290.491 21.3133 286.012 20.9933C281.533 20.6732 277.193 19.313 273.34 17.0222C271.907 16.2748 270.702 15.1593 269.85 13.7919C268.999 12.4244 268.532 10.8551 268.499 9.24756C268.76 7.66386 269.443 6.17843 270.477 4.9456C271.512 3.71278 272.859 2.77749 274.38 2.2369C278.526 0.499743 283.024 -0.242764 287.512 0.0695491C292 0.381862 296.351 1.74021 300.212 4.03451Z" fill="#BA68C8"/>
<path opacity="0.45" d="M300.212 4.03451C301.727 4.67899 303.001 5.77679 303.858 7.17488C304.714 8.57297 305.11 10.2017 304.991 11.8341C304.871 13.4664 304.242 15.0211 303.191 16.2813C302.14 17.5416 300.719 18.4447 299.127 18.8647C294.983 20.5842 290.491 21.3133 286.012 20.9933C281.533 20.6732 277.193 19.313 273.34 17.0222C271.907 16.2748 270.702 15.1593 269.85 13.7919C268.999 12.4244 268.532 10.8551 268.499 9.24756C268.76 7.66386 269.443 6.17843 270.477 4.9456C271.512 3.71278 272.859 2.77749 274.38 2.2369C278.526 0.499743 283.024 -0.242764 287.512 0.0695491C292 0.381862 296.351 1.74021 300.212 4.03451Z" fill="black"/>
<path opacity="0.1" d="M243.979 346.837C244.008 348.44 244.468 350.006 245.311 351.373C246.154 352.74 247.35 353.858 248.775 354.611C252.624 356.912 256.966 358.279 261.446 358.599C265.927 358.919 270.421 358.184 274.562 356.454C276.089 355.91 277.44 354.968 278.475 353.726C279.51 352.485 280.189 350.99 280.443 349.398C280.443 348.859 283.112 312.907 286.595 264.641C274.669 268.287 262.078 269.269 249.725 267.518C246.422 313.177 243.979 346.342 243.979 346.837Z" fill="black"/>
<path d="M311.433 244.913C297.634 271.877 242.849 272.236 220.636 255.743C216.697 253.004 213.572 249.263 211.588 244.913C213.128 249.595 216.004 253.732 219.867 256.822C239.456 271.967 267.912 273.09 290.532 264.327C299.353 260.552 308.628 254.485 311.523 244.913H311.433Z" fill="white"/>
</svg>
