<svg width="502" height="1066" viewBox="0 0 502 1066" fill="none" xmlns="http://www.w3.org/2000/svg">
<path d="M404.219 365.687C335.5 327.758 250.81 321.646 174.445 337.285C147.501 342.801 121.565 352.379 97.5373 365.687C53.1116 391.213 32.1202 424.963 34.2013 458.398L36.2371 489.002L37.0966 500.866L77.8127 967.568C78.5365 992.375 95.3205 1017 128.346 1036.01C195.844 1074.71 305.279 1074.71 372.642 1036.01C387.246 1028.09 399.996 1017.18 410.055 1004.01C418.057 993.47 422.648 980.761 423.22 967.568L463.936 500.866L464.75 489.002L466.831 458.398C469.636 424.963 448.645 391.213 404.219 365.687Z" fill="#EBEBEB"/>
<path opacity="0.15" d="M237.781 1052.55C185.8 1042.62 162.095 1012.1 162.095 974.714L158.973 823.85H65.5977L78.1292 967.658C78.853 992.465 95.637 1017.09 128.662 1036.1C196.16 1074.8 305.596 1074.8 372.958 1036.1C351.107 1048.69 289.762 1062.53 237.781 1052.55Z" fill="black"/>
<path d="M419.556 235.181C344.005 193.387 250.811 186.691 166.755 203.723C137.18 209.873 108.726 220.481 82.3822 235.181C33.4778 263.224 10.3601 300.389 12.8483 337.15L15.1103 370.81L61.0742 899.394C61.8885 926.718 80.3464 953.907 116.674 974.714C190.958 1017.32 311.206 1017.32 385.626 974.714C401.695 966.001 415.713 953.99 426.749 939.481C435.586 927.899 440.652 913.914 441.271 899.394L486.828 370.81L489.09 337.15C491.578 300.389 468.506 263.224 419.556 235.181Z" fill="#F5F5F5"/>
<path d="M484.746 395.078L434.982 391.033L400.012 965.142C410.185 958.012 419.136 949.302 426.522 939.346C435.359 927.764 440.425 913.779 441.044 899.26L484.746 395.078Z" fill="#BA68C8"/>
<path d="M273.702 1005.86L280.035 437.995H221.676L228.009 1005.86C243.222 1006.89 258.489 1006.89 273.702 1005.86Z" fill="#BA68C8"/>
<path d="M17.2363 395.078L61.0739 899.394C61.7525 922.718 75.3697 945.907 101.79 965.142L66.8194 391.168L17.2363 395.078Z" fill="#BA68C8"/>
<path d="M140.515 986.353C154.033 991.853 168.004 996.184 182.272 999.296L171.731 414.582L116.267 416.739L140.515 986.353Z" fill="#BA68C8"/>
<path d="M385.535 416.739L330.071 414.582L319.575 999.341C333.82 996.216 347.773 991.902 361.286 986.443L385.535 416.739Z" fill="#BA68C8"/>
<path opacity="0.15" d="M160.602 903.529C159.516 836.973 149.156 458.892 149.156 458.892L150.514 250.685L61.6623 248.753C26.9632 274.638 10.6768 306.052 12.7579 337.15L15.0199 370.81L61.0742 899.394C61.8885 926.718 80.3464 953.907 116.674 974.714C190.958 1017.32 311.206 1017.32 385.626 974.714C269.178 1016.6 161.824 970.31 160.602 903.529Z" fill="black"/>
<path d="M428.468 224.8C330.433 168.625 171.505 168.625 73.5147 224.8C24.5198 252.887 0.0449219 289.693 0.0449219 326.544C0.0449219 333.824 0.0449219 362.99 0.0449219 370.406C0.0449219 407.122 24.6555 443.793 73.5147 471.79C171.505 528.01 330.433 528.01 428.468 471.79C477.508 443.703 501.983 406.807 501.938 369.956V326.724C501.983 289.828 477.508 252.932 428.468 224.8Z" fill="#E0E0E0"/>
<path opacity="0.1" d="M150.604 194.69C123.698 201.17 97.8182 211.301 73.6963 224.8C24.7014 252.887 0.226562 289.693 0.226562 326.544C0.226562 333.824 0.226562 362.99 0.226562 370.406C0.226562 407.122 24.8371 443.793 73.6963 471.79C97.8073 485.322 123.689 495.47 150.604 501.945V194.69Z" fill="black"/>
<path d="M250.992 470.532C389.61 470.532 501.983 406.086 501.983 326.589C501.983 247.092 389.61 182.646 250.992 182.646C112.373 182.646 0 247.092 0 326.589C0 406.086 112.373 470.532 250.992 470.532Z" fill="#F0F0F0"/>
<path d="M475.427 310.905L467.194 277.649C464.117 249.966 443.126 222.778 404.219 201.656C319.621 155.682 182.543 155.682 97.8542 201.656C58.9026 222.778 37.9564 249.966 34.8348 277.649L26.4202 310.905C22.801 344.116 44.5162 378 91.0229 403.392C177.748 450.489 324.145 450.489 410.87 403.392C457.512 378 479.046 344.116 475.427 310.905Z" fill="#E0E0E0"/>
<path opacity="0.1" d="M97.8092 201.836C58.8576 222.957 37.9115 250.146 34.7899 277.829L26.3753 311.085C22.7561 344.295 44.4713 378.18 90.978 403.571C109.865 413.586 129.9 421.297 150.65 426.536L155.852 379.349L166.212 176.759C142.381 182.028 119.373 190.463 97.8092 201.836Z" fill="black"/>
<path d="M250.991 402.583C370.646 402.583 467.646 349.887 467.646 284.885C467.646 219.882 370.646 167.187 250.991 167.187C131.336 167.187 34.3369 219.882 34.3369 284.885C34.3369 349.887 131.336 402.583 250.991 402.583Z" fill="#F0F0F0"/>
<path d="M250.992 377.236C354.132 377.236 437.743 335.889 437.743 284.885C437.743 233.88 354.132 192.533 250.992 192.533C147.852 192.533 64.2412 233.88 64.2412 284.885C64.2412 335.889 147.852 377.236 250.992 377.236Z" fill="#E0E0E0"/>
<path opacity="0.1" d="M250.992 377.236C354.132 377.236 437.743 335.889 437.743 284.885C437.743 233.88 354.132 192.533 250.992 192.533C147.852 192.533 64.2412 233.88 64.2412 284.885C64.2412 335.889 147.852 377.236 250.992 377.236Z" fill="black"/>
<path d="M383.002 238.237C310.12 202.285 191.863 202.285 118.936 238.237C87.2682 253.876 69.3984 273.785 65.2363 294.187C69.3984 314.635 87.2682 334.633 118.936 350.183C191.863 386.135 310.075 386.135 383.002 350.183C414.67 334.499 432.766 314.635 436.747 294.187C432.585 273.74 414.67 253.876 383.002 238.237Z" fill="#FAFAFA"/>
<path opacity="0.2" d="M273.702 281.2C286.188 288.39 286.188 300.03 273.702 307.22C266.685 310.729 258.938 312.557 251.082 312.557C243.226 312.557 235.479 310.729 228.462 307.22C215.931 300.03 215.931 288.39 228.462 281.2C235.479 277.691 243.226 275.863 251.082 275.863C258.938 275.863 266.685 277.691 273.702 281.2Z" fill="black"/>
<path d="M252.575 11.0204C252.265 9.13138 251.452 7.3593 250.218 5.88905C248.985 4.41879 247.377 3.30423 245.562 2.66159C240.625 0.59229 235.266 -0.290815 229.921 0.0839996C224.576 0.458814 219.395 2.08099 214.799 4.81873C213.092 5.7179 211.659 7.05506 210.648 8.69108C209.638 10.3271 209.087 12.2022 209.054 14.1213C209.054 16.0537 229.728 297.513 229.864 299.445C230.173 301.334 230.987 303.106 232.22 304.577C233.454 306.047 235.062 307.162 236.876 307.804C241.813 309.873 247.172 310.757 252.518 310.382C257.863 310.007 263.044 308.385 267.639 305.647C269.337 304.748 270.763 303.417 271.773 301.79C272.782 300.164 273.339 298.3 273.385 296.389C273.249 294.412 252.71 13.0877 252.575 11.0204Z" fill="#BA68C8"/>
<path opacity="0.15" d="M236.876 307.804C241.813 309.874 247.172 310.757 252.518 310.382C257.863 310.007 263.044 308.385 267.64 305.647C269.337 304.748 270.763 303.417 271.773 301.79C272.782 300.164 273.339 298.3 273.385 296.389C273.385 296.389 273.385 295.581 273.385 294.367C261.261 303.805 244.205 306.501 240.722 262.909C236.967 215.677 221.766 12.6383 221.766 12.6383L220.273 2.30212C218.394 2.95172 216.601 3.82705 214.935 4.90865C213.228 5.80783 211.795 7.14498 210.784 8.781C209.774 10.417 209.223 12.2921 209.189 14.2112C209.189 16.1437 229.864 297.603 230 299.535C230.312 301.393 231.112 303.136 232.319 304.588C233.527 306.04 235.099 307.149 236.876 307.804Z" fill="black"/>
<path d="M214.889 4.81873C213.075 5.57179 211.544 6.87043 210.511 8.53226C209.478 10.1941 208.995 12.1356 209.13 14.0842C209.264 16.0327 210.01 17.8904 211.262 19.3963C212.514 20.9022 214.21 21.9806 216.111 22.4801C221.058 24.5392 226.423 25.4166 231.773 25.042C237.124 24.6674 242.312 23.0511 246.919 20.323C248.62 19.4165 250.048 18.0776 251.058 16.4432C252.067 14.8087 252.622 12.9374 252.665 11.0204C252.356 9.13138 251.542 7.3593 250.308 5.88905C249.075 4.41879 247.467 3.30423 245.652 2.66159C240.715 0.59229 235.356 -0.290815 230.011 0.0839996C224.666 0.458814 219.485 2.08099 214.889 4.81873Z" fill="#BA68C8"/>
<path opacity="0.45" d="M214.889 4.81873C213.075 5.57179 211.544 6.87043 210.511 8.53226C209.478 10.1941 208.995 12.1356 209.13 14.0842C209.264 16.0327 210.01 17.8904 211.262 19.3963C212.514 20.9022 214.21 21.9806 216.111 22.4801C221.058 24.5392 226.423 25.4166 231.773 25.042C237.124 24.6674 242.312 23.0511 246.919 20.323C248.62 19.4165 250.048 18.0776 251.058 16.4432C252.067 14.8087 252.622 12.9374 252.665 11.0204C252.356 9.13138 251.542 7.3593 250.308 5.88905C249.075 4.41879 247.467 3.30423 245.652 2.66159C240.715 0.59229 235.356 -0.290815 230.011 0.0839996C224.666 0.458814 219.485 2.08099 214.889 4.81873Z" fill="black"/>
</svg>
