<svg width="1080" height="1920" viewBox="0 0 1080 1920" fill="none" xmlns="http://www.w3.org/2000/svg">
<g clip-path="url(#clip0_134_16014)">
<rect width="1080" height="1920" fill="#FECA52"/>
<path d="M35 421C35 365.772 79.7715 321 135 321H945C1000.23 321 1045 365.772 1045 421V1421C1045 1476.23 1000.23 1521 945 1521H135C79.7715 1521 35 1476.23 35 1421V421Z" fill="white"/>
<rect width="893.364" height="203.483" transform="matrix(0.999682 -0.0252359 0.0223038 0.999751 92.0352 57.5449)" fill="#FE5C2D"/>
<path d="M158.33 179.626C154.366 179.757 150.503 179.395 146.743 178.539C142.983 177.683 139.913 176.478 137.534 174.922L141.782 164.556C144.016 165.929 146.593 167.011 149.51 167.802C152.428 168.592 155.286 168.941 158.084 168.848C163.402 168.672 166.021 167.255 165.943 164.596C165.902 163.196 165.103 162.196 163.544 161.594C162.031 160.943 159.585 160.301 156.205 159.666C152.497 158.995 149.394 158.257 146.896 157.453C144.397 156.602 142.232 155.203 140.401 153.256C138.57 151.309 137.604 148.632 137.504 145.227C137.417 142.242 138.155 139.533 139.717 137.099C141.279 134.62 143.648 132.627 146.825 131.121C150.049 129.613 154.017 128.781 158.727 128.625C161.946 128.519 165.128 128.787 168.275 129.43C171.42 130.026 174.203 130.984 176.623 132.305L172.656 142.732C167.918 140.367 163.357 139.258 158.973 139.403C156.221 139.494 154.228 139.981 152.993 140.862C151.757 141.697 151.158 142.767 151.196 144.073C151.235 145.379 152.01 146.334 153.521 146.938C155.033 147.541 157.455 148.138 160.787 148.728C164.541 149.397 167.645 150.158 170.097 151.011C172.595 151.815 174.76 153.191 176.591 155.138C178.467 157.037 179.455 159.689 179.555 163.094C179.641 166.033 178.903 168.719 177.34 171.152C175.777 173.585 173.385 175.579 170.162 177.133C166.938 178.641 162.994 179.472 158.33 179.626ZM224.526 138.492L225.637 176.415L212.974 176.835L212.855 172.777C211.501 174.362 209.856 175.584 207.92 176.442C205.984 177.3 203.92 177.765 201.728 177.838C196.831 178 192.871 176.684 189.848 173.889C186.871 171.093 185.298 166.803 185.129 161.019L184.508 139.818L197.801 139.377L198.358 158.409C198.441 161.255 199.039 163.313 200.15 164.583C201.261 165.854 202.842 166.455 204.894 166.387C206.993 166.317 208.674 165.538 209.938 164.049C211.247 162.511 211.857 160.226 211.768 157.194L211.233 138.932L224.526 138.492ZM256.927 136.788C260.378 136.673 263.527 137.386 266.373 138.926C269.265 140.418 271.571 142.629 273.29 145.561C275.056 148.444 275.995 151.844 276.11 155.763C276.225 159.681 275.486 163.161 273.895 166.202C272.348 169.195 270.177 171.554 267.379 173.281C264.627 174.96 261.526 175.857 258.074 175.971C253.643 176.118 250.083 174.905 247.393 172.333L247.889 189.265L234.596 189.706L233.088 138.208L245.751 137.788L245.862 141.567C248.248 138.546 251.936 136.953 256.927 136.788ZM254.966 165.498C257.298 165.421 259.187 164.565 260.633 162.929C262.078 161.247 262.76 159.007 262.678 156.208C262.596 153.409 261.785 151.241 260.246 149.705C258.706 148.122 256.77 147.369 254.438 147.446C252.106 147.523 250.217 148.403 248.773 150.085C247.326 151.72 246.644 153.938 246.726 156.736C246.808 159.535 247.619 161.726 249.16 163.309C250.699 164.846 252.634 165.576 254.966 165.498ZM302.854 164.332C304.673 164.271 306.228 163.963 307.519 163.407C308.857 162.849 310.185 161.964 311.503 160.753L318.642 167.801C315.171 172.025 309.868 174.255 302.731 174.491C298.301 174.638 294.381 173.928 290.974 172.36C287.567 170.791 284.887 168.546 282.934 165.622C281.027 162.697 280.019 159.345 279.908 155.567C279.799 151.835 280.611 148.47 282.343 145.471C284.075 142.425 286.502 140.01 289.624 138.226C292.794 136.44 296.36 135.481 300.325 135.35C304.009 135.228 307.39 135.886 310.467 137.325C313.589 138.716 316.102 140.85 318.007 143.729C319.911 146.561 320.922 149.982 321.039 153.994L294.116 160.069C295.65 163.053 298.563 164.474 302.854 164.332ZM300.671 144.793C298.386 144.869 296.541 145.654 295.138 147.148C293.733 148.595 292.976 150.651 292.868 153.316L308.171 149.798C307.658 148.227 306.735 146.997 305.402 146.108C304.067 145.171 302.49 144.733 300.671 144.793ZM339.417 139.237C340.719 137.467 342.431 136.126 344.552 135.215C346.718 134.256 349.2 133.73 351.999 133.638L352.349 145.603C351.132 145.503 350.127 145.466 349.334 145.492C346.489 145.587 344.273 146.43 342.686 148.024C341.145 149.616 340.421 151.998 340.514 155.17L341.024 172.592L327.731 173.033L326.621 135.109L339.284 134.689L339.417 139.237ZM406.877 131.819C411.541 131.665 415.29 132.941 418.124 135.649C421.004 138.355 422.527 142.53 422.692 148.174L423.327 169.865L410.035 170.306L409.463 150.784C409.385 148.125 408.815 146.183 407.752 144.957C406.735 143.73 405.318 143.147 403.499 143.207C401.493 143.274 399.905 144.027 398.733 145.466C397.561 146.906 397.017 149.048 397.1 151.894L397.651 170.716L384.359 171.156L383.787 151.635C383.636 146.457 381.647 143.931 377.823 144.058C375.771 144.126 374.159 144.88 372.987 146.319C371.815 147.759 371.271 149.902 371.354 152.747L371.906 171.569L358.613 172.009L357.502 134.086L370.165 133.666L370.282 137.654C371.636 136.069 373.259 134.871 375.149 134.061C377.085 133.203 379.195 132.737 381.481 132.661C384.139 132.573 386.532 132.984 388.66 133.894C390.787 134.804 392.534 136.24 393.898 138.203C395.335 136.241 397.181 134.709 399.436 133.607C401.691 132.505 404.172 131.909 406.877 131.819ZM471.241 130.317L472.352 168.241L459.689 168.66L459.578 164.882C457.192 167.903 453.504 169.496 448.513 169.661C445.062 169.775 441.89 169.087 438.999 167.595C436.153 166.055 433.846 163.82 432.08 160.89C430.36 157.959 429.443 154.534 429.328 150.616C429.213 146.698 429.929 143.242 431.475 140.249C433.067 137.208 435.239 134.848 437.991 133.17C440.79 131.489 443.915 130.592 447.366 130.478C451.844 130.329 455.403 131.519 458.045 134.046L457.949 130.757L471.241 130.317ZM451.003 159.003C453.335 158.925 455.224 158.069 456.67 156.434C458.114 154.752 458.795 152.488 458.712 149.642C458.63 146.844 457.819 144.676 456.28 143.139C454.741 141.603 452.806 140.873 450.474 140.95C448.142 141.028 446.253 141.884 444.807 143.52C443.361 145.155 442.679 147.372 442.761 150.171C442.844 153.016 443.656 155.231 445.196 156.814C446.735 158.35 448.67 159.08 451.003 159.003ZM492.595 134.162C493.897 132.391 495.608 131.05 497.729 130.14C499.895 129.181 502.378 128.655 505.176 128.562L505.527 140.527C504.31 140.427 503.305 140.391 502.512 140.417C499.667 140.511 497.451 141.355 495.863 142.948C494.323 144.54 493.599 146.922 493.692 150.094L494.202 167.517L480.909 167.957L479.799 130.033L492.462 129.614L492.595 134.162ZM528.612 153.069L524.811 157.187L525.083 166.494L511.791 166.934L510.27 115.016L523.563 114.576L524.36 141.794L537.545 128.12L553.287 127.598L538.021 144.353L555.726 165.478L539.635 166.011L528.612 153.069ZM578.055 155.213C579.874 155.153 581.429 154.845 582.72 154.288C584.057 153.73 585.385 152.846 586.704 151.635L593.843 158.682C590.372 162.906 585.068 165.136 577.932 165.373C573.501 165.52 569.582 164.809 566.175 163.241C562.767 161.673 560.087 159.427 558.134 156.504C556.228 153.578 555.219 150.227 555.108 146.448C554.999 142.717 555.811 139.351 557.544 136.352C559.276 133.307 561.703 130.892 564.825 129.107C567.994 127.321 571.561 126.363 575.525 126.231C579.21 126.109 582.591 126.768 585.667 128.206C588.789 129.597 591.303 131.732 593.208 134.61C595.112 137.442 596.122 140.864 596.24 144.875L569.316 150.95C570.851 153.934 573.764 155.355 578.055 155.213ZM575.872 135.675C573.586 135.751 571.742 136.535 570.338 138.029C568.934 139.477 568.177 141.533 568.068 144.198L583.372 140.679C582.859 139.109 581.936 137.879 580.602 136.989C579.268 136.053 577.691 135.615 575.872 135.675ZM627.303 161.566C626.205 162.302 624.844 162.884 623.223 163.312C621.648 163.737 619.951 163.98 618.132 164.041C613.188 164.205 609.351 163.118 606.622 160.78C603.939 158.441 602.527 154.869 602.386 150.065L601.434 117.529L614.726 117.088L615.015 126.954L623.62 126.669L623.911 136.605L615.306 136.89L615.675 149.484C615.716 150.884 616.097 151.945 616.819 152.668C617.54 153.391 618.507 153.733 619.72 153.693C621.259 153.642 622.6 153.2 623.743 152.369L627.303 161.566ZM670.676 162.65C666.711 162.781 662.849 162.419 659.089 161.563C655.329 160.707 652.259 159.501 649.879 157.946L654.128 147.58C656.362 148.953 658.938 150.035 661.856 150.826C664.774 151.616 667.632 151.965 670.43 151.872C675.747 151.696 678.367 150.279 678.289 147.62C678.248 146.22 677.448 145.22 675.89 144.617C674.377 143.967 671.931 143.325 668.551 142.69C664.843 142.019 661.74 141.281 659.242 140.477C656.743 139.626 654.577 138.227 652.746 136.279C650.915 134.332 649.95 131.656 649.85 128.251C649.763 125.266 650.5 122.556 652.063 120.123C653.625 117.644 655.994 115.651 659.171 114.145C662.395 112.637 666.362 111.805 671.073 111.649C674.291 111.543 677.474 111.811 680.621 112.453C683.766 113.05 686.549 114.008 688.968 115.329L685.002 125.756C680.264 123.391 675.703 122.282 671.319 122.427C668.567 122.518 666.574 123.004 665.339 123.886C664.103 124.72 663.504 125.791 663.542 127.097C663.58 128.403 664.355 129.358 665.867 129.961C667.379 130.565 669.8 131.162 673.132 131.752C676.887 132.421 679.991 133.182 682.443 134.035C684.941 134.839 687.106 136.215 688.937 138.162C690.813 140.061 691.801 142.713 691.901 146.118C691.987 149.057 691.249 151.743 689.686 154.176C688.123 156.609 685.73 158.603 682.508 160.157C679.284 161.664 675.34 162.495 670.676 162.65ZM737.082 121.509L738.192 159.432L725.529 159.852L725.419 156.073C723.033 159.094 719.344 160.687 714.354 160.853C710.902 160.967 707.731 160.278 704.839 158.786C701.993 157.247 699.687 155.012 697.92 152.082C696.2 149.151 695.283 145.726 695.168 141.808C695.054 137.889 695.769 134.434 697.316 131.441C698.907 128.4 701.079 126.04 703.831 124.361C706.63 122.681 709.755 121.784 713.206 121.669C717.684 121.521 721.244 122.71 723.885 125.238L723.789 121.949L737.082 121.509ZM716.843 150.194C719.175 150.117 721.064 149.261 722.51 147.625C723.955 145.943 724.636 143.679 724.552 140.834C724.47 138.035 723.66 135.867 722.121 134.331C720.582 132.794 718.646 132.065 716.314 132.142C713.982 132.219 712.093 133.076 710.647 134.711C709.201 136.347 708.519 138.564 708.601 141.362C708.684 144.208 709.496 146.422 711.036 148.005C712.575 149.542 714.511 150.272 716.843 150.194ZM761.53 159.289C756.866 159.444 753.193 158.375 750.511 156.083C747.875 153.742 746.491 150.333 746.36 145.854L745.229 107.231L758.522 106.791L759.632 144.714C759.673 146.114 760.055 147.175 760.776 147.898C761.544 148.62 762.581 148.959 763.887 148.916C764.96 148.88 765.956 148.614 766.875 148.116L767.728 158.103C765.741 158.823 763.675 159.218 761.53 159.289ZM791.834 148.13C793.653 148.069 795.208 147.761 796.499 147.205C797.836 146.647 799.164 145.762 800.483 144.551L807.622 151.599C804.151 155.823 798.847 158.053 791.711 158.289C787.28 158.436 783.361 157.726 779.954 156.158C776.546 154.59 773.866 152.344 771.913 149.42C770.007 146.495 768.998 143.143 768.888 139.365C768.778 135.633 769.59 132.268 771.323 129.269C773.055 126.223 775.482 123.808 778.604 122.024C781.773 120.238 785.34 119.279 789.304 119.148C792.989 119.026 796.37 119.684 799.447 121.123C802.569 122.514 805.082 124.648 806.987 127.527C808.891 130.359 809.901 133.78 810.019 137.792L783.095 143.867C784.63 146.851 787.543 148.272 791.834 148.13ZM789.651 128.591C787.366 128.667 785.521 129.452 784.118 130.946C782.713 132.393 781.956 134.449 781.847 137.115L797.151 133.596C796.638 132.025 795.715 130.795 794.382 129.906C793.047 128.969 791.47 128.531 789.651 128.591ZM813.668 107.905L829.479 107.381L827.732 138.606L817.168 138.956L813.668 107.905ZM823.026 157.252C820.694 157.329 818.761 156.693 817.228 155.343C815.693 153.946 814.895 152.222 814.835 150.169C814.774 148.07 815.47 146.319 816.922 144.917C818.375 143.515 820.268 142.775 822.6 142.698C824.932 142.621 826.841 143.234 828.326 144.539C829.858 145.843 830.655 147.544 830.717 149.643C830.777 151.695 830.082 153.469 828.632 154.965C827.18 156.414 825.312 157.176 823.026 157.252Z" fill="white"/>
<path d="M244.818 351.616C245.155 353.804 244.656 355.823 243.323 357.675C242.012 359.496 239.901 360.86 236.992 361.766L237.668 366.155L232.924 366.886L232.272 362.656C230.276 362.828 228.353 362.787 226.506 362.532C224.655 362.251 223.089 361.804 221.808 361.192L223.488 355.024C224.852 355.651 226.39 356.088 228.102 356.337C229.813 356.586 231.459 356.589 233.04 356.345C236.045 355.882 237.431 354.899 237.2 353.397C237.078 352.607 236.554 352.094 235.627 351.859C234.723 351.593 233.29 351.396 231.327 351.267C229.176 351.139 227.363 350.933 225.889 350.648C224.411 350.336 223.084 349.69 221.908 348.711C220.732 347.732 219.996 346.281 219.699 344.357C219.35 342.09 219.868 340.027 221.255 338.168C222.637 336.282 224.842 334.917 227.868 334.073L227.198 329.724L231.942 328.993L232.6 333.263C234.123 333.163 235.6 333.205 237.031 333.39C238.489 333.57 239.807 333.893 240.985 334.359L239.469 340.542C236.614 339.525 233.948 339.207 231.47 339.589C229.915 339.828 228.819 340.24 228.18 340.824C227.538 341.382 227.273 342.03 227.387 342.768C227.5 343.506 228.007 343.994 228.908 344.233C229.808 344.472 231.224 344.645 233.156 344.752C235.334 344.875 237.148 345.095 238.6 345.411C240.074 345.696 241.399 346.329 242.575 347.308C243.774 348.256 244.521 349.692 244.818 351.616Z" fill="white"/>
<path d="M173.396 429.31C173.733 431.497 173.235 433.517 171.901 435.368C170.59 437.189 168.479 438.553 165.57 439.46L166.246 443.848L161.502 444.579L160.851 440.349C158.854 440.522 156.932 440.481 155.085 440.226C153.233 439.944 151.667 439.498 150.386 438.886L152.066 432.718C153.431 433.344 154.969 433.781 156.68 434.03C158.391 434.279 160.037 434.282 161.619 434.038C164.623 433.575 166.01 432.593 165.778 431.091C165.656 430.3 165.132 429.787 164.206 429.552C163.301 429.287 161.868 429.089 159.905 428.96C157.754 428.833 155.941 428.626 154.467 428.341C152.989 428.029 151.662 427.384 150.486 426.405C149.31 425.426 148.574 423.974 148.277 422.05C147.928 419.784 148.447 417.721 149.833 415.861C151.215 413.975 153.42 412.61 156.446 411.766L155.776 407.418L160.52 406.687L161.178 410.956C162.701 410.857 164.178 410.899 165.609 411.083C167.067 411.263 168.385 411.586 169.563 412.052L168.047 418.235C165.192 417.218 162.526 416.9 160.048 417.282C158.493 417.522 157.397 417.933 156.758 418.518C156.116 419.075 155.851 419.723 155.965 420.461C156.079 421.199 156.586 421.687 157.486 421.926C158.386 422.166 159.802 422.339 161.734 422.446C163.912 422.569 165.727 422.788 167.178 423.104C168.652 423.39 169.977 424.022 171.153 425.001C172.352 425.949 173.099 427.386 173.396 429.31Z" fill="white"/>
<path d="M173.396 429.31C173.733 431.497 173.235 433.517 171.901 435.368C170.59 437.189 168.479 438.553 165.57 439.46L166.246 443.848L161.502 444.579L160.851 440.349C158.854 440.522 156.932 440.481 155.085 440.226C153.233 439.944 151.667 439.498 150.386 438.886L152.066 432.718C153.431 433.344 154.969 433.781 156.68 434.03C158.391 434.279 160.037 434.282 161.619 434.038C164.623 433.575 166.01 432.593 165.778 431.091C165.656 430.3 165.132 429.787 164.206 429.552C163.301 429.287 161.868 429.089 159.905 428.96C157.754 428.833 155.941 428.626 154.467 428.341C152.989 428.029 151.662 427.384 150.486 426.405C149.31 425.426 148.574 423.974 148.277 422.05C147.928 419.784 148.447 417.721 149.833 415.861C151.215 413.975 153.42 412.61 156.446 411.766L155.776 407.418L160.52 406.687L161.178 410.956C162.701 410.857 164.178 410.899 165.609 411.083C167.067 411.263 168.385 411.586 169.563 412.052L168.047 418.235C165.192 417.218 162.526 416.9 160.048 417.282C158.493 417.522 157.397 417.933 156.758 418.518C156.116 419.075 155.851 419.723 155.965 420.461C156.079 421.199 156.586 421.687 157.486 421.926C158.386 422.166 159.802 422.339 161.734 422.446C163.912 422.569 165.727 422.788 167.178 423.104C168.652 423.39 169.977 424.022 171.153 425.001C172.352 425.949 173.099 427.386 173.396 429.31Z" fill="white"/>
<line x1="101.5" y1="720.5" x2="978.5" y2="720.5" stroke="#EEEEEE" stroke-width="3" stroke-linecap="round"/>
<line x1="101.5" y1="1104.5" x2="978.5" y2="1104.5" stroke="#EEEEEE" stroke-width="3" stroke-linecap="round"/>
<path d="M390.5 698C390.5 698.828 391.172 699.5 392 699.5C392.828 699.5 393.5 698.828 393.5 698L390.5 698ZM390.5 348L390.5 698L393.5 698L393.5 348L390.5 348Z" fill="#EEEEEE"/>
<path d="M390.5 698C390.5 698.828 391.172 699.5 392 699.5C392.828 699.5 393.5 698.828 393.5 698L390.5 698ZM390.5 348L390.5 698L393.5 698L393.5 348L390.5 348Z" fill="#EEEEEE"/>
<path d="M390.5 1090C390.5 1090.83 391.172 1091.5 392 1091.5C392.828 1091.5 393.5 1090.83 393.5 1090L390.5 1090ZM390.5 740L390.5 1090L393.5 1090L393.5 740L390.5 740Z" fill="#EEEEEE"/>
<path d="M390.5 1484C390.5 1484.83 391.172 1485.5 392 1485.5C392.828 1485.5 393.5 1484.83 393.5 1484L390.5 1484ZM390.5 1134L390.5 1484L393.5 1484L393.5 1134L390.5 1134Z" fill="#EEEEEE"/>
<path d="M703.5 698C703.5 698.828 704.172 699.5 705 699.5C705.828 699.5 706.5 698.828 706.5 698L703.5 698ZM703.5 348L703.5 698L706.5 698L706.5 348L703.5 348Z" fill="#EEEEEE"/>
<path d="M703.5 1091C703.5 1091.83 704.172 1092.5 705 1092.5C705.828 1092.5 706.5 1091.83 706.5 1091L703.5 1091ZM703.5 741L703.5 1091L706.5 1091L706.5 741L703.5 741Z" fill="#EEEEEE"/>
<path d="M703.5 1478C703.5 1478.83 704.172 1479.5 705 1479.5C705.828 1479.5 706.5 1478.83 706.5 1478L703.5 1478ZM703.5 1128L703.5 1478L706.5 1478L706.5 1128L703.5 1128Z" fill="#EEEEEE"/>
<rect x="109" y="642" width="260" height="56" fill="#FE5C2D"/>
<path d="M152.04 676.52C152.04 678.733 151.24 680.653 149.64 682.28C148.067 683.88 145.773 684.907 142.76 685.36V689.8H137.96V685.52C135.96 685.387 134.067 685.053 132.28 684.52C130.493 683.96 129.013 683.28 127.84 682.48L130.44 676.64C131.693 677.467 133.147 678.133 134.8 678.64C136.453 679.147 138.08 679.4 139.68 679.4C142.72 679.4 144.24 678.64 144.24 677.12C144.24 676.32 143.8 675.733 142.92 675.36C142.067 674.96 140.68 674.547 138.76 674.12C136.653 673.667 134.893 673.187 133.48 672.68C132.067 672.147 130.853 671.307 129.84 670.16C128.827 669.013 128.32 667.467 128.32 665.52C128.32 663.227 129.147 661.267 130.8 659.64C132.453 657.987 134.84 656.973 137.96 656.6V652.2H142.76V656.52C144.28 656.653 145.733 656.92 147.12 657.32C148.533 657.72 149.787 658.24 150.88 658.88L148.44 664.76C145.773 663.32 143.187 662.6 140.68 662.6C139.107 662.6 137.96 662.84 137.24 663.32C136.52 663.773 136.16 664.373 136.16 665.12C136.16 665.867 136.587 666.427 137.44 666.8C138.293 667.173 139.667 667.56 141.56 667.96C143.693 668.413 145.453 668.907 146.84 669.44C148.253 669.947 149.467 670.773 150.48 671.92C151.52 673.04 152.04 674.573 152.04 676.52Z" fill="white"/>
</g>
<g clip-path="url(#clip1_134_16014)">
<rect width="1080" height="1920" fill="#FECA52"/>
<path d="M35 421C35 365.772 79.7715 321 135 321H945C1000.23 321 1045 365.772 1045 421V1421C1045 1476.23 1000.23 1521 945 1521H135C79.7715 1521 35 1476.23 35 1421V421Z" fill="white"/>
<rect width="893.364" height="203.483" transform="matrix(0.999682 -0.0252359 0.0223038 0.999751 92.0352 57.5449)" fill="#FE5C2D"/>
<path d="M167.582 188.427C163.051 188.577 158.637 188.163 154.34 187.185C150.043 186.206 146.534 184.828 143.815 183.051L148.67 171.204C151.224 172.773 154.168 174.01 157.502 174.913C160.837 175.817 164.103 176.215 167.301 176.109C173.378 175.908 176.372 174.288 176.283 171.249C176.236 169.65 175.322 168.506 173.541 167.818C171.812 167.075 169.016 166.341 165.153 165.615C160.916 164.848 157.37 164.005 154.515 163.086C151.658 162.113 149.184 160.514 147.091 158.289C144.999 156.064 143.895 153.005 143.781 149.114C143.681 145.702 144.524 142.605 146.31 139.825C148.095 136.991 150.803 134.713 154.434 132.992C158.118 131.269 162.652 130.318 168.036 130.14C171.714 130.018 175.351 130.325 178.948 131.059C182.542 131.741 185.722 132.836 188.488 134.345L183.955 146.262C178.54 143.559 173.327 142.291 168.317 142.457C165.172 142.562 162.894 143.117 161.483 144.125C160.07 145.079 159.386 146.302 159.429 147.795C159.473 149.287 160.359 150.379 162.086 151.068C163.814 151.758 166.582 152.44 170.39 153.115C174.68 153.88 178.227 154.749 181.03 155.724C183.885 156.643 186.359 158.215 188.452 160.44C190.596 162.611 191.725 165.641 191.839 169.533C191.938 172.892 191.094 175.961 189.308 178.742C187.522 181.523 184.787 183.801 181.104 185.577C177.42 187.3 172.912 188.25 167.582 188.427ZM243.235 141.416L244.504 184.757L230.032 185.237L229.896 180.599C228.348 182.411 226.468 183.807 224.256 184.788C222.044 185.768 219.685 186.3 217.18 186.383C211.583 186.569 207.057 185.064 203.602 181.87C200.2 178.675 198.403 173.771 198.209 167.161L197.5 142.931L212.691 142.428L213.328 164.179C213.424 167.431 214.106 169.783 215.376 171.235C216.645 172.687 218.453 173.374 220.798 173.296C223.197 173.217 225.118 172.326 226.563 170.624C228.058 168.867 228.756 166.255 228.654 162.79L228.043 141.919L243.235 141.416ZM280.264 139.469C284.208 139.338 287.807 140.152 291.06 141.912C294.365 143.617 297 146.145 298.965 149.495C300.983 152.79 302.057 156.676 302.188 161.154C302.319 165.632 301.475 169.609 299.656 173.085C297.889 176.505 295.407 179.202 292.21 181.176C289.065 183.094 285.52 184.119 281.575 184.249C276.511 184.417 272.442 183.031 269.368 180.091L269.935 199.443L254.743 199.946L253.02 141.092L267.492 140.612L267.618 144.93C270.345 141.478 274.56 139.658 280.264 139.469ZM278.023 172.281C280.689 172.192 282.848 171.214 284.5 169.344C286.151 167.422 286.93 164.862 286.836 161.663C286.743 158.464 285.816 155.987 284.058 154.231C282.297 152.422 280.084 151.561 277.419 151.649C274.754 151.738 272.596 152.743 270.945 154.665C269.292 156.534 268.513 159.068 268.606 162.267C268.7 165.466 269.627 167.97 271.387 169.779C273.146 171.535 275.358 172.369 278.023 172.281ZM332.752 170.947C334.831 170.878 336.608 170.526 338.084 169.89C339.612 169.253 341.13 168.242 342.637 166.858L350.796 174.912C346.829 179.739 340.768 182.288 332.612 182.558C327.548 182.726 323.069 181.914 319.175 180.122C315.281 178.33 312.218 175.763 309.986 172.422C307.807 169.079 306.655 165.249 306.528 160.93C306.403 156.666 307.331 152.819 309.312 149.392C311.291 145.911 314.064 143.151 317.633 141.112C321.255 139.071 325.331 137.975 329.862 137.825C334.073 137.686 337.936 138.438 341.453 140.083C345.021 141.672 347.893 144.111 350.07 147.401C352.246 150.637 353.401 154.548 353.535 159.133L322.766 166.075C324.519 169.486 327.848 171.11 332.752 170.947ZM330.258 148.618C327.646 148.704 325.538 149.601 323.934 151.309C322.328 152.963 321.463 155.313 321.339 158.359L338.829 154.337C338.243 152.542 337.188 151.136 335.664 150.12C334.139 149.05 332.337 148.549 330.258 148.618ZM374.539 142.268C376.027 140.244 377.983 138.712 380.407 137.671C382.882 136.575 385.719 135.974 388.917 135.868L389.318 149.543C387.927 149.429 386.779 149.387 385.873 149.417C382.621 149.524 380.088 150.489 378.274 152.31C376.513 154.129 375.686 156.851 375.792 160.476L376.375 180.388L361.184 180.891L359.914 137.55L374.386 137.07L374.539 142.268ZM451.635 133.79C456.966 133.614 461.25 135.073 464.489 138.167C467.781 141.26 469.521 146.031 469.71 152.482L470.436 177.271L455.244 177.775L454.591 155.464C454.502 152.425 453.85 150.206 452.635 148.805C451.474 147.403 449.854 146.736 447.775 146.805C445.483 146.881 443.667 147.742 442.328 149.387C440.989 151.032 440.367 153.481 440.462 156.733L441.092 178.244L425.901 178.747L425.247 156.436C425.074 150.519 422.802 147.633 418.431 147.777C416.086 147.855 414.243 148.717 412.904 150.362C411.565 152.007 410.943 154.456 411.038 157.708L411.668 179.218L396.477 179.722L395.208 136.38L409.68 135.901L409.813 140.459C411.361 138.647 413.215 137.278 415.375 136.352C417.587 135.372 420 134.839 422.611 134.752C425.65 134.651 428.385 135.121 430.816 136.161C433.248 137.201 435.243 138.843 436.803 141.085C438.444 138.843 440.554 137.092 443.132 135.833C445.709 134.574 448.544 133.893 451.635 133.79ZM525.195 132.073L526.464 175.415L511.992 175.894L511.866 171.576C509.139 175.028 504.924 176.849 499.22 177.038C495.276 177.169 491.651 176.382 488.346 174.677C485.094 172.917 482.458 170.363 480.439 167.014C478.473 163.664 477.425 159.75 477.294 155.272C477.163 150.794 477.981 146.845 479.748 143.425C481.567 139.949 484.049 137.252 487.194 135.334C490.393 133.413 493.964 132.388 497.909 132.257C503.026 132.088 507.094 133.447 510.113 136.335L510.003 132.577L525.195 132.073ZM502.065 164.857C504.73 164.769 506.889 163.79 508.542 161.921C510.193 159.999 510.971 157.411 510.875 154.16C510.782 150.961 509.855 148.484 508.097 146.728C506.338 144.971 504.126 144.138 501.461 144.226C498.795 144.314 496.637 145.293 494.984 147.162C493.331 149.031 492.552 151.565 492.645 154.764C492.741 158.015 493.668 160.546 495.429 162.355C497.188 164.112 499.4 164.945 502.065 164.857ZM549.599 136.468C551.087 134.444 553.043 132.912 555.467 131.871C557.942 130.775 560.779 130.174 563.978 130.068L564.378 143.742C562.987 143.628 561.839 143.586 560.933 143.616C557.681 143.724 555.148 144.688 553.334 146.509C551.574 148.329 550.746 151.051 550.852 154.676L551.435 174.587L536.244 175.091L534.975 131.749L549.447 131.27L549.599 136.468ZM590.761 158.076L586.417 162.783L586.729 173.418L571.537 173.921L569.799 114.587L584.991 114.083L585.902 145.19L600.971 129.563L618.961 128.966L601.514 148.115L621.749 172.258L603.359 172.867L590.761 158.076ZM647.267 160.526C649.346 160.457 651.123 160.105 652.599 159.469C654.127 158.831 655.645 157.821 657.152 156.437L665.311 164.491C661.344 169.318 655.283 171.867 647.127 172.137C642.063 172.305 637.584 171.493 633.69 169.701C629.796 167.909 626.733 165.342 624.501 162.001C622.322 158.658 621.169 154.827 621.043 150.509C620.918 146.244 621.846 142.398 623.826 138.971C625.805 135.49 628.579 132.73 632.148 130.691C635.769 128.65 639.846 127.554 644.377 127.404C648.588 127.264 652.451 128.017 655.968 129.661C659.536 131.251 662.408 133.69 664.585 136.98C666.761 140.216 667.916 144.127 668.05 148.712L637.28 155.654C639.034 159.065 642.363 160.689 647.267 160.526ZM644.773 138.197C642.161 138.283 640.053 139.18 638.449 140.888C636.843 142.542 635.978 144.892 635.854 147.937L653.344 143.916C652.758 142.121 651.703 140.715 650.179 139.698C648.654 138.628 646.852 138.128 644.773 138.197ZM703.552 167.786C702.296 168.628 700.741 169.293 698.888 169.782C697.088 170.268 695.149 170.546 693.07 170.615C687.42 170.802 683.035 169.56 679.915 166.888C676.849 164.215 675.236 160.133 675.075 154.642L673.986 117.458L689.178 116.955L689.508 128.23L699.342 127.904L699.675 139.259L689.84 139.585L690.262 153.979C690.309 155.578 690.744 156.791 691.569 157.617C692.393 158.444 693.499 158.834 694.885 158.788C696.644 158.73 698.176 158.226 699.482 157.275L703.552 167.786ZM753.12 169.025C748.589 169.175 744.175 168.761 739.878 167.783C735.581 166.805 732.072 165.427 729.353 163.649L734.208 151.802C736.762 153.372 739.706 154.608 743.04 155.512C746.375 156.415 749.641 156.814 752.839 156.708C758.916 156.507 761.91 154.887 761.821 151.848C761.774 150.249 760.86 149.105 759.079 148.417C757.35 147.674 754.554 146.939 750.691 146.213C746.454 145.447 742.908 144.604 740.053 143.684C737.196 142.712 734.722 141.113 732.629 138.888C730.537 136.662 729.433 133.604 729.319 129.712C729.219 126.3 730.062 123.204 731.848 120.423C733.633 117.589 736.341 115.312 739.972 113.591C743.656 111.868 748.19 110.917 753.574 110.739C757.252 110.617 760.889 110.923 764.486 111.658C768.08 112.339 771.26 113.434 774.026 114.944L769.493 126.86C764.078 124.158 758.865 122.89 753.855 123.056C750.71 123.16 748.432 123.716 747.021 124.723C745.608 125.677 744.924 126.901 744.967 128.393C745.011 129.886 745.897 130.977 747.624 131.667C749.352 132.357 752.12 133.039 755.928 133.713C760.218 134.478 763.765 135.348 766.568 136.322C769.423 137.242 771.897 138.814 773.99 141.039C776.134 143.209 777.263 146.24 777.377 150.132C777.476 153.49 776.632 156.56 774.846 159.341C773.06 162.121 770.325 164.4 766.642 166.176C762.958 167.899 758.45 168.849 753.12 169.025ZM829.013 122.007L830.282 165.348L815.81 165.828L815.683 161.509C812.956 164.962 808.741 166.782 803.038 166.971C799.093 167.102 795.469 166.315 792.164 164.61C788.911 162.85 786.275 160.296 784.256 156.948C782.291 153.598 781.243 149.684 781.111 145.205C780.98 140.727 781.798 136.778 783.566 133.358C785.385 129.882 787.867 127.185 791.012 125.267C794.21 123.346 797.782 122.321 801.726 122.19C806.844 122.021 810.912 123.38 813.931 126.268L813.821 122.51L829.013 122.007ZM805.882 154.79C808.548 154.702 810.707 153.723 812.359 151.854C814.01 149.932 814.788 147.345 814.693 144.093C814.599 140.894 813.673 138.417 811.914 136.661C810.156 134.905 807.944 134.071 805.278 134.159C802.613 134.247 800.454 135.226 798.802 137.095C797.149 138.964 796.369 141.498 796.463 144.697C796.558 147.949 797.486 150.479 799.246 152.289C801.005 154.045 803.217 154.879 805.882 154.79ZM856.953 165.185C851.623 165.361 847.425 164.14 844.361 161.52C841.348 158.845 839.766 154.948 839.616 149.83L838.324 105.689L853.516 105.186L854.785 148.527C854.832 150.127 855.267 151.34 856.092 152.166C856.97 152.991 858.155 153.378 859.647 153.329C860.873 153.288 862.012 152.984 863.062 152.415L864.037 163.829C861.766 164.652 859.405 165.103 856.953 165.185ZM891.586 152.431C893.665 152.362 895.442 152.01 896.918 151.374C898.446 150.736 899.964 149.725 901.471 148.341L909.63 156.395C905.663 161.223 899.602 163.772 891.446 164.042C886.382 164.21 881.903 163.397 878.009 161.605C874.115 159.813 871.052 157.247 868.82 153.906C866.641 150.563 865.489 146.732 865.362 142.414C865.237 138.149 866.165 134.303 868.146 130.875C870.124 127.395 872.898 124.635 876.467 122.595C880.088 120.554 884.165 119.459 888.696 119.309C892.907 119.169 896.77 119.922 900.287 121.566C903.855 123.155 906.727 125.595 908.904 128.885C911.08 132.121 912.235 136.031 912.369 140.616L881.6 147.559C883.353 150.969 886.682 152.593 891.586 152.431ZM889.092 130.101C886.48 130.188 884.372 131.085 882.768 132.792C881.162 134.446 880.297 136.796 880.173 139.842L897.663 135.821C897.077 134.026 896.022 132.62 894.498 131.603C892.973 130.533 891.171 130.032 889.092 130.101ZM916.539 106.46L934.609 105.861L932.613 141.546L920.54 141.946L916.539 106.46ZM927.235 162.856C924.569 162.944 922.361 162.217 920.608 160.674C918.854 159.078 917.942 157.107 917.874 154.762C917.804 152.363 918.599 150.362 920.259 148.759C921.92 147.157 924.082 146.311 926.748 146.223C929.413 146.135 931.594 146.836 933.292 148.327C935.043 149.817 935.954 151.761 936.024 154.16C936.092 156.506 935.298 158.533 933.641 160.242C931.982 161.898 929.847 162.769 927.235 162.856Z" fill="white"/>
<path d="M244.818 351.616C245.155 353.804 244.656 355.823 243.323 357.675C242.012 359.496 239.901 360.86 236.992 361.766L237.668 366.155L232.924 366.886L232.272 362.656C230.276 362.828 228.353 362.787 226.506 362.532C224.655 362.251 223.089 361.804 221.808 361.192L223.488 355.024C224.852 355.651 226.39 356.088 228.102 356.337C229.813 356.586 231.459 356.589 233.04 356.345C236.045 355.882 237.431 354.899 237.2 353.397C237.078 352.607 236.554 352.094 235.627 351.859C234.723 351.593 233.29 351.396 231.327 351.267C229.176 351.139 227.363 350.933 225.889 350.648C224.411 350.336 223.084 349.69 221.908 348.711C220.732 347.732 219.996 346.281 219.699 344.357C219.35 342.09 219.868 340.027 221.255 338.168C222.637 336.282 224.842 334.917 227.868 334.073L227.198 329.724L231.942 328.993L232.6 333.263C234.123 333.163 235.6 333.205 237.031 333.39C238.489 333.57 239.807 333.893 240.985 334.359L239.469 340.542C236.614 339.525 233.948 339.207 231.47 339.589C229.915 339.828 228.819 340.24 228.18 340.824C227.538 341.382 227.273 342.03 227.387 342.768C227.5 343.506 228.007 343.994 228.908 344.233C229.808 344.472 231.224 344.645 233.156 344.752C235.334 344.875 237.148 345.095 238.6 345.411C240.074 345.696 241.399 346.329 242.575 347.308C243.774 348.256 244.521 349.692 244.818 351.616Z" fill="white"/>
<path d="M173.396 429.31C173.733 431.497 173.235 433.517 171.901 435.368C170.59 437.189 168.479 438.553 165.57 439.46L166.246 443.848L161.502 444.579L160.851 440.349C158.854 440.522 156.932 440.481 155.085 440.226C153.233 439.944 151.667 439.498 150.386 438.886L152.066 432.718C153.431 433.344 154.969 433.781 156.68 434.03C158.391 434.279 160.037 434.282 161.619 434.038C164.623 433.575 166.01 432.593 165.778 431.091C165.656 430.3 165.132 429.787 164.206 429.552C163.301 429.287 161.868 429.089 159.905 428.96C157.754 428.833 155.941 428.626 154.467 428.341C152.989 428.029 151.662 427.384 150.486 426.405C149.31 425.426 148.574 423.974 148.277 422.05C147.928 419.784 148.447 417.721 149.833 415.861C151.215 413.975 153.42 412.61 156.446 411.766L155.776 407.418L160.52 406.687L161.178 410.956C162.701 410.857 164.178 410.899 165.609 411.083C167.067 411.263 168.385 411.586 169.563 412.052L168.047 418.235C165.192 417.218 162.526 416.9 160.048 417.282C158.493 417.522 157.397 417.933 156.758 418.518C156.116 419.075 155.851 419.723 155.965 420.461C156.079 421.199 156.586 421.687 157.486 421.926C158.386 422.166 159.802 422.339 161.734 422.446C163.912 422.569 165.727 422.788 167.178 423.104C168.652 423.39 169.977 424.022 171.153 425.001C172.352 425.949 173.099 427.386 173.396 429.31Z" fill="white"/>
<path d="M173.396 429.31C173.733 431.497 173.235 433.517 171.901 435.368C170.59 437.189 168.479 438.553 165.57 439.46L166.246 443.848L161.502 444.579L160.851 440.349C158.854 440.522 156.932 440.481 155.085 440.226C153.233 439.944 151.667 439.498 150.386 438.886L152.066 432.718C153.431 433.344 154.969 433.781 156.68 434.03C158.391 434.279 160.037 434.282 161.619 434.038C164.623 433.575 166.01 432.593 165.778 431.091C165.656 430.3 165.132 429.787 164.206 429.552C163.301 429.287 161.868 429.089 159.905 428.96C157.754 428.833 155.941 428.626 154.467 428.341C152.989 428.029 151.662 427.384 150.486 426.405C149.31 425.426 148.574 423.974 148.277 422.05C147.928 419.784 148.447 417.721 149.833 415.861C151.215 413.975 153.42 412.61 156.446 411.766L155.776 407.418L160.52 406.687L161.178 410.956C162.701 410.857 164.178 410.899 165.609 411.083C167.067 411.263 168.385 411.586 169.563 412.052L168.047 418.235C165.192 417.218 162.526 416.9 160.048 417.282C158.493 417.522 157.397 417.933 156.758 418.518C156.116 419.075 155.851 419.723 155.965 420.461C156.079 421.199 156.586 421.687 157.486 421.926C158.386 422.166 159.802 422.339 161.734 422.446C163.912 422.569 165.727 422.788 167.178 423.104C168.652 423.39 169.977 424.022 171.153 425.001C172.352 425.949 173.099 427.386 173.396 429.31Z" fill="white"/>
<line x1="101.5" y1="720.5" x2="978.5" y2="720.5" stroke="#EEEEEE" stroke-width="3" stroke-linecap="round"/>
<line x1="101.5" y1="1104.5" x2="978.5" y2="1104.5" stroke="#EEEEEE" stroke-width="3" stroke-linecap="round"/>
<path d="M390.5 698C390.5 698.828 391.172 699.5 392 699.5C392.828 699.5 393.5 698.828 393.5 698L390.5 698ZM390.5 348L390.5 698L393.5 698L393.5 348L390.5 348Z" fill="#EEEEEE"/>
<path d="M390.5 1474C390.5 1474.83 391.172 1475.5 392 1475.5C392.828 1475.5 393.5 1474.83 393.5 1474L390.5 1474ZM390.5 348L390.5 1474L393.5 1474L393.5 348L390.5 348Z" fill="#EEEEEE"/>
<path d="M703.5 1474C703.5 1474.83 704.172 1475.5 705 1475.5C705.828 1475.5 706.5 1474.83 706.5 1474L703.5 1474ZM703.5 348L703.5 1474L706.5 1474L706.5 348L703.5 348Z" fill="#EEEEEE"/>
<rect x="109" y="650" width="260" height="56" rx="8" fill="#FE5C2D"/>
<path d="M152.04 684.52C152.04 686.733 151.24 688.653 149.64 690.28C148.067 691.88 145.773 692.907 142.76 693.36V697.8H137.96V693.52C135.96 693.387 134.067 693.053 132.28 692.52C130.493 691.96 129.013 691.28 127.84 690.48L130.44 684.64C131.693 685.467 133.147 686.133 134.8 686.64C136.453 687.147 138.08 687.4 139.68 687.4C142.72 687.4 144.24 686.64 144.24 685.12C144.24 684.32 143.8 683.733 142.92 683.36C142.067 682.96 140.68 682.547 138.76 682.12C136.653 681.667 134.893 681.187 133.48 680.68C132.067 680.147 130.853 679.307 129.84 678.16C128.827 677.013 128.32 675.467 128.32 673.52C128.32 671.227 129.147 669.267 130.8 667.64C132.453 665.987 134.84 664.973 137.96 664.6V660.2H142.76V664.52C144.28 664.653 145.733 664.92 147.12 665.32C148.533 665.72 149.787 666.24 150.88 666.88L148.44 672.76C145.773 671.32 143.187 670.6 140.68 670.6C139.107 670.6 137.96 670.84 137.24 671.32C136.52 671.773 136.16 672.373 136.16 673.12C136.16 673.867 136.587 674.427 137.44 674.8C138.293 675.173 139.667 675.56 141.56 675.96C143.693 676.413 145.453 676.907 146.84 677.44C148.253 677.947 149.467 678.773 150.48 679.92C151.52 681.04 152.04 682.573 152.04 684.52Z" fill="white"/>
<rect x="419" y="650" width="260" height="56" rx="8" fill="#FE5C2D"/>
<path d="M462.04 684.52C462.04 686.733 461.24 688.653 459.64 690.28C458.067 691.88 455.773 692.907 452.76 693.36V697.8H447.96V693.52C445.96 693.387 444.067 693.053 442.28 692.52C440.493 691.96 439.013 691.28 437.84 690.48L440.44 684.64C441.693 685.467 443.147 686.133 444.8 686.64C446.453 687.147 448.08 687.4 449.68 687.4C452.72 687.4 454.24 686.64 454.24 685.12C454.24 684.32 453.8 683.733 452.92 683.36C452.067 682.96 450.68 682.547 448.76 682.12C446.653 681.667 444.893 681.187 443.48 680.68C442.067 680.147 440.853 679.307 439.84 678.16C438.827 677.013 438.32 675.467 438.32 673.52C438.32 671.227 439.147 669.267 440.8 667.64C442.453 665.987 444.84 664.973 447.96 664.6V660.2H452.76V664.52C454.28 664.653 455.733 664.92 457.12 665.32C458.533 665.72 459.787 666.24 460.88 666.88L458.44 672.76C455.773 671.32 453.187 670.6 450.68 670.6C449.107 670.6 447.96 670.84 447.24 671.32C446.52 671.773 446.16 672.373 446.16 673.12C446.16 673.867 446.587 674.427 447.44 674.8C448.293 675.173 449.667 675.56 451.56 675.96C453.693 676.413 455.453 676.907 456.84 677.44C458.253 677.947 459.467 678.773 460.48 679.92C461.52 681.04 462.04 682.573 462.04 684.52Z" fill="white"/>
<rect x="728" y="650" width="260" height="56" rx="8" fill="#FE5C2D"/>
<path d="M771.04 684.52C771.04 686.733 770.24 688.653 768.64 690.28C767.067 691.88 764.773 692.907 761.76 693.36V697.8H756.96V693.52C754.96 693.387 753.067 693.053 751.28 692.52C749.493 691.96 748.013 691.28 746.84 690.48L749.44 684.64C750.693 685.467 752.147 686.133 753.8 686.64C755.453 687.147 757.08 687.4 758.68 687.4C761.72 687.4 763.24 686.64 763.24 685.12C763.24 684.32 762.8 683.733 761.92 683.36C761.067 682.96 759.68 682.547 757.76 682.12C755.653 681.667 753.893 681.187 752.48 680.68C751.067 680.147 749.853 679.307 748.84 678.16C747.827 677.013 747.32 675.467 747.32 673.52C747.32 671.227 748.147 669.267 749.8 667.64C751.453 665.987 753.84 664.973 756.96 664.6V660.2H761.76V664.52C763.28 664.653 764.733 664.92 766.12 665.32C767.533 665.72 768.787 666.24 769.88 666.88L767.44 672.76C764.773 671.32 762.187 670.6 759.68 670.6C758.107 670.6 756.96 670.84 756.24 671.32C755.52 671.773 755.16 672.373 755.16 673.12C755.16 673.867 755.587 674.427 756.44 674.8C757.293 675.173 758.667 675.56 760.56 675.96C762.693 676.413 764.453 676.907 765.84 677.44C767.253 677.947 768.467 678.773 769.48 679.92C770.52 681.04 771.04 682.573 771.04 684.52Z" fill="white"/>
<rect x="109" y="1035" width="260" height="56" rx="8" fill="#FE5C2D"/>
<path d="M152.04 1069.52C152.04 1071.73 151.24 1073.65 149.64 1075.28C148.067 1076.88 145.773 1077.91 142.76 1078.36V1082.8H137.96V1078.52C135.96 1078.39 134.067 1078.05 132.28 1077.52C130.493 1076.96 129.013 1076.28 127.84 1075.48L130.44 1069.64C131.693 1070.47 133.147 1071.13 134.8 1071.64C136.453 1072.15 138.08 1072.4 139.68 1072.4C142.72 1072.4 144.24 1071.64 144.24 1070.12C144.24 1069.32 143.8 1068.73 142.92 1068.36C142.067 1067.96 140.68 1067.55 138.76 1067.12C136.653 1066.67 134.893 1066.19 133.48 1065.68C132.067 1065.15 130.853 1064.31 129.84 1063.16C128.827 1062.01 128.32 1060.47 128.32 1058.52C128.32 1056.23 129.147 1054.27 130.8 1052.64C132.453 1050.99 134.84 1049.97 137.96 1049.6V1045.2H142.76V1049.52C144.28 1049.65 145.733 1049.92 147.12 1050.32C148.533 1050.72 149.787 1051.24 150.88 1051.88L148.44 1057.76C145.773 1056.32 143.187 1055.6 140.68 1055.6C139.107 1055.6 137.96 1055.84 137.24 1056.32C136.52 1056.77 136.16 1057.37 136.16 1058.12C136.16 1058.87 136.587 1059.43 137.44 1059.8C138.293 1060.17 139.667 1060.56 141.56 1060.96C143.693 1061.41 145.453 1061.91 146.84 1062.44C148.253 1062.95 149.467 1063.77 150.48 1064.92C151.52 1066.04 152.04 1067.57 152.04 1069.52Z" fill="white"/>
<rect x="419" y="1035" width="260" height="56" rx="8" fill="#FE5C2D"/>
<path d="M462.04 1069.52C462.04 1071.73 461.24 1073.65 459.64 1075.28C458.067 1076.88 455.773 1077.91 452.76 1078.36V1082.8H447.96V1078.52C445.96 1078.39 444.067 1078.05 442.28 1077.52C440.493 1076.96 439.013 1076.28 437.84 1075.48L440.44 1069.64C441.693 1070.47 443.147 1071.13 444.8 1071.64C446.453 1072.15 448.08 1072.4 449.68 1072.4C452.72 1072.4 454.24 1071.64 454.24 1070.12C454.24 1069.32 453.8 1068.73 452.92 1068.36C452.067 1067.96 450.68 1067.55 448.76 1067.12C446.653 1066.67 444.893 1066.19 443.48 1065.68C442.067 1065.15 440.853 1064.31 439.84 1063.16C438.827 1062.01 438.32 1060.47 438.32 1058.52C438.32 1056.23 439.147 1054.27 440.8 1052.64C442.453 1050.99 444.84 1049.97 447.96 1049.6V1045.2H452.76V1049.52C454.28 1049.65 455.733 1049.92 457.12 1050.32C458.533 1050.72 459.787 1051.24 460.88 1051.88L458.44 1057.76C455.773 1056.32 453.187 1055.6 450.68 1055.6C449.107 1055.6 447.96 1055.84 447.24 1056.32C446.52 1056.77 446.16 1057.37 446.16 1058.12C446.16 1058.87 446.587 1059.43 447.44 1059.8C448.293 1060.17 449.667 1060.56 451.56 1060.96C453.693 1061.41 455.453 1061.91 456.84 1062.44C458.253 1062.95 459.467 1063.77 460.48 1064.92C461.52 1066.04 462.04 1067.57 462.04 1069.52Z" fill="white"/>
<rect x="732" y="1035" width="260" height="56" rx="8" fill="#FE5C2D"/>
<path d="M775.04 1069.52C775.04 1071.73 774.24 1073.65 772.64 1075.28C771.067 1076.88 768.773 1077.91 765.76 1078.36V1082.8H760.96V1078.52C758.96 1078.39 757.067 1078.05 755.28 1077.52C753.493 1076.96 752.013 1076.28 750.84 1075.48L753.44 1069.64C754.693 1070.47 756.147 1071.13 757.8 1071.64C759.453 1072.15 761.08 1072.4 762.68 1072.4C765.72 1072.4 767.24 1071.64 767.24 1070.12C767.24 1069.32 766.8 1068.73 765.92 1068.36C765.067 1067.96 763.68 1067.55 761.76 1067.12C759.653 1066.67 757.893 1066.19 756.48 1065.68C755.067 1065.15 753.853 1064.31 752.84 1063.16C751.827 1062.01 751.32 1060.47 751.32 1058.52C751.32 1056.23 752.147 1054.27 753.8 1052.64C755.453 1050.99 757.84 1049.97 760.96 1049.6V1045.2H765.76V1049.52C767.28 1049.65 768.733 1049.92 770.12 1050.32C771.533 1050.72 772.787 1051.24 773.88 1051.88L771.44 1057.76C768.773 1056.32 766.187 1055.6 763.68 1055.6C762.107 1055.6 760.96 1055.84 760.24 1056.32C759.52 1056.77 759.16 1057.37 759.16 1058.12C759.16 1058.87 759.587 1059.43 760.44 1059.8C761.293 1060.17 762.667 1060.56 764.56 1060.96C766.693 1061.41 768.453 1061.91 769.84 1062.44C771.253 1062.95 772.467 1063.77 773.48 1064.92C774.52 1066.04 775.04 1067.57 775.04 1069.52Z" fill="white"/>
<rect x="109" y="1404" width="260" height="56" rx="8" fill="#FE5C2D"/>
<path d="M152.04 1438.52C152.04 1440.73 151.24 1442.65 149.64 1444.28C148.067 1445.88 145.773 1446.91 142.76 1447.36V1451.8H137.96V1447.52C135.96 1447.39 134.067 1447.05 132.28 1446.52C130.493 1445.96 129.013 1445.28 127.84 1444.48L130.44 1438.64C131.693 1439.47 133.147 1440.13 134.8 1440.64C136.453 1441.15 138.08 1441.4 139.68 1441.4C142.72 1441.4 144.24 1440.64 144.24 1439.12C144.24 1438.32 143.8 1437.73 142.92 1437.36C142.067 1436.96 140.68 1436.55 138.76 1436.12C136.653 1435.67 134.893 1435.19 133.48 1434.68C132.067 1434.15 130.853 1433.31 129.84 1432.16C128.827 1431.01 128.32 1429.47 128.32 1427.52C128.32 1425.23 129.147 1423.27 130.8 1421.64C132.453 1419.99 134.84 1418.97 137.96 1418.6V1414.2H142.76V1418.52C144.28 1418.65 145.733 1418.92 147.12 1419.32C148.533 1419.72 149.787 1420.24 150.88 1420.88L148.44 1426.76C145.773 1425.32 143.187 1424.6 140.68 1424.6C139.107 1424.6 137.96 1424.84 137.24 1425.32C136.52 1425.77 136.16 1426.37 136.16 1427.12C136.16 1427.87 136.587 1428.43 137.44 1428.8C138.293 1429.17 139.667 1429.56 141.56 1429.96C143.693 1430.41 145.453 1430.91 146.84 1431.44C148.253 1431.95 149.467 1432.77 150.48 1433.92C151.52 1435.04 152.04 1436.57 152.04 1438.52Z" fill="white"/>
<rect x="419" y="1404" width="260" height="56" rx="8" fill="#FE5C2D"/>
<path d="M462.04 1438.52C462.04 1440.73 461.24 1442.65 459.64 1444.28C458.067 1445.88 455.773 1446.91 452.76 1447.36V1451.8H447.96V1447.52C445.96 1447.39 444.067 1447.05 442.28 1446.52C440.493 1445.96 439.013 1445.28 437.84 1444.48L440.44 1438.64C441.693 1439.47 443.147 1440.13 444.8 1440.64C446.453 1441.15 448.08 1441.4 449.68 1441.4C452.72 1441.4 454.24 1440.64 454.24 1439.12C454.24 1438.32 453.8 1437.73 452.92 1437.36C452.067 1436.96 450.68 1436.55 448.76 1436.12C446.653 1435.67 444.893 1435.19 443.48 1434.68C442.067 1434.15 440.853 1433.31 439.84 1432.16C438.827 1431.01 438.32 1429.47 438.32 1427.52C438.32 1425.23 439.147 1423.27 440.8 1421.64C442.453 1419.99 444.84 1418.97 447.96 1418.6V1414.2H452.76V1418.52C454.28 1418.65 455.733 1418.92 457.12 1419.32C458.533 1419.72 459.787 1420.24 460.88 1420.88L458.44 1426.76C455.773 1425.32 453.187 1424.6 450.68 1424.6C449.107 1424.6 447.96 1424.84 447.24 1425.32C446.52 1425.77 446.16 1426.37 446.16 1427.12C446.16 1427.87 446.587 1428.43 447.44 1428.8C448.293 1429.17 449.667 1429.56 451.56 1429.96C453.693 1430.41 455.453 1430.91 456.84 1431.44C458.253 1431.95 459.467 1432.77 460.48 1433.92C461.52 1435.04 462.04 1436.57 462.04 1438.52Z" fill="white"/>
<rect x="728" y="1404" width="260" height="56" rx="8" fill="#FE5C2D"/>
<path d="M771.04 1438.52C771.04 1440.73 770.24 1442.65 768.64 1444.28C767.067 1445.88 764.773 1446.91 761.76 1447.36V1451.8H756.96V1447.52C754.96 1447.39 753.067 1447.05 751.28 1446.52C749.493 1445.96 748.013 1445.28 746.84 1444.48L749.44 1438.64C750.693 1439.47 752.147 1440.13 753.8 1440.64C755.453 1441.15 757.08 1441.4 758.68 1441.4C761.72 1441.4 763.24 1440.64 763.24 1439.12C763.24 1438.32 762.8 1437.73 761.92 1437.36C761.067 1436.96 759.68 1436.55 757.76 1436.12C755.653 1435.67 753.893 1435.19 752.48 1434.68C751.067 1434.15 749.853 1433.31 748.84 1432.16C747.827 1431.01 747.32 1429.47 747.32 1427.52C747.32 1425.23 748.147 1423.27 749.8 1421.64C751.453 1419.99 753.84 1418.97 756.96 1418.6V1414.2H761.76V1418.52C763.28 1418.65 764.733 1418.92 766.12 1419.32C767.533 1419.72 768.787 1420.24 769.88 1420.88L767.44 1426.76C764.773 1425.32 762.187 1424.6 759.68 1424.6C758.107 1424.6 756.96 1424.84 756.24 1425.32C755.52 1425.77 755.16 1426.37 755.16 1427.12C755.16 1427.87 755.587 1428.43 756.44 1428.8C757.293 1429.17 758.667 1429.56 760.56 1429.96C762.693 1430.41 764.453 1430.91 765.84 1431.44C767.253 1431.95 768.467 1432.77 769.48 1433.92C770.52 1435.04 771.04 1436.57 771.04 1438.52Z" fill="white"/>
</g>
<defs>
<clipPath id="clip0_134_16014">
<rect width="1080" height="1920" fill="white"/>
</clipPath>
<clipPath id="clip1_134_16014">
<rect width="1080" height="1920" fill="white"/>
</clipPath>
</defs>
</svg>
